<mxfile host="Electron" agent="Mozilla/5.0 (X11; Linux x86_64) AppleWebKit/537.36 (KHTML, like Gecko) draw.io/24.7.8 Chrome/128.0.6613.36 Electron/32.0.1 Safari/537.36" version="24.7.8">
  <diagram name="welcome figure" id="zl6ZumjYnFfMUAFqLDAh">
    <mxGraphModel dx="989" dy="578" grid="1" gridSize="10" guides="1" tooltips="1" connect="1" arrows="1" fold="1" page="1" pageScale="1" pageWidth="850" pageHeight="1100" math="0" shadow="0">
      <root>
        <mxCell id="0" />
        <mxCell id="1" parent="0" />
        <mxCell id="CRDmnUIXy0GdyubuIBd--16" value="" style="rounded=0;whiteSpace=wrap;html=1;fillColor=none;" vertex="1" parent="1">
          <mxGeometry x="115" y="560" width="210" height="200" as="geometry" />
        </mxCell>
        <mxCell id="CRDmnUIXy0GdyubuIBd--4" style="edgeStyle=orthogonalEdgeStyle;rounded=0;orthogonalLoop=1;jettySize=auto;html=1;exitX=0.5;exitY=1;exitDx=0;exitDy=0;entryX=0.25;entryY=0;entryDx=0;entryDy=0;" edge="1" parent="1" source="CRDmnUIXy0GdyubuIBd--1" target="CRDmnUIXy0GdyubuIBd--3">
          <mxGeometry relative="1" as="geometry" />
        </mxCell>
        <mxCell id="CRDmnUIXy0GdyubuIBd--1" value="labeled social media posts" style="rounded=0;whiteSpace=wrap;html=1;" vertex="1" parent="1">
          <mxGeometry x="80" y="160" width="120" height="60" as="geometry" />
        </mxCell>
        <mxCell id="CRDmnUIXy0GdyubuIBd--5" style="edgeStyle=orthogonalEdgeStyle;rounded=0;orthogonalLoop=1;jettySize=auto;html=1;exitX=0.5;exitY=1;exitDx=0;exitDy=0;entryX=0.75;entryY=0;entryDx=0;entryDy=0;" edge="1" parent="1" source="CRDmnUIXy0GdyubuIBd--2" target="CRDmnUIXy0GdyubuIBd--3">
          <mxGeometry relative="1" as="geometry" />
        </mxCell>
        <mxCell id="CRDmnUIXy0GdyubuIBd--2" value="pretrained-model" style="rounded=0;whiteSpace=wrap;html=1;" vertex="1" parent="1">
          <mxGeometry x="240" y="160" width="120" height="60" as="geometry" />
        </mxCell>
        <mxCell id="CRDmnUIXy0GdyubuIBd--7" style="edgeStyle=orthogonalEdgeStyle;rounded=0;orthogonalLoop=1;jettySize=auto;html=1;exitX=0.5;exitY=1;exitDx=0;exitDy=0;" edge="1" parent="1" source="CRDmnUIXy0GdyubuIBd--3" target="CRDmnUIXy0GdyubuIBd--6">
          <mxGeometry relative="1" as="geometry" />
        </mxCell>
        <mxCell id="CRDmnUIXy0GdyubuIBd--3" value="offensive language detection system" style="rounded=0;whiteSpace=wrap;html=1;" vertex="1" parent="1">
          <mxGeometry x="160" y="280" width="120" height="60" as="geometry" />
        </mxCell>
        <mxCell id="CRDmnUIXy0GdyubuIBd--12" style="edgeStyle=orthogonalEdgeStyle;rounded=0;orthogonalLoop=1;jettySize=auto;html=1;exitX=0.5;exitY=1;exitDx=0;exitDy=0;entryX=0.5;entryY=0;entryDx=0;entryDy=0;" edge="1" parent="1" source="CRDmnUIXy0GdyubuIBd--6" target="CRDmnUIXy0GdyubuIBd--11">
          <mxGeometry relative="1" as="geometry" />
        </mxCell>
        <mxCell id="CRDmnUIXy0GdyubuIBd--6" value="extract errors" style="rounded=0;whiteSpace=wrap;html=1;" vertex="1" parent="1">
          <mxGeometry x="160" y="370" width="120" height="60" as="geometry" />
        </mxCell>
        <mxCell id="CRDmnUIXy0GdyubuIBd--10" style="edgeStyle=orthogonalEdgeStyle;rounded=0;orthogonalLoop=1;jettySize=auto;html=1;exitX=0.5;exitY=1;exitDx=0;exitDy=0;entryX=0.5;entryY=0;entryDx=0;entryDy=0;" edge="1" parent="1" source="CRDmnUIXy0GdyubuIBd--8" target="CRDmnUIXy0GdyubuIBd--9">
          <mxGeometry relative="1" as="geometry" />
        </mxCell>
        <mxCell id="CRDmnUIXy0GdyubuIBd--8" value="optimal number of clusters" style="rounded=0;whiteSpace=wrap;html=1;" vertex="1" parent="1">
          <mxGeometry x="160" y="580" width="120" height="60" as="geometry" />
        </mxCell>
        <mxCell id="CRDmnUIXy0GdyubuIBd--15" style="edgeStyle=orthogonalEdgeStyle;rounded=0;orthogonalLoop=1;jettySize=auto;html=1;exitX=0.5;exitY=1;exitDx=0;exitDy=0;" edge="1" parent="1" source="CRDmnUIXy0GdyubuIBd--9" target="CRDmnUIXy0GdyubuIBd--14">
          <mxGeometry relative="1" as="geometry" />
        </mxCell>
        <mxCell id="CRDmnUIXy0GdyubuIBd--9" value="run kmeans" style="rounded=0;whiteSpace=wrap;html=1;" vertex="1" parent="1">
          <mxGeometry x="160" y="670" width="120" height="60" as="geometry" />
        </mxCell>
        <mxCell id="CRDmnUIXy0GdyubuIBd--13" style="edgeStyle=orthogonalEdgeStyle;rounded=0;orthogonalLoop=1;jettySize=auto;html=1;exitX=0.5;exitY=1;exitDx=0;exitDy=0;entryX=0.5;entryY=0;entryDx=0;entryDy=0;" edge="1" parent="1" source="CRDmnUIXy0GdyubuIBd--11" target="CRDmnUIXy0GdyubuIBd--8">
          <mxGeometry relative="1" as="geometry" />
        </mxCell>
        <mxCell id="CRDmnUIXy0GdyubuIBd--11" value="calculate embeddings" style="rounded=0;whiteSpace=wrap;html=1;" vertex="1" parent="1">
          <mxGeometry x="160" y="470" width="120" height="60" as="geometry" />
        </mxCell>
        <mxCell id="CRDmnUIXy0GdyubuIBd--14" value="prompt an llm to explain errors" style="rounded=0;whiteSpace=wrap;html=1;" vertex="1" parent="1">
          <mxGeometry x="160" y="790" width="120" height="60" as="geometry" />
        </mxCell>
        <mxCell id="CRDmnUIXy0GdyubuIBd--18" value="" style="shape=image;verticalLabelPosition=bottom;labelBackgroundColor=default;verticalAlign=top;aspect=fixed;imageAspect=0;image=data:image/png,iVBORw0KGgoAAAANSUhEUgAAAgAAAAIACAYAAAD0eNT6AAAABHNCSVQICAgIfAhkiAAAIABJREFUeF7tnQfYJUWV/g2ISBQkKAgDmABRAcWsM2TFjJgVEHPEsMZ1ZTBiFtGVsJJcTCiisCoogooZAUExwgy4YCILqBj+//ddvouXO923q/qc6q7qfut5znxzu+ucOvWr6uru6gq3uIWCCIiACIiACIiACIiACIiACIiACIiACIiACIiACIiACIiACIiACIiACIiACIiACIiACIiACIiACIiACIiACIiACIiACIiACIiACIiACIiACIiACIiACIiACIiACIhALgRumYsj8kMERGAugQ1wdmPIHSHrLfxdf+H/a+LvGguy9sLflfCXYWXIagv/j/nz/xD5qimFq/H/f0KuWTh+5cJfxuH//wC5BPIbyKWQP0IUREAEMiagB4CMC0eujYoAr8VNIFtAtoTcHbIpZBFkM8jtICWFv8BZPhBcBPkl5BcLwv8vh/wDoiACItAjAT0A9AhfSY+WAN/I7wPZFrIdZBvIPSBt3tRLhHgDnOYDwdmQsxb+noO/7F1QEAER6IiAHgA6Aq1kRk2Ab/MPhjwU8kAI3/JvPWoiK2aenxx+Dfkh5AzItyA/hfC4ggiIQAICegBIAFUmR0/gbiCwC2QnCG/6/FavEE/gCqhMHgZOx//ZW8BxCAoiIAIOBPQA4ABRJkZPgIPwdoPsCtkZsunoiaQBwIGGp0C+vPD3sjTJyKoIjIOAHgDGUc7KpT8BDth7DOSxkCUQjrZX6I4AewL4ueBEyGchHFOgIAIiEEFADwARsBR19AR403/Kgtx39DTyAnAe3OGDAOX8vFyTNyIgAiIgAiUS4Jz7l0H4LZpvnRyUJsmbwU9QRm+E3LnECiefRUAEREAE+iNwKyTNb/mfgfwVoht+mQy41gAf3J4PGcsUy/6uGqUsAiIgAgUT2Ay+HwjhSna66Q+LAVcsPARy74Lrp1wXAREQARFwJsCpenzb/xtEN/7hMzgT5bwX5DbO9UjmREAEREAECiCwKnx8CYSjx3XTHycD7lvAsQLrFlBf5aIIiIAIiICRABv710HUzT/Om37Vwx73LTgUws2WFERABERABAZGgI37wZDrIFU3AR0TFw74/BiESzcriIAIiIAIFE6AU8E+DOFbnm7yYhBSBzh74NMQ7sqoIAKDJaCFgAZbtKPP2J1A4A2Q50FWGQiNq5EPbrH7u4q/l+MY32Cvh3C3PfZ0zP7Foaiw9lRsTqPjuInbQ3icfylcJ2EDCHtYyJwPXPw9hM2O+CBwDOQAyEUQBREYFAE9AAyqOJUZEFgD8hrIqyAlzv1mT8XPIFzNjrvh8S9//y+EN/cSwkpwchGEmyJxm2N2qfP/W0E2KiEDMz7ywYpjBN4O4X4ECiIwCAJ6ABhEMSoTIMApXVzw5c2QUnbf42Y234b8AMIbPVewWwbhm+dQA8tmG8i2C3+3w99SvrlfC1/fBXkf5M9DLSDlSwREQARKIvAIOPsLSMj33T7jXAgfj4bwswS/L+sB/MZaxoeCJ0B4Y/0ehJ8u+iynprT5kLbnja7rXxEQAREQgT4IbI5ET4A0Ndh9nedUw8Mg3EBowz4AFZomP908CvIhSM4PdqfBv/sUylhui4AIiECRBDiojwOz2A3b1829Lt0fw6e3Qe4P4Z4CCnYCm8LECyBfhvB7fB37Po7/Hf5weinHniiIgAiIgAgkJLADbP8S0kdjX5Umu6u/CuGOgZsmzLdM30iAMw+eCTkewkGRVWXSxzGuKvgYFZIIiIAIiIA/gXVg8ghILlvyngNfXgHhNDiFfgjwUwEfBk6B8E28jxv/bJrcU4LTIRVEQAREQAQcCDwRNjj3fbax7fr3H+HDQRCOYFfIiwCnF74WwpkUXdeL2fSuhA/PzguPvBEBERCBsgiwu/fjkNkGtsvffLM8EcKHkJXLwjdabx+CnB8L6Xu8AAeoqodotNVQGRcBEWhLYBco8rtqlzf76bT+hLQ/CNmsbQak1zsBTi98I+SiHusRe640NqD3qiAHREAESiBwWzjJG29f3/ovQdqvh0wvg1sCN/lYT4ArEz4NchakrwfKw5H26vUu6owIiIAIjJvApsg+F4Lpo5E+F+lyJcGh7Bsw7ppUn/uH4hQ/6fTxgMk1De5d75rOiIAIiMA4CTwL2b4G0vXNn8vwciVBrco3rnq3PbL7pR7qGzdp0gDBcdU15VYERKCGAN+4/6uHhvjnSJPLuerGX1MwIzn8YOTz1B7q35FIk7srKoiACIjAKAlwC1m+gXf51s+Bhc+F8LuwgghMCHCBqa4/P52HNLlLooII9EJAbz+9YFeiIPAwCBdNuWNHNK5AOu+GcH35Undy4/VKXptA+PDEB6fPQSyBNqoCd777G2T2L2dH8Bj3OZjIb/F/blfMEe+/h9TZxKmsA/myV4g7/m3Wkaf87PUMyEkdpadkREAERKBXAi9F6ry5dPHmz3Q+AOGaAqUEbm28DYSr3L0d8lkIF7iZndfON0hr8C4DLo3MwW70+QDIkyBbQUrqcbkd/OX0wa7GpLCO7gdREAEREIHBEuBN4MMQ75tOnb3vIi3eSHMOfOvkDZIzEA6DnAn5C6QuT9PHL3PIWEg6HnH48MKNkrhAz4shW0Ny74Hkkr6fDCwLD0YfQ1pabAoQFERABIZFYC1k5ysQj4ayyQa7+7l7XM678XHw2RcgvIk35afuPKeycd0ES6iz3cVxvmF/FfI6CKfn5Xrz2xW+/QrSBZNvIR3ue6EgAiIgAoMgsAi5+CkkdQPKG+LREK4Al3vYwYkHxwNYQuoyibHPB4LPQ/aB3MGSqQS6nK3yFkho70xMvmfjno90rOWaAIFMioAIiEAcgXshOgeIzTZy3r85rW9xnGu9xuabu8d2tg8w5sK7HLzscQ+GMyDsHbi7MY+e6qzPP4J45bPODlek1KJBniUnWyIgAp0SeCBSs3Rx1zWOs8ePQTqrd5ozn8Q85p8/3ujKLMtcf3MZXw7M28iYXw91jmXhg8nsoExvdpxxwc8PCiIgAiJQFIHHwVuPN9x5jeofkEbJG628Cf7Py1/IuRcZa0VIGjnF+Qfyy3EDnF3A2RJ9hu2QOGdipOTDTw579JlJpS0CIiACMQSegsicDpayYTwF9jeMcSrDuBwIaGXE79KWYE2/T32uP3AQhDMK+gocG0AfUu4twM8he/WVQaUrAiLQjkBO3y7b5SBeax+osMFKdWNgr8JLIblPIQshx65k61zzw0MSmhMnVTl1aZc3369DHtljveBbOmefpMo3r6m955SjTomACGRCgAO89oew+25MgVPv2EWbqhHkTALOmR9S+LKRF3e2s4RUZdWX3XMBg2/LfSw8tAjpfsdYnvO48driehEKIiACmRJYAr9+BplcyJm66e4WF3dJ2Q3K6WFruHvdv8HXTtWVeY1/3TkuHGQJdXZLP74MULi63qoWOC10OS7hYEgqfrzGXtLCL6mIgAgkJLA2bB8Kmb0JJkwyG9N7w5NUb/7keSAk50V9LAVxPyhbbhacLmYJlrRL0OXeBByxz+V9uwzPQGLc+jcFI14Tz+syM0pLBESgngBHJHNEetXFXq81jDNPRDa4lnlV3q3HOA1q6COgb408Wr4dkz1ttA3WMipFn2tRsPvcwiqW8bZQWAZJwYhjAp4a65Dii4AI+BHgID8OPpp3gfullp8lzkFPNdr/l7A9tO/9dSXIJYHn1aGmcxvUGQ443mR7aOc5juRRAVy8onBVSu5JkYIjr71HezkqOyIgAmEEpgf5NV3YYRbLi7UELqdaFpUD40ravc9aeq+AgaZ6NO+8ZcOjeXaHfI5rCdzHWnCB+vz8cJyxjOvK4s+wu1OgH4omAjcjMISpVF0XKfexPwQS+nY6RMZcDvUbEI578A7/DYP7Qti1PZbAJV+5U15oYKN/wYJciL+ch35RqHJgvNUQb2UIV1jkwLbJX5Y511/ginzcLW/y984L/y9prAbHrXwE8u+QayEpA9uB/RfEOx1+Kns45Bxvw7InAiJwIwFuTnIkZHaQX92T+eT40PhtigxdCmnKd5vz74PdIT4wNdUB5rlqDAkb9tMgHAS5N4Q75vGmm2vgA8M9IRwTsxTCKYp8UIm9ZtrUHYsOB1Jal1SGiaDAlRtTrJPBPGwc5IEiiYAIBBNg48zG94+QNo1McEIFRFwXPv6iJYd57HiDeH0B+U/p4qdgnN+nua8Bp6/xZs8b6hAC6w1vsO+HcNpiihvgvPoVeo69T+t1APzJSCPFPgLnwS633VYQARFwIHBX2OCSs6ENSFU8BzeyMMFu4KYBj1X5bzrGm4EWNxlXzwfXc+Cqfe+AsNu6qY50eZ4P+s/s4Irjd3v28Hjn7TTY5BglBREQgZYEYgb5NV3ALV3ITu0IeNSU19jz2ugku2LuxaHNkeqrIBxXkkvvAD9fpO4N4HiiqxJcV0f2UopKVAQGQGAJ8vBzx4tyAEhu8RpHHpOHhOtgc8chwFEeXAnwpvscCEfpp1pcKvRBlWsHLHbN3YrGuBDUlZBQn0Lj8TOSggiIQCCBtoP8mi7IwOSzjcbtdr0bYr7575ptjuVYLgQ4s4Cr+C2DNF1nqc6z7nMQZsoFhO4P+949AZxFowfsXGqy/MiaAEctV43C9mhUss54g3N3w3nvtxMuXvLYhnR1WgSmCfDmuzvkc5BUC081Xesc/8Lpj6nCA2H4akiTHzHnL4c9fl5REAERqCAQspJfzAVXFbci2SIOcR44RxVX5antMX7f5QhoBRFoS4BT3T4ASTGArqlec1+B3do6HqD3kAT5Ohs2u94QKSCriiIC/RHwHOTX1Gj0l0tbyp+EelPeYs6zK3Vvm0vSFoGbCKyJ//E792+d62lTneZDLD9LpAo7w7D3FMGjUzkruyJQGoElcNhzkF9Tg1EaH/r7ckhTvmLOc57/C0sEIZ+zJ8CeKtZXDtiLqZPWuB9FeislovMU2PUed6OH70SFJbNlEOBiJEdCul6VrAw6//KSO5h5r/HPWQQKIpCSALu5+WbuPZhu3oMCZyrcPlGmXga789KOPceljrdI5KvMikC2BKwr+cVeaLPxswVT4Rjfprx7Rw6tSEeHRCAVAc7m4ah972702et68pu7VnIsUYrwNhitS7fNce43wY2JFERgFATugVymWL0u5uIrCfTH4GxM3prifg32uIKgggh0TYBvuydAmuqox3nOIHpQggzy5cV7LA4/XSiIwKAJdDnIr6kBKQU0R+c35SXmPHsSUuwWWApP+ZkHAU4fvMi5blddB1zYigP4vAPf2L/n7D/X9lAQgUES4PKaP3W+YKou+NBjJUDmDnOXOTLj/ONU3aIl8JSPeRHg+AB+Fki9zDDHzqS4ud4Rdj0fYthjsX5eRSRvRMBGoK9Bfk0PArZcdaPNdc+b8hF6ngu1LOnGbaUiAlEEHozYqV8OOPYgxdbC28Cu59oH3H1SQQQGQSDlSn6hN766eLkD5rrrdb63Of6C3DMs/0ZNgJ8H3w7xnmY3fa3wIWCPBJQ5PbDNNVmno0W5EhSSTHZHIIdBfnUX1+R4dzTiU9oEKp7Lj2rEf3wZSKMfAjsg2UsgTddv2/P83PCsBFn7kKPP3Pp4gwQ+yqQIJCXAkeWc8/tnx4uh7YXepJcUhNH4Fxz5/QS2tOSosUCk3ikB3vxOcbwGZtsCPgQ8wTlHbPu+5eizPgU4F5DMpSXAQX7nO14Asxet9++0NNpb39ORIR/E7t3eFWmKQG8EONWOSwqn2mSInwN2cs4dB+16LoH8KGf/ZE4E3AlwShm7mLteyc/6QOAOwsEg11H3XDqV4wgURKBkAnyx4Oh46/Vepc8dNbd2hrMb7Hm1hcthi4uAKYhAdgT6XMnPYxGh7IDCoQ9DqhqqNsc+kWMG5ZMItCCwGXRSzRLgeINFLXyap3IwTra5Zqt0ODBSQQSyIsBBfqc5VvKqil91jINj9obw4aPqfMyxrIDCme0gXiOgfwVb7E1QEIGhEFgDGTkJEnONh8blssHrOYLiIkEcexOa/rx4/FSxlaNvMiUCrQlwqs5SiPemNPMuAJ5jl9qREK4nPglNOk3np0z1/l8+0HgNIGKDcd/ecyQHRMCfAHf5OwTSdG23Of9t2PVcj59jb7zayVP9UcqiCMQRWILo3hvShFyoP0O6iytcDdGdF6fCZG+HnoqU5/kac+6A3nKhhEWgGwKvRjJe39mnr61jnN3nbpsx1+68uI919s1qTiuKWgkWot/XID+O/uUyoex1qArzLpaQc1U2+zjGt47lkBCfm+LwAW2VPjKhNEWgYwLPRXpen8ymr6uXOObjVrD1HUjTdRty/tews7Kjb1ZTTe2z1b70eybAbul9IPzuHlJBPeNwkF/TE6Y1vZ7x3pT8/k582Rg+NJdMyQ8R6IDA05DG35yun0l7whsbZx54hXvBED/LWdsr6r/cyykHO5P8sId2iYM9mciIwF3hy1chHpU2xsYVSPP5ED58NIUYu1Vxm+x3cZ4Dj66BVPkXe+w/u3BYaYhAZgS4bK73WgGcy7+hYz6Xwlbs9VwVn+3j9DgoRxejTc369xlY8BxIGe2QFOwE+hzkd0Rk5Z6tgLG/7bTsFg6CiVi/q+Jz7YC17O7IgggUSeDR8NprwN3k+uKgQK8ud9rxmhXw3kxKqKodmp6llYmbciOUwMMRsY+V/Dhlrc1+3VUVMOZYKJdU8TaFYa9GK8UuZ6nyLbsikIIAN/nx3lb4A46O8vOcx8BFru65kaNfbU3Na2u/AaNbtjUsvW4J5DrIr4nCvAoYcq7JfurzH0cCIX42xTkutaOyLwKFEODnw6brJfa853K8n3Dyjz2HfYcmjpNBghqU3HdJ1aSf+yC/GrdvOtxUAXXevzEcE1MO3OI31wsg50I4JoYrNb4MsitE3zsBIcPAabCe9fRS2FvHKZ98c/cY88NegDs7+dTWTChjDRJsSzihXp8r+e2FfIUM8mvKfmgFVDzfBlE8b+TJ7txzIOwm5jdovek0XbHdnfdcipf1nW/uXsFrbYC+B/3GtANVC7l58ZSdCAIlDfJrylZMBVRcPQSkrgNXocIeDuEUMo8H3Kb6r/P1BG6NU5+DeJY5Zxt4BA4I5NLDVt/YQ7XIw6GWNtr4r0GCLWF7qO0AIzmt5GfNU5sKKB17wyOGzQw5sJXfo+sWsbLWfek3E+ACW2dDvOorb14bNCcbFONJTn6xp6OvYOEass5LX/kaXLrrIkdHQTxGoMYUOr9TvRmSqhGM8UVx/RpCsQxnyemZ3NPec435wTVQCTO0CLY9FzL7opOv7CH6AcR6LV0LG32tC2D1nTOg9oekuj84FVXZZnaB+xzEYi2sWP0upoHE+qT43dcDMb+ROQcS7l52U1Ks94+E555LBj/DiQSnXXtcH3zJ6iN4+E4bbaeB95HnYtLkrlmcKtL1Wz+ftveCdPEN1KsCyo5PQySOzRyPx7XR9+jtYhoxR0f/A7a86ufvYMtrq+0vOfj1e9joo4fJiyftaJCgY2Vnl4r3AJimwmYBcietLqdGNfmk836Nnlj6seRgwT0dr3eZaibAFxLPNpGblHmE7WDE4yXthR7ORNpI0SbELAUf6e44ovNJ8DRIisKps1m3XW9q4nX+6Hi35S/e8bzZ6L8PcpvUF4ns30Tg9vjfcohHfeUI/Ls7sfXoBeCsgi56Xaez7MGxzsbXHfk6FVP+ZlgBPgmpg+p9PPUgvybi3vmRve7qjljfyJpjZXhjUuiGwI5IxuONm/X3ZCeXHwQ7HtcDx3t1GTx8nmdDgwQjS/NNThVpXqFMzuXwhBbip+L4NC7imI7jj3Hdeu48F9lsjC76hxzbSS4A5RG4yqT1GuMnji6D1d9QfU5dX9JlxkpMi9+S/gYJhdo2XpeD/JrKoW0epJe+nohxHONlqOzcglshPYFVkcQvIB519New4zGNbbGDP2z/u3yQ9OAXamMySJBT2hVmCHDVqzMdKtC8wuhjkF9TQc/zV+d8Gjhx7I7jxajwGzdVep13IcBud+vOgbzhHgrx+oTzfdiyXm+c7dBVsPraRl+DBCtK97kOFWdeYfQ1yK8iqzc7NM9nnbM3JmLYPUN+DvC6oTRdP2M//86W7SZfhtjdvoUzQK4vYL3m+BDJF8IugtVXiz4/Qd+ji0zmngYL22Nd6arC6HuQXxP7Kp91zN6IiGG/DE9HxdfsgKar336emzddCImp799F/Ifbk660wD0CLon0p8r3rhacqkq7y2MaJIjK4rWm9GzB5TDIr/IqmTo467N+xzVm4pUvr/c0VX6ddyGwR+ANl72gbGtTh38P9GfetXtsaicX7M/zoctzox4keIJDhZkurJwG+XVUj5WMCFQS4BvZ2hDO994N8grIpyBceS11A8duZq8R5jClMIfAV+aUJ/dy4KZOXFm1i8BBbux5tdSv66C/RgfOWnz01h3lIEEWsrWyTAqCAI+A9LWxRAf1VUmIgAsBrrfxAMiHIZdDvBuzib3LYHsjF49lZB6BLXHyhply/BN+L4X0scQu3+CtdWqveRl2Omf1MYX+qLYbfrxDRWEhXARZ7FQpZEYExkRgdWT2VZBUG24dNyaYPeb1A0ibbSFX+OPI/vV79GWHBV8sN8hTOvDf4l9qXX7CHvwgwbc6VJQf9VzZO6inSkIEkhPgg8B7IbNvkh4NHT8/KKQlsBbM/ydkk7TJBFlnDxN3yLPUHU5xvFNQau0jWfzrQnfwgwRPNFaSq6G/efvyl6YIiMAMgfviNxeH8WzgOMuHI9YVxkPgDQ516KWJcXnW8ZS2BjtIkCNTLeD4xqIgAiLgS4Bvk1+EWK7NWd3UjbkvAVmzEuDbu3WhIi4vnDLM1tGcfw9ykOBvUboW6PdLWTtkWwRGTICjxj9mvD6nr20u8MJZCQrjIcAbuKV95+cozmJJFSy+UZff6a02YvUHNUjQOgNAK46lujRkVwRu3J7V8yGAK34qjIfAc5DV2BvcbHyuLpgqzKYV+5tjHfaG8KYcq2uNfxrSLH6QoB4AUlVt2RUBHwLsCbCO1Zk0dhwL0PWe7z4UZKUNgXWgxFkJlpvdZ9okHKhj8Yu6k8Cp50dC2E1vtRmjz0GCSyG3vcmTwv5j/QSwfWH5lbsiUCIBjgm4ABLTONXFfWiJAORzawLWh8drkHKqG1xdHQ09PgtlMQ5Yx7WFpj0dr9hBglZY75stAf0WARFIQoDjbbh7XJsGalrnsCTeyWiuBJ7pUGd2TpQ5a12ucosPK/tDrL3bsb6x9+EoSFHbDVufDjkN8C5VpaBjIiAC7gTeD4uxDdNs/CthQ1MC3YsmW4McxGd9cHxnotzN1s3Y3/Pc4vLbfQ0S3AdpF/Gp7S1wNBb6bPyzYGODeSWhcyIgAi4EuHS39bMdr9+udntzybSMmAmcDguz7XbM7x+aPag2EONDVdxqq/86ypswlzTWIMEaUo8zVoxJoWgp4BrAOiwCzgRe43DN6tOdc6Fkbu7fjHXmH9DngELvUHVTjzkW6g8HCR4B0SDBGWJcfvR6SAz0uriES8iErSACIpCGAK/ZKyB112HIcfbaKYyHwBbG+sI6tWcCXCF1dV6cWJcWQ8E67m2eP3Xnsh4k+HmHyjGdcW0HHFstFV8E4ghwzfm6xibkON/o9KAex7z02Na9AT6aAEBIXZ0Xp41LoxkkGDoI4Ymg+Nk2JBt0TsP5F0I49zjXwMqlIAJtCXBw1VWQZZAfQzjo6H8gf2prMFDvgYj33cC4ddF2wYmv1Z0MOL4a4tx3QTgQeDPIphBOWVwVsibk1hAFEUhFIPQeV5U+BwkeAtmh6mTCY5fBNj/jHQ3J4v7Di/QXC87Me9pqc45TMd4MSTWP1FpObfIkHdvb59D5XYdKeTjkrtbKOUefDd8fIBaWL5ljv+rUrXDwwZB3Qc6BWNeZt/guXVvZD4VfVT2NOcbrSIMEAWFfSMpKwe8ui2NKpqO4KfMs22nrVO58uY76gZBUD7+fNl6zHwq8xrZCPO51/3tjermXl/wr73oNrMKN0UY/SJC9AJzqkfIiyHGQYMr8ynba+lQK32/jukoxTfaVxuv15DnNIt+MOEPoW8Y0Sikj+VnmtTqnCrc6tRhafQ0S7PpTxAqAtsER64IRIRdSToMEQ/xVnDIbh5zKjTvxbb3CFWc7wLn8ljxyzEJVeAIOnm20bfFLurZyHRO/qvprPcYeO362HuVKgm/s8MLngCkOxOgzjOliUV77bVgvQkX37Am4m/FavXDmwuMDCq9J1RMxKKUOpLx39LWS4O+QqUemzNg82+z6O7bDRqDvQYKlVHT5OYxGmZ8DvMYEcM1xS71gTxwD/XkPpIveP4u/0rWV9xD5LVThZH/6GiTIz+UfhHAn0M4D1wnn9KAuK0xfgwS7zKPS6rZO5cr7nU5XNG/cljxyK9N7Qc412rH4IF1bGY6dn9Ol1Gimr0GCJ8CzXvbtYOPivUBQU2XtY5Bgk086rwbKuw5wf3avDbSsvnX9ndPqr/R1PU7XgcY7t3OExbDX9SDBU/t6CGD3A6f/8Mbc5YXX5SDBLvOltLqtRznz9tqSN+c8yjfV99R1wPn+HmSuj0GC/CzPzxG9BA5I4MCE1IU5a7+LQYKzaep39+U8RubX4nrimv7WMEZ2yrOu0UkdsF4/Fv2uBwlygH5vgQOOjoJ03RuQepCgGhM1Jn3VgSc7XM19+a50dd3kUAccLiGTiS4HCXKQLqfqBwcu3ekVuH7xPpCdIFw2uKvAARAHQLj06OKuElU6ItABAV5LCiIgAuUS4EPQMRDutngkhL9TBX6S5xLjwftreD4ATDJ1Gv5zHwhvyhzM1FUgYKZ9BES7mHVFXemkJMDrSEEERKB8ApcjC1xOn6v5cevfVOF+MLx3qPHUgwbuAUe4m9KSUIec4rE34tWQj0OsT1xWfacsycwICXAzH+vCQKq/I6w4yvJNBFLf49qg5iDB10GUbcnQAAAgAElEQVTeAEkxhY+763J/Dm7p3XtgAewD4ch9NkZdiscgwS79VVrd1o/ceXMevjXknkf5pzqfsg5Yr5+U+ikHCT4xpeNtbPc5SHB/ONx2dTVr5WzDalaHm7JY/HjxrEH97oyApdyoaw3W9D30OUPok5D9ILtB2PCtDVnZmjnpi0DhBFINEuQaPVmGJfCK30A8GpYYG21XEoxJoyquRyGcZ+T1CA8nZKMVgao6EXOsVaJTSjFpecblN8+DIfe3ZkD6IjACAt4rCV4PZh7TiJOg59v4Ugi7OD0bnSZbbVYSbLLZdN4DIBvTpnTmnedYDIV+CMwrl5BzVq9D0vCMcwkc5jbEq1kdl74IjJDAYuT5IojHNcnturMOvDGd5pTZGGAxKwnG2K2Kay2A2xn5cCBI288fVt+lb7+QrQyr6mSKYzfA0XdDdOO3lpj0x05gfQA4C2K9Tt9SAsjcBwlaC8FaBlwT3uLDb6wOSN9EwFJ21LUGa/oh+hx1vK3VUemLgAjcRIDt/jWQkOuvLs4XS+KZ6yDBOrihx61l8DBjJfie1QHpmwiE1pO6eKbEjXWnzqfp49yNbE2rk9IXARFYgcD7jdfv+StYLODAEviY0yDBkEZwXhwr8qcaK0G2o0GtYArRn1c3Qs5ZsxmSRts4UauOWTMifREYGQEOoG17bVLvt6Xy6nOQ4JGANr2SoKUAqGsNrzJWgo9YHZC+iUDf9ceafp0+b/45LrJiKiwpi0BGBDhVtu76CznOfXKKDn0OEtwb5NjAhYCeF8daAO81+vAmqwPSNxGYVzdCzpkSN9adOv/Y7R+83rg1A9IXgZESGP0DAMudN2HejPtaSbCuEQw9bq27/w0DoWlVxXue1QHpmwhUlUnMMVPixrpT5ScH/Ombv7VUpC8CzQQeYLx+Gz8BpNgMqDlbcTHYCB0N2RJy1AKQOAvtY+/QXtVNcy2jpSuN+lIXgQkBbjf6FAhHJyuIgAikJcDxX5YwyLZ/CYj0MUiw6m0o5JilAKn7TUhIOnVxtKWstQRs+nXlEnrclrqt7sz6yHn+CiIgAukJ3BVJjGoaYAxSDhLcH9L1SoKzDWLI75h8VcX9MQ6GpFMX575VRnWsMwJ15RJ63OpoaDpN8bjCnxb5sZaG9EWgmQB3AD0H0nRNNp0/oDmpsmNwkCB3/GsC0ed5K+HlxvxxQQmF/ghY657Vc2v6E30u76sgAiKQlsBimL8Y4nHdPjatq3lY73OQYEghWSlxT/iQdOri3NHqgPRNBOrKJfS4KXFj3Zn4yL0o9PZvLQnpi0A9gVFtBlSPof0ZTpk4FMINf0Ib1y7itc/RjZpXGfOzjtUB6ZsIWOuYKXFj3Zn4zl39FERABNIQeBLMWl/0ZtuZz6ZxNX+rS+BiToMErcSuhYHZwo35ne2WkFYwhejHlFVVXGs2q2zGHtve6kSA/hqI8zQIFxj6AYQNIjcYivVV8cVsug4EVL3eotwdKaf6hL1Hb7nKIOGcBglacfzV2AhqJ0BrCdj0rTckW+r2m8Hv4EDKFf/uBPsfhVxnrOdWztK315UcGVqvnxT6bJPfDOFKfSmY8QW4hCn+KdjezGYOgwStmbR+0lBFsJaATd96gdtStzcwn7Q6UKPPba65Xam1h8vKV/r2OpIzw5rq19vhxUj5Z5CUzJ7dW+4yTLjvQYJWJFx8xVJZVrY6IH0TAUvZUdcarOnvZ3WgQp9znM+FWH2Tvhg21YGK6tfLIe9BfnX55uczLdNdUcTcbvhIiPWNug583fEKV6IOXY/YdbZDjmsMQBRu98ghZTQvjtWhebZDzj3C6sCM/jb4/XtjnQ7xW3Fs7cZQ+DlX32hzfAHdC9LFUvYcM3PvaA9HprAE+e1ykKAV79UwYLkYp3c2tPoi/XgClrKjrjVY0/dcR4Jv/rr5265na3mOTd96/Vj0Uw7yqyrH11mcHZPubZBZwko1CGO6cKxcL4OBqsIOPcZBVgr9EQgtp7p4Vs/r7IYe95pGugoycraxLof6rHi2NmNI/KzXTxv9Lu8vk7L6NBxNOVi3DYfsdbp4QrNCuNTYaG5qdUD6JgLWxtSUuLHu0HevMSQc8GdlIX0xjK0D1usnVn8xFFIP8ptl8DWkyQdshRYEUg8SbOHSzVSW49dsgcf85kwIhf4IxJRVVVyr51U2Y45Z06c+e6E02t92HceUmeL+i7VH/Q2x0dUgv9myPR7Oaap3SAk1xGEBHgnxHiTYkGzjaeto6fs0pqAIKQnMXrCxv62+xaY3G9+aPvU5z3/Wrn6LSRd1wKP+zrPR5SC/aV68T30AohH/80qnxbmHQeenjg1WCxdupvItoy87Wh2QvomAtZEzJW6sO/TdGtaEAS3yo5u99Tpoq2+tv/P0OUD2FEhb39rqcZXMR89zLPScFolZkRRvuNtBlkK4Cl/fgXsBWAKnPyqIQF8EHoWEV+0rcaUrAgkITFby+wls75LAfp1JPjB8HHJPyEl1kWKO6wGgmhZv/AdAOKfytOoonR3lNEBL0AOAhZ50rQTUA2UlKP2cCCyGM+dAeH/ocuDdr5DezpDJmgIuTPQAMB/jL3GaDdiTIVzIoY+gB4A+qCtNLwIag+JFUnb6JDDZbZYvhFt06AhXgn0XhC+j3DjINegBIAzncYi2JeQoCLthugxXGBNTD4ARoNRNBDYzaUtZBPolMBnkx5fB50O6nGv/TaTHB+jXQ/6SAoMeAMKpXo6oz4awC+j8cDVzTO7GZgl6ALDQk66VAAcBKohAiQQ4yO9kyNGQLtvRK5HeKyA7QLimgEJmBGK2G7a6/gQYaDtalHqnWh2QvomApew8epvGnr6p8EaubF2E7G4O/Pqov5P2vYuVYqfzx6l9x0DWc+AmEx0QCJkGYnXjATBguQgutDogfRMBS9npAcCEXsoGAtyu2bImCnVpwxq6vn68p4GH+v9rgNrVCkv6/RB4EpLl3MyqwrZ6tHGN3aq0qo5xEAnXplboh0BVmcQcs3odk1ZV3NLTt/o/Vn2OeaqqD6HH2B56hND06uKF+jAZ5Gd56KnzYd5x7uB3IKTLGQWhTBQvggAr0EGQf0CmCzzCRGVU3rxnbc6rUFXnNq+0rINdEKgqj5hjVh9j0qqKW3r6Vv/Hqr87Ml5VH0KPneUELjS9unghbsx7gauz63Gcg/y2CnFQccohsASuTm8G4eH5JTBiqXCcP6rQDwFLuVHXGsaevpXfWPVfgoxb6s4XncBZfGi6frrYDK7Kf+7wui+kyxkFlcWhWQCVWEwHT4f2NpClEK+VBPl9yBLUA2ChJ10RGB+BTY1ZXmbUT6k+GeT3YyTCkfZdBT4McJAfP68cAWl6QOnKL6WTiACfMD3CxxYqS9XTZMixd3o4IRutCISUz7w4rRKdUppnO+Rc6elb/R+r/onIeEj9qIvzMidwdfZDj8+6sRgHut6ul75OFpWb9afX3+oBSIufhe4RrD0AXa5c5ZFf2RABEeiXwNbG5K1tljH5FdQnu72ehjNdtofsBX4LJMlKfivkUgcGSYCDVEKfeKviaSpgf9Wiqjxijlk9j0mrKm7p6Vv9H6P+Gsi0dTT8XZ3AVdXJmGN0Q4P8nApDZvohwDEFMZV+Ni4v5rX6cX30qc6WRexvK8DY9Gbjl56+1f8x6j/Q2N5wattKTuBm62Ps768b8xKbHuNzkB9Xje19kJ9TGchMzwS4oMbfjRX54T3nYazJt2lApnWs3MaevpXfGPWfZ2xruE2uV7DW3671P4OMr++V+dR2NAYgNWEf+1ySkttBWgJ7ERREQAREoImA9fv/eU0JDPA8x3vtBOHOsV6LICXHpAeA5IjdEuCUFUvQtqwWetIVgfEQ2N6Y1XON+iWpT7brZfvKzw1FBT0AlFNc1otKPQDllLU8FYG+CKyMhLc1Ju75CcDoSlL1b8A6R/cn2643qfcyXhSBR8Nby/csDsxZragcD8NZS5lR1xrGnr6V39j0rZuPsb4tcoRmrb8p9AczyE89AI41NbEp6ycA7inwoMQ+yrwIiEDZBDgDwBL+COWLLAYy1uXDxGQlvyPxf48H9F6zqweAXvFHJf4bxOaeAJbArS4VREAERKCOwIPrTgQe/35gvNKiXQCHd4PsDeFDziCCHgDKKsbvGt3VVEAjQKmLwMAJWHsAfjgwPpOV/Dgz4qsDy5uyUxiBV8Ffyzet66HPQT4K3RGwlJdHF+PY0++upMtPiav3WesL35I9g9Ufi/43kZFBb9erHgDPqprelrUHgAsK3S+9m0pBBESgQALWbcN5sx1CD8DlyMe+kMWQ8wssx2CX9QAQjCqLiGfBC+sWw0uyyImcEAERyI3ALkaHfgr9K4w2+lTnA8ygBvn1CVNppyHwLZi1dGudkcYtWa0hYCkr6lrD2NO38huL/q2RUd68LfXl4ASwLP7E6P4Cvu+YwP+sTaoHIOviqXTu1Mqj4Qc5yGfd8OiKKQIiMAIC/DS4tjGfpxv1+1AveiW/PoApzX4JPBTJxzzZVsV9Zr9ZGFXqVfxjjllhxaRVFbf09K3+j0X/P4ztCnccXS8BrKo66XXsdPi7RQKfZVIEkhHggj7XQCwXwaeSeSfDswQs5URdaxh7+lZ+Y9Hn+CJLXUm1AZDFpzrdwazkN5bKqXzenMBJxov1KujzQUIhPYG6Rij0uNXD0HTq4pWevtX/MehvikzyDb6uDoQcf3ciUCFpx8Thdr0peioSZT+tWY0BSMs3lfWvGQ2vBf2HGG1IXQREYBgEnoBs3NKYlZON+qnVp7frHcxKfqmhyX6eBDwW7EgxYjdPWv16FfN2UhXX6n2VzZhjpadv9X8M+taZRdcC0m0TgYqpq1VxuQnagZBVEvknsyLQCwEuUFFV4UOP/QH6+gyQvuhCy6MuntXDOruhx0tP3+r/0PU3QAb/bmxLvpAQUmg9rYo3+JX8rNz1CcBKsD9960XH72DWlb/6y71SFgER8CCwJ4xwDQBL+B+LcgLd0azkl4CdTBZCgPP5q556Y45x1SuFtARiyqMqrtW7Kpsxx0pP3+r/0PW5e19MfZiN+w/o3zEhpNn0mn5rkF/CwpDpfAiw9+ZS48XLb3er5ZOlQXrS1GA1nbdCabLfdL709K3+D1n/7sb2g3Xn9MSAmurn5Pyv4Yd1KePEWcnPvD4B5FcmoR5x2o71MwBv/o8JTVDxREAEBkVgH4fcnOBgw2JC2/Va6Em3aAKL4X3oE3JdvC8VTSB/5+u4hx635jA0nbp4padv9X+o+nz5u9jYfvAlZFFiQHX1ksdPh2glv8QFIPP5EvC4iPkNb/N8s1i8Z/MasJBzVgAhacyLU3r6Vv+Hqr8TMjav3EPOfacDOFV+aCU/J/D6BOAEsiczfAK3LuvLOvCCnvxXsiIgAv0QeLFDssc62Ig1cRwUtoQcCeHDgYIIjJrAtgsXQtWTcugxroylhTLSVKPQMqiLZ/Wqzm7o8dLTt/o/RP0NkSkukBNaB6ricRc9riGQOkzS/hUS0iC/1LRlv0gC1kWBeJE9q8ic5+90VeMZc8yaw5i0quKWnr7V/yHqvxWZqirrmGNdzf3/C3xdCtELyhBrovLkQuA1Dhd0F9/zXDJbmJGYRrUqrjW7VTZjjpWevtX/oemvjAz9zqG9eFpHYDTIryPQSqZcAuvDdU6HiWnYq+JuVy6CbD2v4hxzzJqxmLSq4paevtX/oek/3aGd4Ep7eiMfWs1QfoomwBWwqhrwmGOfLppAns7H8K+Ka81Vlc2YY6Wnb/V/aPo/cGgnPjg0KMqPCJROgANkYhr2qrjcFISrgyn4EajiHHPM6klMWlVxS0/f6v+Q9Ln3R1UZxx6755CgKC8iMAQC3M+bI2VjL+bZ+IcPAUZGeZjlG/vbmpXY9Gbjl56+1f8h6Z/q0D6cMSQgyosIDImAx2BAjrrdaEhQes7L7A019rfV/dj0ZuOXnr7V/6Ho3x8ZmS3bNr+fORQgyocIDI3A7ZGhPzlc6O8bGpge89OmkZ3Wsbo+9vSt/Iai/3mHdoGbj3EWgYIIiECmBA6GX9ZGnw8R62aav9LcspaFNb9jT9/Kbwj6WyMTXPLbWhf+YwgwlAcRGDKBzZA5DuazXuzvHzKkDvNmLQerq2NP38pvCPrcNdRaD/hpsIuV/4bAW3kQgV4JeF3wm/aai2Ekbm14rRTGnr6VX+n6D0IGrHWA+keUDkL+i8BYCDzc6aI/ZizAEubT2vhaXRt7+lZ+peuf7tAW8PMBN+BREAERKITAN+CntfHnhc/NhhTaE7CWQfuUb9Qce/pWfiXr7w7nreVP/c+WDEG+i8AYCXgt+tHVph9DLSNrA2zlMvb0rfxK1ec232dBrOVP/fuVCkF+i8CYCXCDH48GYIcxQzTm3crfmLy5/EtP3+p/qfrPcbr2Ty4VgPwWgbETeKRTI/AT2LnN2GG2zL8eAGwPoS2xj1qN64H83unaf+ioSSrzIlA4AY/NP3gT4yqDCvEE9ACgB4D4WmPTOAjq1npH/a/Y3JC2CIhA3wQWOzUG18HOor4zU2D61obYmuWxp2/lV5o+N+q5wemaf0BpmZe/IiACKxLgdzzrjYD6x61oWkcaCFi5N5hvPD329BsBDSgCNwT7OsRa5tTnWiIKIiACAyDAqXweS4GyYdhtADy6zIK1Mbb6Ovb0rfxK0t8HzlrLm/psK+5dUsblqwiIwHwCxzo1DtxyeNX5SensFAFrg2yFOfb0rfxK0b8THL0CYi1v6mvVv1JKXX6KQCAB7hHA9bw9GghuOKQQRsDKOyyV+lhjT7+ezLDOHI/sWMua+tdCNhwWGuVGBESABN4J8Wgk/gk7+hQQVqesvMNSqY819vTryQznzJOdrmvWlTcPB4tyIgIiME1gdfz4jVNjcRHsrCm8jQTGfgPuO/+NBVR4hDvAf685//8LW/q8V3iFkPsiMI/AU3HS2ihP9PWtcB7pG89ZWTenMD/G2NOfT6f8s592vJ7ZNiiIgAgMnIDXVCHeXPYYOCtr9sZ+A+47/9byy1n/BXDOyneiz83DOI1QQQREYOAE7oX8/Q3i0Xj8AXY2GjgvS/asjC1pU3fs6Vv55aq/BRzj4lzW8qX+XyG0pyACIjASAu9APj0aD9r4LkR7BVRXHCvjaqvhR8eefjipcmLeFq567fTH+sHBwQoiIAIjIrAK8vpziPUGMdF/94jYxWTVyjcmraq4Y0+/iknpx97veN1eAFurlQ5E/ouACMQTeBBUvFYI5NTAJ8S7MHiNsd+A+87/0CoYrzFea1au1KednYcGSPkRAREIJ/CfTo0JG5QrIVxwSOFfBKwNtZXl2NO38stJn9/pr4ZYy3Sif0hOmZMvIiAC3RPgXP6LHRuVM2Hrdt1nI9sUrY21NWNjT9/KLxf928ORXzpep1wPROt45FK68kMEeiSwA9L2+hTAGw53DdSUohsLdOw34L7z3+Nl5Zb0rWDpRIiV5USfXf+PcPNOhkRABIonwEF8Xg0M7byteCI+GbAytXox9vSt/HLQf6vztam9PHIoVfkgAhkR4NSis50bmmdllL++XBn7Dbjv/PdV7l7pPtv5mjwf9vSJzqt0ZEcEBkRgK+TlescG5wbYWjIgPm2y0vcNcOzptymzXHR47XCRHmsZTvR5PW6fS+bkhwiIQF4E+Gbg3QvwR9i8a17Z7NQba+NtdXbs6Vv59aW/NRK+CmItv2n9c2FPb/99lajSFYGMCbBh+KpzgzNpfJbB7p0zzntK16wNuNW3sadv5deH/oZIlLttWsuuSv8U2NVDQB+lqjRFIFMCKW/+k0aIU5g2yDT/Kd2qaoRjjll9i0mrKm7p6Vv971p/XSR4HqSqLLyOceMfrf7XdckqPRHIkEAXN/9Jw3UO8r92hgxSumRttK2+jT19K78u9Tkv/4cQa5mF6KsnoMuSVVoikCGBLm/+k0bpO+AwprePkMZ4XhxrtZlnO+Rc6elb/e9Kf1UkxDfzkDLxiqOHgK5KV+mIQGYE+rj5Txqur4AFNyMaQ7A21lZGY0/fyq8LfV4Lp0KsZdVGXw8BXZSw0hCBjAj0efOfNFJfA48x9AS0aZSndazVZuzpW/ml1uebPx+IreVk0ddDQOpSln0RyIRADjf/SWN1BpislQmXVG5YGmbqWsPY07fyS6nPB2A+CFvLyENfDwEpS1q2RSADAjnd/CeN1o/AhSOfhxqsjbOVy9jTt/JLpc/NfTgexlo+nvp6CEhV2rIrAj0TyPHmP2m8uDzphj3zSZW8tYG2+jX29K38UuivD6PeC25Zy3mir4eAFCUumyLQIwEOMsqlq7Guofo5fFzUI6NUSdflN/S41a/QdOrilZ6+1X9v/Y1hkA+8dbxzOM6HgLEM0vUuX9kTgewI3AYeXZB5o8OG71LIfbKjZ3PI2qDbUrffaEpP3+q/p/6WMJZqhT9rPZvWXw4/V/bMuGyJgAj0S+A5SN6zkfi9s72Jb1fA7kP6ReWaupW51Zmxp2/l56X/QBi6LOE1Yy3naf3neWVadkRABPIg4NkLcCaytA7kkEQN2l9g94l5YDN7YW2YrQ6MPX0rPw/9nWHkmkTXynGwy2vxe072l8OO3v49Sl02RCAzAl69AEsX8nUr/P0ExHqTqdL/G+zukxm/Nu5U5S3mWJs0p3Vi0qqKW3r6Vv+t+nvBwA2QKrbWYyfA7koLDu7vlMZzrRmWvgiIQJ4EvHoBuE3pZE3/W+P/fAuxNmZV+v+E3aV5ogz2qipfMceCE6qJGJNWVdwas8GHq2zGHAtOKMOI+8Gnf0Bi8hsal4N6JwP1uJYGP52F6tbFWw4bevvPsCLJJRHwIsAn/LoGIOb40imH2Gh82clulQ8fgm32NpQYqvITc8ya55i0quKWnr7V/zb6t4TSUkgVT49jXD9g9SnH9ndKS2//bUpbOiJQEAH2Alzo0GBcCRtczGQS2CBxZT+PBq7Kxsdhm76XFqryEnPMmt+YtKrilp6+1f9YfXbJHw2pYulx7AewPb16Jv/Pa9FqexlslHh9xZaP4ovA6Amk6AUgVK5r/lWItTGq02e35xqFlV5dXkKPW7Mbmk5dvNLTt/ofo8/6f1LC+s8HbG4ZPB32d0pPb/8zYPVTBIZKIMVYgAmr2+I/X3BqlKpuSnwDWq+ggqnKQ8wxa1Zj0qqKW3r6Vv9D9TkmJmUP2OmwP/vwq2//oaWjeCIgAjcjkKoXgIlwTMDxkKobisexn8H2JoWUpzW/1myOPX0rvxB9LmP944T1/UuwzaW8Z8P+Tmnq7X+WrH6LwMAJpOwFIDrODuB3e+sNqE6fqwbeu4AyqvM/9Lg1i6Hp1MUrPX2r/036qVf3+yIcYK/abNDb/ywR/RYBEYgi4L0uwGzifAj4L0jdzcV6/HLYfvBsopn9tubRmp2xp2/lN08/5ep+LLejIBxUWBX2x0Fr2VJfb/9VdHVMBEZAIHUvABGmnhLFVQP3yLisrI20NWtjT9/Kr05/Z5xItbofy+wgSN3UV73915WKjouACEQRSDkWYNqRl+JHqkVR/g7bub7JjP0G3Hf+oy6GwMjPRLxUq/tx8avXNviht/8GQDotAiIQRqCLXoCJJ3xT/zPEelOo0s911cAqX2OOhZVifayYtKri1lsOO1NlM+ZYWCrdxXo5kkr1IMvlr/dtyIre/hsA6bQIiEAcga56AejVjpCrITE3gZi487pO46j4xI7xvSqu1YsqmzHHSk/f6v9EP/WnrOuQ0O4Bzu6PODHlVxc31x6zAASKIgIi4Emgy14A+n0/SKrthNng5bRqYF0DHHrcWs6h6dTFKz19q//U52DWwyF1jKzHQ7fA1tu/R2nKhgiIwAoEuuwFYOKbQ34FsTaedfpckXB24ZQVMt3BgTr/Qo9bXQxNpy5e6elb/U+9ut8lcPBegU7uj3h15RRzXG//gcAVTQTGQqDrXgByvSPkbKdGraoBzGHVwCq/Yo5Z619MWlVxS0/f4j9X9/tWwvp5PmxvHOig3v4DQSmaCIhAOwKvd2rslkYkzw2FvumUbtUNLKaRjXA7OGqVTzHHghOqiRiTVlXcGrPBh6tsxhwLTsg54p1h76eQGF9j4n4btteJ8Hl/J194jSuIgAiIwM0I8DvneZCYRqwu7pmRbLnM6QlOaVf5dDFsbxXpk1f0Kn9ijln9iEmrKm7p6bfxP/XqfifCKX5aiAk/QuSq8ok9di7s8FpXEAEREIGbCLwA/4ttTOri79KC60rQSb1q4INa+GVVqWMUelzpWwnE6fe5ut88T3fFydA60xTvefMS0jkREIFxEeBgud86NTAcgd82dDHVaoe2zrXUa2qMm863TPYmtSb7TedLTz/G/4cgcl+r+4X4eSwiNZVXyHnOwJndVjgkfcURAREYIIF3OjUsXJt/fQc+KRdbuRb+LXbwMdRESIM8L05oOnXx5tkOOVdnN/R4SBrz4oSmY433cBj4E2SeL23PcZGqV1kdhP4GEF5jbf2Y1nubgz8yIQIiUDgBbmV6vVOj4tm1+O9OPlU1lnwIWNJRuVWlH3PM6mZMWlVxS08/xH/WBdaJqvx7HHtTiBOBcZ7v5CcXHuIsHAUREIERE/gI8u7RyH0fduo2L4nFuzoUfuHkV13e2AAuiXWsRfy69EOPt0jyZiqh6dTFKz39Jv9ZB1Le/MmVM1FWa3Ik8DyvsR9C6sor5viHAtNUNBEQgQESWIQ8cTe9mEajKi7XRr+/I5+jHHyq8nP2GL/3bu3od5Wp2TRjf1fZjDkWm95s/Ji0quLO2ov9XWXT69gWMHQlJNanNvEP83IadriSpsd+BH+Fnc0c/ZIpERCBgggcAV/bNGazOh91zPOTnXya9bHu9zKk5zFuoQ5BXbqhx+vshh4PTacuXmg6dfHq7IYer7NrPX4HGEi5EmVV/p5mdXpK32vGjOeDiWP2ZEoERCAlgbvAOHcfq2qoYo5dBhsxCxP024YAACAASURBVJrMy9MinEy5UVBdvrgQ0crzHDOcq0sz9Lgh6f9TDU2nLl7p6Vf5z7JOufhUHUv2NnCBIY+wLox4DAhkG6BeAI8SkQ0RKIjAofC1rqGKOc4R+x6BUwC/4uRTjP+TuEd5ZKLCRhtfpnUqTEYdGnv6VbC86n4btqfAIdZ1j/BqGGnjw6wOxwEpiIAIjIQAR/57fPu/AHa83py9RjfPNm4xvz1nMUyqUkz6VXGtVbLKZsyx0tOf9Z9lHJP/FHGfPetUy9+rQG+5Q37+DBuaEdCyEKQmAqUReJ9Do8GG8alOGd8IdroajDWvQedo8Ls75WliZl56Iees7oSkMS9O6elP+785fqRc6Gcex+lzV8GP0E2Amvg/CxFC050X711NCem8CIhA+QT4vd5jwROu9+/VlXmSUyM2r4ELPfcd+MJlib1CaLp18ax+1NkNPV56+hP/WaYs29B8p473eSvYBX1OCzzHIV98MOLGXAoiIAIDJvBa5M2jcWuz3n8V1ic4+eORp4mN/6hytOUxq18tk71JbezpT0CwTK0svPUfbS3cBf1HOuXt35z8kRkREIEMCfAt6CKHxoJbmXoELo7i4Y93w3wD/NrWI4MOrK1uWNmUnj79Z1myTK0svPUvhE/cCdMjcCEuq3/LYUM7BXqUhmyIQIYE9nRoJNjIPMIpb+928oc+fdfRFu19C+LxicPaKFtRjz19liHL0sphWp8PwF72vNbkZ2+Ch09PtFY46YuACORJwKMh/IFT1u4KO1yJzKPR+jHscDbCO5zsTXx6ikNerfmzujD29FmGVgbT+m+HvdtAvJbj5Qj8Ta2FDH0+6JzlkFeuj6AgAiIwMAL3cmgc2BB6fbf8rJM/XMjkvgtlxUaQK5t5Nfi/ga1VF2y3/WP1pW26E70xp8/u9WWO9eGQqcLgA6zHYFqWzyethbygv4dTXu/j5I/MiIAIZELgYIfG4VzY8OgWfzDscItU682J+m+e4ctvmCc72aZ964BAax5nshf9c8zpcxc+a/4n+l+Crdnv4y9xss9r4QHRJbuiAq9NbjxkzbM2CVqRrY6IQLEE+CbkMc9+XwcCbKS8pmNxKiK7Y2cD13lfDrE2hNTn2gBcdrVtsPrQNt2J3ljTZ5l5vaEvg62q5a45Bc9rSeEzrAW9oP8C/LWW+RWw4TU40SlbMiMCItCWwN4OjcIfYIMrj1nDYx18YQPHlQz5WaMubIMT1zultbQukYDj1sY4IIm5UcaaPsvMmnfq8xv95BNTFWguHOVVz3avSiDyGG/cf3TI+zMj01V0ERCBTAl4vKW8xSFvXgOV2DC/IcCfVyGOx02ADWrb/dyt6Qdkc26UMabPsvK4CZLdfnPp3niSddHKmfocWOjxiY0DFa3+nBaQb0URARHInMAi+Gf93s7R+h5rhXsNUuJ3zqqu/9miYBctu1atjSH1XzZrPPC3Ne3AZGqjjTF93rSt+aY+P1XNfvevAs0ZKD93StNjkC33+rDOsGGbsWlVZnVMBESgHAJvhKvWxvATDtnlmw2n61l9of5OEf5shbgeGx8tg502SwRb8xuR1cqoY0ufD4bLIdZ8s+v/HpVEqw/u5pAmffZaYvvTDv68rjqrOioCIlAKgZ84NAQ7OmTWa6GS41r48lYHBmyc2YMRG6w3otj0ZuOPLX0uZGPNM/X3nwUZ8PsEp7T5MGENuzj4wlk/CiIgAoUS4EA4a2PILX89vkt6jENgt+ZdWpTF6tD5rQOLNhu4WPm3yO7NVMaWvsdN+PcguEYL8JtDx9r1zvL6Wou0Z1V4zf4aYi3/e88a1m8REIEyCLzToQF4vUNWt3fwgw3ZBw2+vNjBBzbusVMCrQ2wIcv/pzqm9DlVz+Nzz/MN0D/iwJxltp3Bh4kq18iwlr/XUsUO2ZEJERCBGALWgUlcZe9OMQnWxP0MjlsbomtgY/0a+yGH+W3Y443oRSGJTcWx5jsyuRWijyl9lo01v7+EjTZjPSbgN8B/PNYf8Bh3szF8+buRCQfcKoiACBRG4J7GC58N6f845NmjEaIvBzj48hIHJt+O9MN6Q4pMboXoY0qfZWPNb+wD3grAccBjGh53L+Rofmv4qgOTLaxOSF8ERKBbAh7LoO7l4DJv3NZG+WrYWNvBF84Pv9zoD6dHbRLhizXvEUlVRh1L+nzQtE535doB1r0fWAjsqfJYHMi6DDV9eQ7EWgc4k0hBBESgIAI/Ml74nAa1ljG/7Eq9xOgHGy/P75Ae4yL2jeBibXwjkqqMOpb0n+1QzzhbxCt4jAW4GM6ErEMwz2c+OFsHJnrtADrPT50TARFwIsBFe6xvQ8c7+OKx8A+/p3Jtf6/AXdysbGK+z47lBlxXPl3l/1g4YEmLdWKzuky0OM4ZAdbv78wPl862hhNhwMLmH9Dn2AYFERCBAgjsDR8tFzx1n+KQzy85+HGwgx+zJr5n9IvTxEKnRlrLYdb32N9jSJ9l8TtjmcaO7Qgph08afWLZfTEkoYY4z3Dw41kNaei0CIhAJgT4hmpp+DmVinPnLYFvDJxFYPGDbx58Y/cOXNbX4hd1Q/dMt6ZjzfsY0udcdWs+OUDUO2zr4BcHA65ndGxN6Fs/A7CHRUEERCBzAlz/3roRylcc8uixHvsXHPyoMuHxieSVVYYrjllvTBUmow6NIf1XgIgln+z+T9XFfbLRN+brpVElXh2ZiwtZGLFNYduiMCACKtDhFCYH3O0CORISu1jNLIWTZg+0+M1uR2tI0f1Pn9hdfJ7ROb7dKeRBwFoWP0Y2+FknRTjIwajH1rzWa5ptyscg3IfDOjDRAYlMiIAITG76hwGF9a1/+u3AOhjqbvDH8rZB3QsgKR9Q32/08ezA6mflEJhMbbQxpG+d8fKeWnr2E7xGLzXWNZah9VMY9a11YaL/B9g6BKKHAXv9kAURiCKQ6qY/ubi5eZA1cBcxa2OTeu7x7kYfOU6CZdEUrBya7DedH3r6fBvllFVLPj0235lXDnzAsPhH3dfMSyDw3M8c/JjNhx4GAuErmgi0JZD6pj99Ub+vrZNTetZR9l5LEM/LCteNn23MYn9zq+GmEGtzNn6T/abzs/ZifzfZbzofm95s/Cb73LJ3VifmN7//374pEeP5rY0+Mj/fMfpAde6lEcMmNq4eBhwKSSZEgAT4ZvNQCL8hWqc4xVzIjzHi3wj61nn2HoMQQ7LBhVZi2MzGfXJAIrM6sb8DkpgbJTa92fhzjQecnLUX+7spiT2NZbisKQGn82ca/eSMGOu+HI83+hBTdlxx8xgI25PbODGUGREYNIEu3/SrLmYuXGJ9G+J0qirbMcf26aiUrQukxORJce31IgVDj3n2IdWVI/mt/r8gJKE5cdbGOT5IWP2I1VfPwJxC0alxE+j7pj99MfMtxRqsN1WPJYhD8sC3kk9BYhszxR8WMy7W08UbKleztM7F/3xIxW6Ic1bPdV4PAw0FpNPjIuA5et96c3qvEf3K0P+TsYE5wehDk/qqiPByyHKjn1bW0s/nQYJ1gYtDsW6kDNaH46vhXMjA03l54BifXOoeHwYURGDUBHK5GOmHdd3xxQ6NCzd1SRWeBsNsdHJiLl/yKQ+uBeCxBHZd/X2xQ93juCBLeJyDD5511pIX6YpA8QQ8LyaLLQ7csy45+nZj48IxCNZFjKoqBFd5+5zRNwtb6eZzkw8pCy6as2FVRTIe4/oaIenPi7PU6AOvL+sg3Xn+xZ4zZkfqIlA2gdgLJlV8zhG2Bm6oYvHvm1YHKvQfiGN667eVi6VMS9Vlb8D9K+qT9dDPM7hGrD54lqmVp/QNBFKutGZwS6o9EODN2xJuC+X7WgxAl+umewYujXwKxNqz4emTbJVBYH24+XXI7s7uWqe48qGE15olWK91S9rSzYiAHgAyKoweXeEbsnWE8fawYW2YTnVk8FTY4nbEazjalKlxEVgN2eWg1JD1HkLJsE5aAq8x694Hx8MGBx8riIAI9EzAszstxtZlyLfnQh3W5X+vgj/WEc6TomRPxPWQGB6KK151dYBTUx/g1E6sAjvXGevmqx18mV5o7LdGf+q4hRx3yIpMiEC5BEIuEq84/K75UciOEO8dvdiDYPHzC05FeGfY8dh8xZIX6drqQo78LkG94iqXHuHLxmvlsx5OTNlgW7Az5FBI19OSnbMicyJQFoHUjV3Km/406eX4YcnL6x2K7ZawcYbRD0sepGurA7nz+xbqFuuYNRxgrKPcKTNV6PphIFU+ZFcEiiCQotHreh1uLh9snVr0MIfSeg5spOApm+I6qQN7O9RTro9vqVO81tZy8KPJRBefCZp80HkRGDQBS0Mwrdv1TX+6UHbAD0s+boC+dRU2rnOu6X62crCU4Vh02aNm3S/jjsbrhaw9HphjGtZUDwMxPiiuCAyOgLXhPAREdoJ4f9OPAb0fIlvycU5MYjVxPfZct+RBurY6UBK/A2vqYMxhjimw5JlLF/cVpvcvseSBugoiMGoCQ7iAOHjIko+jjDXgdtBnD4jFB+mKX2gd4Awajua3BA56DU2vKt5/WhJ31K3yLeaYoysyFUtA6wDEElP8KgJ3qzoYcey8iLhVUbl++zpVJ3RMBBIQ4M5+TzLa/ZFR33rNGZOXugiIgAeBmKflqrgePlht/AYGqnwLPbar0QHrEsTTfvJhhJ807gnhQjAKZRNgGbIsXwH5CSS0TjbF44wAS+AKg01pzDu/3JK4o+48H0POOboiUyJQHoGQi2RenL5zzMF71hkAmxgywQFZ/4DMYxRyjnu1vwTS51gKAwapBhBg2fLbOcs6pE7Mi8ONq9YMSLMuinVjINZ562eIOt9ijs9jFHIuJi3FFYHBEQi5SObF6RvI1nBgnn9N57jKmuVT1KOM6dM/3hA4kFJhHAS46I3HQ8AjDbj4MGL1YUtD+l6qTdd303kvP2SnBQFLw9siOakMkIB1dbQLwYQ9CG2Dx3SoVyFxz30I2uZFet0Q+BqS+TeHpCx1j2/wy4w+WK89Y/JSL52AHgBKL8H+/bfum36BMQvWjVH4XZhTKRXGRYCj6M83Zvl+Rn1r3dcDgLEAxq6uB4Cx1wB7/rn2viVwAKElrG9Rhu7hEL6NKYyLAMv8v4xZXmTU/1+jvh4AjADHrq4HgLHXAHv+72Q08TujPqdkWQK7gxXGSeCrxmxbHz65C58lWHvfLGlLdwAE9AAwgELsOQvrGdPnimiWsK5FGboXG/WlXi6Bi4yuW6eJctdKS7DWfUva0h0AAT0ADKAQe86CdVMSrt9vCdZpex67u1n8l265BDjC3RKsvV/WPQksvkt3AAT0ADCAQuw5C9YHgKuM/l9r1N/YqC/1cglYv+H/yZh1a923XntG96VeOgE9AJRegv37b30LudqYhSuM+tZVCI3JS71HAtay5/4TlmCt+9Zrz+K7dAdAQA8AAyjEnrNgWQ2Nrlvfgn5lzP9zoW/9jGB0Qeo9EGCZP8eY7q+N+ta6rx4AYwGMXV0PAGOvAfb8r2w0Ye3C/5kxfa4T/yKjDamXR+ClcHkro9vWumet+9Zrz5h9qYuACFgJNC2V2XTemr5V/xoYaPJx3vnVjQ7sYUyfvmkpYGMhFKbOpYBvcKg3jzfmm71n866NpnPWTwhG9/9PvcnHpvMePsiGCBRLoOkCaTrfd8a5ln+Tj/PO39aYAU6F4qIu89IIOceHAG4Uo88BxgLJWJ1l+3KIx82fmwFZt6DmZj4hdbMuDq+9vkOdb6HH+/Zf6YtArwRCL5S6eL06j8TZENb5FnLc4zPUqUYfpv3k0sCvhHCTI2vvRN9lo/RvLEOWJfd7+KljPbEuIsSy4QNJyDVSF4fXXt+hzrfQ4337P+r0Vxp17pX5HAh4zMP/JDKyo1NmOCbg/U62ZGa4BFjnrMGj7lt9kP6ICagC9l/4fFK2hL7L8Ho4fztDBlaFrrUrkza4qptWRjMUhFSDCXD63yLIdcEa1RG5kqBlICCvPetqhNWehR8tvf0Kz+kAY3p0vw4Qi7IUQYDfzi2B30GtgQ3hR6xGpC8CgQQORjzrzZ9JWce/cCyDggi0JqAHgNbopLhA4G9GEl5Tmd4HP6ybqxizIvUREPg98vgBp3xaHwCsD99O2ZCZUgnoAaDUksvHb2sj5NEDQBpclvVN+WCRJwMl8Hrki1NfPYIeADwoykZrAnoAaI1OigsErA8A/H7vFY6EoS95GZMdEZghcBJ+H+VIxfr93nrtOWZFpkokoAeAEkstL5+ti5F4DtzjgCQu72rdZjUvwvImBwLctprLRnsGa923XnueeZGtAgnoAaDAQsvM5cuM/qxn1J9V5xarj4FwYKCCCHgQ+AuMcMVJfv/3DOsbjf3RqC/1kRPQA8DIK4BD9nN7AGCW+p4a6YBVJjIjkKJOWR9+rddeZojlTtcE9ADQNfHhpWfdEtXaCM4S3RAHToR4ji2YTUO/x0WAA1WPh9zROdvWTwDWrbCdsyNzpRHQA0BpJZafv9YHgA0cs8S3tI9B7uRoU6ZEgAT4YPlfEM+eAGvdt157KtmRE9ADwMgrgEP2/2C0sZlRf1qdAwAf4WhPpkRgmsCj8GMfRyTWum+99hyzIlMlEtADQImllpfPXILXEu5iUZ7SXQP/f6uTLZkRgToCB+IEt/H1CHc1Gllu1Jf6yAnoAWDkFcAh+9ZGiG9BHvXwtbDj/Y3WAY9MDIwAR+5zt0hr4E6AmxqNLDfqS33kBDy/Z40cZevsl76ZBjcC4rrolrrEjVUubk3wxgF/1L+DwYZURSCUAAffbQKx7AfAB98LQxOsiMd2gwNdOUWxz1B6+9Unu97T9njz6j0TcqBXAtzJz/ot8m7GHDwD+rr5GyFKPZjAOoj51ODY1RGtdZ77XvR986/OmY4WQ0APAMUUVdaOLjN6d2+j/tON+tPqP8GPV0C2hqwOYc+GpFwGLEOWJbvtfwrxCk8zGrLWees1Z3Rf6iIgAh4E2IVmEQ8frDaONubh4wYH+E32H8b0yZ/rqr8Ewm+zCsMkwLJ9GYRlbbnmqPt3iKXX6VijD0dkUkRWjplkY5xuqAeg/HI/DFnYGbJSj1k515j2tgb9h0PXWo+5r/rukI9A+DChMEwCLNuDIZzOxzK3BD5MsO61DZY6zzSt11xbv6nHvO8EOcRiRLoiIAL2N5HJEzjXBT8UwoeBrt9id0GaljcBvk21XbmPe7Nb0qYu3/wVxkWAPQHWevO+lsi4CyDrvCV93oC7DGxTdoTwps89ESy+T+t2mQelJQLZEfC6kKbtcFAeL1Q2El08DHD6nTUfD2pZMl82pn1eR4xaZk9qiQjwuuCYAEu9/Z+Wvj3EmC599l5Cuyork5v+R3HS86avB4Aq2jo2SgKWBihElw8DvID59J7yYcDaQLymZen/CnohHOri7NcyXamVT4ADA+vqRcjxX7RE8HpjupwBkCp0cdPXA0Cq0pPd4giENDRecXiT5sPADhDvh4FTYNPiZ9u3Ka6Hbkl3q+JqjBz2IsDZAZa603Y3Pmuv1Ve8ACzY6fqmrwcA5wKUuXIJWBogiy4br2Mgj4F4DCA8AHYs/lwN/TYPJRzMZUmX08QUxkmAy0db6g5nE8QGXmvXGNN9c2yiFfE5cPahkIMg7FGwcLDoVrimQyIwHgKWi8dL93fAbd1EZ1eHRmT7FsVufQDgTUBhnASsDwBtZhI80OE62clYXJwFYf1k59X2GLMidQsB6/QpS9rSzYcAtyV9gtGd70HfOoWOnyZiw/WxCjPxNzbqS71cAouMrl/XQr9NHZ9OhrMHvt8i3WmVPfCD62cojJyAHgBGXgGmss+RyZbAbk2OqLeER7dQ5vRHS2DPhcI4CexmzDbfomMDP7lZwtlQvtZiALrs+lcQAfMCKkI4HAJbIitrG7PzbaP+g6G/bqSNiyLjz0Z/Lg60GXswa0e/yyLAMt/X6PLFkfrsaXtApM5s9O/MHoj8zevLug9BZJKKnisB9QDkWjLd+8W60HYu/sTbrxvdZqPM75Mx4YcxkSvi3hPHXlRxXIeGTeClyJ51Bkhs3WMPl7XNtV5jfMjm3hYKIiACGRDgPH2vATVWO+8y8lgT+tZBecdH+vBIB34czW0dWBXptqL3SICrZVrrKa+12E8IXzDWVe7+Z521wtULre2El771812PVUhJi4APAb718ubDlfv6fhiwDi4ikdMglgaC3ze5VGpo4EPH34xp0l8+BLwMos8BoeTLi8eyfTnE4+bPOhdzM+aMAw4atFwbX3VAfpbRB4v/1OVN/zAIlw/3mH7sgEQmRCAPAn0/DLBRs06Lex1sWBuJZ0YWxxkOaU585nbAXCFua0hMAx/psqJ3RIBlyLJ8FcS69O90vf5mpP/7IL71unh1ZJqz0TnGx2PnzNh86KY/WxL6LQINBPitsI+FOtilbgn3gXJsAzEb/+RIB57lkOasD/ptL8chM3x6ZB091aGOWscsPN7Bh9AyvRxpHQPhrIfbRLJSdBEQgSkCXfYMWMcBcIDRckhoQ1EVj3OdN4qoAasgbt+fT6ryoWO2epArPy6ctXJE/dwEca1v3hdEpFcX9YM4kZKp3vTryOu4CDgRSP0w8GMHP9/j0NC8NtKPdzikmbJxlO20N58u+b41sm6+waFuvjMyzaroP3fwY5azbvpVpHVMBDogkOphgG8slsAlfWcbitjfbKxipivx+ybfzGLTUXwxi6kDXDd/rYiLg5/yrDtW0r9tI9KsinpXx2tDN/0qwjomAj0SmDwMHOlwoVvnxfPGzS7LmIa1Km7s/gQcPFhlR8fExasOxH77f5RDnWy77fB0c/QKBz+Ohg2N3p+mqv+LQGYE+MbBJ3RLg9d2a95pFOyytPhA3Vg/+ODhMdjK6rf07WWfI8OvtbjWrVv/kkPsJ4cqN+m7hSnbFOsiRlV+6ZgIiIAzgU8YL3ZusLOq0ad7G31gY8WBU7HLlm4Ind84pG1pLKVru9nkyI91inUrJtwdkf/pUBfvGZNoRVyulcF1Lixcj62wq0OFE9ATXeEFWOP+V2qOhx6+HSLuHhq5Jt65OP7DmnOhh1k/XxIaeSHepfj7WEibndoik1L0kRDg4lSczsa6FRO43HDMOJYq29/FQa5fYAn0PWbWQlVa1jalyqaOiYAIJCBwR9i0vnkc5+DX82DD8tZBXTa+67XwhQ8BHiu+Wf2Xvr0O9MmQb868gcYGbvxjXfmP+d43NuGK+CfimIUhe+KYHwUREIFCCJwJPy0XPT8DWFcFpP6fjH4wDwe2ZM413692SN/CUbq2etgnv6tQd3ZqWffe7VDvWHdXa5n+RG0d/Mfa/f8Dow9SFwER6JjAm5CetfF8hoPPhzv4wYeI2G2CJ65zGVhuGWxlIf1xMbwEdWablvX/DtC7xqHOcX8Qa/DoheM6BgoiIAIFEeCyodabFrsOreF+Dn4wH5aR0Oy+/JSTH1am0rfXy9QMP4m6sr6h4nvMgGEetzP4MFHlBkJWXls4+CETIiACHRP4mfHi5zd0j29/3zL6wQaM3bFtxgJMI+e33IsdfLE2qNK335RSMGRPEeftWwKvF4/PXqdbnFjQ3Rh/uay2hZV1AKJDNmRCBESgDYG3Gy9+NhyvaZPwjM7jHPygLx928OW2sLEX5HwnnyyNq3RtNycvfr9GXdgPYv3ezurJrW49/LI+iNCXNzv48hYaUhABESiPgMfOfFyFzDqVidP5aMfaMHK7Yq/uSPrEmQJWn6RfNkPWAa/p0Jyvb33jZn3iw6nHNbfMoX7fCzYUREAECiVwnkMj8HCHvL/QwQ82jl908GXahG7gZd/AreXnWZ08Vv1jfp7j4NSuDtebx8ZgDlmRCREQgbYEPHYiO6Zt4lN6XFzo9xBrg039tlOzqrJh9afKpo51RyCX8tvNqW5zsaFVHPB92sGf2B05HdyWCREQAU8C3NnPuijQX2CDiwtZw6tgwNpgU/+XEI9Gkvmx+mNlIn0bgRzKjw+3HEdg9YX6XD3QGrhksXXuPxf/4SBCBREQgcIJfAP+WxsnDiiyBjaUnF9t9YX6B1idWdC3+uLkhsy0JJBD+b3DqU5zFgIHqVqDx+Dfr1udkL4IiEAeBDjq3dpQsvve462ba/tbfaE+33C41oE1WH2xpi99G4G+y48LTXktOc1Fe6yBm3hdBrFyebrVEemLgAjkQYBv3lc4NAp7O2SHm5Isd/CFDRx7NqwjuK0NpQMSmTAQ6LP8WPe+7VSXL4Cd2xg4TFRf4ODP5bDh8bDvkB2ZEAER8CBwsEPDcDZsWKcnMS/7OPgyafg5rsAS+ryBWPyW7o0E+iw/DpKzpj/Rf6ZDgfKBxGN9iw86+CITIiACGRHgfF6Pxsq6TTCRsKH6vpM/HKB4bwNnKxND0lJ1INBX+XHO/5+d6jC3/PV4sH6ikz/8rKEgAiIwMAIeS/J+z4nJg2DHOjth0vj/BLbadln2dQNxwjh6M32UHwfqcY68NW3q8xq4v1MpWncApT+nO/kiMyIgApkR2BP+eDRaXGTEI3zCyR/m6b0tHbLyaJms1JwI9FF+73est0c7ceA+F1YW1H+Ckz8yIwIikBmBW8OfCx0aCg588gh3hpFrHfyZvEmxCzQ2WBvN2PQU35dA1+XHfS28eq64aRDn7HsEj09qy+AI2wgFERCBgRLwGri0oxOf18GOtRGf6HPHwLtF+mVNOzI5RXcm0GX53QO+X+1YX60DWCcoH+nk0yudy0bmREAEMiOwDvzx2K70B7DjMXBpJdg5C2JtyCf658JWzK5u1nQzK97RudNV+a0Ostwa15reRP+HsOXxts0Btec4+MUHm7VGV3uUYREYIQF+L/doyJ7ixO6+sMOd/jx8oo1jIaEPJ9Y0nRDITEsCXZQf65LH2voTX7lwEHfq9Agei3zRrwM9nJENERCB/AlwXX+PKUwcT8CFfTzCu2HE2phP67850ClrmoHJn43O8AAAFB1JREFUKFoiAl2U31ud6yaX6vUInPmy3ME3tgV38nBINkRABMogcIhDw8HG12PzEhLjEqbc5MfaoE/0OVArZHEVa3pllPZwvUxdfvs41kn6+nNI2ymrs6X4aiffPjxrWL9FQASGTWBzZM+j2/0PsLO2EyrOh/ZaV52NLfcLWNzgW+obSEPyOm0kkLL8ONDVuz7yc5dHWA9GPJb3Zv429XBINkRABMoi8DG4a21Aqf8Rx2z/u5NPk3xxXfN5K5tZ8++YdZlqQSBV+XF1ySud6yJn4HiFw518O8zLIdkRAREoi8AiuMuldK2NKPcO394p6xzVfJqDT9N54k6GW9b4Z817jVkd7ohAivLjVNLfOtdBblzlMeqfWNmLwGvOmnde+xvToIIIiMA4CRyMbFsbEup/BxI68r6J9CJE4Jx+D78mNi6GvU0rEramUWFShzok4F1+/DT2v851j71QXPTKI/ABmVNwrfmm/kEeDsmGCIhAuQQ4+vc6pwbl2Y4YHg9bXiuuTRrLX8PmRjM+WhtSxyzLVAsCnuXHm7THSpnTPvFN/VEt8lWn8jycsOaZ+lyBc4O6RHRcBERgPATe4dSo/BF21nXExulSHo3dtI1fweaiKR+t9h2zK1MtCHiV32ZImw+IVnuz+ktb5KlOZX2cYG/CbBptfr+tLhEdFwERGBeBNZBdr2+eRzqiY3fnlyBtGrh5OpfCJrdzZZgXL+Tcghn96YlASBnNi0O3ucQvPxHNi9fm3Cmw6fXdn37+t5OPHBOzJg0qiIAIiAAJPB/SppGb1WG3/U6OSLl08QVOvk37ykZwGwe7jlmVqRYEZutf7G8+CPKBMFavKf4y2LxDi/zUqSzBCa9PYs+tS0THRUAExkmAbypcR7+pYQs5/z1nhLxRX+Pk27T/HvOonbMqc5EEQurjvDgedWDWPtfVv1dkPpqin+lU/8+DHc9eiSa/dT5jAuxiVRABEuBgpU84oTjJyc7EDDc74b4Df3e267WAkbNbMtchAe86wMW1ngThjdYzeF1T3CeD17qCCIiACNxE4Db4n8cIaC6ecvtEXNl1Ofu21ffvRFmV2UACfZf/bPovCvQ7Nhp36vPorVgOO177d8TmQfFFQAQyJeA1vehNifPnvWnQbAMe+ztxdmW+gUBseaWM77XJT12Wl+KEh//PqUtAx0VABMZHwOvtn1OUUo8u5mcrr9HQHo3p+GpLXjn2KEMPG0cBi9dCWHWE2bPmsTwxB9XymlcQAREQgVuU8vY/KSoOYvLcn91yA1D16ZeApey8dI8HgpU6wrAU6Xj4rV6AjgpMyYhAzgS83v5Tfvuv4sfvmBwY5dEYWmxU+aZj3RGwlJ2H7snI6m27y+4tNBagQ9hKSgSGTqC0t//p8rgdfpwG8WjI29oYev3IPX9ty81D7wzAWa0HQEud6rx6AXooPCUpArkQ8Hr77+Lbfx0zrmJ4ulOD2OamUOeXjndDoE2Zeeh8HdlbvZssrpCK11gAzvrRWIAV8OqACIyDQMlv/9MlxC7YL0A8GvZYG+OoKfnmMra8POJzeWr2PvUZliJxj7yoF6DPUlTaItATAa+3/66//dfh4piAzzo1ijENa50/Ot4NgZiy8ojLB80uv/nXUdRYgDoyOi4CItBIwGtRndTz/hszMhWBI7G7niIY45/i+hPwuKmH2jgK7ue0jO5S+BPq+7x46gXwr5eyKALZEhja2/80aM7F9moY5zWak3NfRXrbZVvSw3WMm/h8BhJSRh5xDkJauS2drl6A4dZv5UwEkhEYyrf/eYD2xckbOrpBcJc23ozuMs8hnXMhsAmsHArhvhAeN/YmG1zb/4UunqcxstSJg3oB0pSPrIpAVgT49r/ModHoc+R/KNBHImKKXQTrbhp/RXofhKwX6qDiBRNYHzE/BCHjOv7ex7mr367BHvYTUTMC+uGuVEWgSAJD/PY/ryDug5MeDzwxN5drkebBkM3mOaZzQQQ2R6wPQ66DxJSBNS6Xy/Xe0jcowy0iLXVio16AFvClIgKlEBjyt/95ZbAOTn7ZqZGMubFw29UTIQ+Y55zOVRLYBkePgbALPoa5R1xO8/PeJrgyk04HNRbACaTMiMCQCYzt7X+6LDl6+20Qfq/3uEnE2uBgwcdBtPBK/RVGNo+HfK2nMuID21JIboP96on96wz9jq2TVfHVCxBCW3FEoDACXt/+2Wh8B5J6179UeB8Lw1y7oKrx6+LY75A2tzTeMlUGC7S7FXx+L4RsuiiDqjQ4puVRBbKjy+wB+J4TO60OWGglkNsiMI+A18j/SeNZ8kMAR5Kf7tRgVt1MQo99Gz6wV4afKMYW7oAMs06yHoXyShWPy/reudAC8Lz5T/iqF6DQyiC3RaCKgNe3/9kGuOSHAK4XsB+ky1Hls/wmvzml7QzI6yB3ryrAgRzjg9fzIRwX0dUUzTrmPM7xBUshOS3uE1PUKW7+5LIcsnKMI4orAiKQL4FV4NopkHmNYdtzJT8EsMS2h/wiEZu2TM+CP/tDHgbJYdlZcmoTWO+Yh6UQ5qktjxR6P4M/922TqUx0Ut38yZpjMFh2CiIgAgMhwBvJSZAUjWnpDwHc2GUpJIfegNny4VvqmZADIY+B5Dw6nVvjPhTCngwOevwzZDY/ff8mT67q18c2vkjWJaS8+X+jcDYugGVEBIZIgDe6kyEpGuHSHwJY3ttCfpSIjxdz3sD49sqVB/eHPBFyD0iX3dgrLaS554IPxy341NXqfG1Z/hB+3gdSckh58+ebf9+7HJZcNsX5zu+gCuMiwAv8BMiuCbL9Xdh8BISr75UaeHN7JYQ315LeEtl7wcVrfgu5dEouWTjG83+C8CbNFe44HfIqCANXk+PUN95cmP81IOwxuhNkI8iGU8JjXPK4pE8TXJiJ5ck3f071KzWwfPgAn2JdiVNhlz1M7LVREAERGDABfQ5oLlze9A6F8IbR9o1Tev2ym+zRwMGHpYeUb/7q9i+9dsh/EYgkoIeAMGD3QzRO19PNvCwG7O5/cFgRZx9LN//si0gOikB5BDQmIKzM+KlsL8gyiB4E8mbAzyDPgAzl8yZv/t9PVO84UFPf/AFBQQTGSkA9AeElz/UU+CBwIUQPAnkxuBhlsh+kpLEJTTVPb/5NhHReBETATEA9AXEIOUf65RAOuNODQL8MOODxpZAh3fhZG/XmH3dNKrYIiICBQMqeAM5jz3n+eltsXC2NPQI/hehBoFsGvwJzvvEPsQtbb/5tr0jpiYAItCbAhwAu05riZjbUhwDC5vfmnROyS1EepdrkkslPgnS57gHLuKugm39XpJWOCIjACgT0OWAFJFEHuLwspw9yLYRSb7K5+c11Cw6BlLx0b0glUrd/CCXFEQERSEpAPQF2vBwnwDdVjrTO7YZaij/sNXo+ZHV7cWRvQW/+2ReRHBSB8RBQT4BfWW8NU2+D8Lt1KTffvvz8BRi9FXJPP/zZW+JKjJrql30xyUERGBeBkh8C2KguhfwAskNGxbYdfHkXRFMJ//UwxLn774RwL4Zcwk5whIsJvRnCt/NUQTf/VGRlVwREwEygtM8BXMeeu9FdAZl+i+XmOeuZafga2Bzm2MXNgZd/mfG3rzfwLtLlhkYczMdy4nf9nBbtWQf+cAwHlxGesOB4Du7GyJu1Z1C3vydN2RIBEUhCoISegMkb/5UgUHcT+yPO7QvJ6YYzKTB+534chBvWcEdC3iTr8lHaceaFb9MfhDwWkuMmS9wM6bmQy+dw50OlV4+A3vwBU0EERKAMArk+BITc+GdvmN8F8txHlPOBgFML94d8BVLSokP0lT7zZsmu9NwH8W0PH/mpaLae1P22Pgjo5g/YCiIgAmURSPkQwJvymhE42tz4pxt0bov7UQi7fEsJ/ITBGyq3Kz4Cwk2KuBJe3Y0q5XF2kXOrYXblfwzyCgh9y+0zC1yqDevizGGQtjs+tnkQ0M2/tjh0omsCOXaFds1A6cUR4PS2L0B2jVMLiv09xNoNwm+udYENKG82+0H4f2u4DAY4Qp8PAzdYjfWkzzLZdEEW4e/6kDtAeIPj34ngv/83oI3d3dzXYPJmfi3+z2563tQ5556BXeFkw78T+QP+fxFk2cJfjlsoMXBcy0shb4R4PADys9MHIfx8M+FXxYX19WTI/atOGo99Dfr8vPJnox2pi4AIiMBcAn0MDKwb3Of1lssbGwfk8eaoMEwCfOHh2gycdeBVb6btTAYLrl2BL+WAv1OQHnvnFERABESgEwJ86+TbTIqGdPpzwKSr/6pEac36fybS2aUTgkqkSwKPRGJnd1SH2CMwPVhQ3f5dlrTSEgER6IRA6oeAA5CLrm78sw8C/L7Om4ZCuQT4xv9oCD8tzZZvF7/5ILA/5PuJ0tebf7l1U56LwCAIpPwc0EUj3ZTGOSgldhtrvEw51ZVl9RhIzMj+pnqQ23nd/Mupj/JUBAZNIGVPQC4N73kowedAmFeFPAnwO/jzID+B5FJvUvihm3+e9U9eicBoCQy9J2DSkHMk/IGQO4+2pPPL+AZwaSmECz2luOHmZFM3//zqnzwSAREAgTH0BExuBpwCdyxkR4g+D3Rf/Tlbg+sOfALyV0hON+lUvujm3309U4oiIAIRBMbSEzDdyF8MPuwVWBTBSVHbEbgT1LiHwK8hqW60OdrVzb9dfZGWCIhAxwTG1BMwfbPg6oJfhuwD4bxvBR8CnEb3bAinnZJxjjfolD7p5u9Tj2RFBESgIwJ8COB68Ckbxpxt8xPB5yFPheS+Fn5HVSIqGS789HQIV50c006Js3VaN/+oaqPIIiACuRAY4+eA2Qacv6e3v90il8LJ0I/N4NMYt0euqjM8ppt/hpVULomACIQTGHtPQFXjzmlq74NwrvqYPxWwa5/r138A8jNIFauxHtPNP7yNUUwREIGMCfTxEHAheLwecm7mNxZ+0/4h5D0QrlrnsTlNrlWBmxLxoee9EC65nPv3fK798EbIckiXDyK6+QO4ggiIwHAIdPUQwBs/F+zhbncMt4ZwcZjfQrpsxNumxR35zodwi93dmYHCAx9quHUx3/CZt7ZcutT7HfzkpwjWHYaVIaxDyyCp/dDNfwG6/oiACAyLQMqHgNkb/yw5DsTjtr/c+jZ1I+5l//fwdXITms1PCb9XgpMlLc5zHfx9O4QDEKtC6gcB3fyrqOuYCIjAYAiwET0R4nWTXA5b+0E44DAkrItIB0K4b7qXDyntcKGhUsNuhTDmQkKHQjYMBM3epb0gv3LMn27+gfAVTQREoGwCHj0BTW/8TYQ2RoTDIDdAUt7ArbY/2pSRjM8fnjlbzs6gj5u0ZMgHAY9PA7r5tywAqYmACJRJoG1PwHJkN+aNv4nOIkQ4CMLuX+vNOoU+9x5gV3ppgT7T9xRMrDb5xn8M5G5OUC09Arr5OxWCzIiACJRFIOYhYDmy5nnjnyW1Hg4shXAPd+sNxlu/xM8Au2bI8U/wiQ97G80WvtPv2AcB3fydwMuMCIhAmQSaHgKWI1spb/yz1DgAjCPAfw7xvpG3tVfiZ4Ccuv8vQVkuhXQ1xTLkQUA3/9krT79FQARGSaBqTID1G78VJEff7wE5HdL2xu2lV9psgFxG/38TZfdESF8zKerGCOjmb706pS8CIjAoApOegOXIVZdv/CEQt0Akzhzo85t2SZ8B+uz+vwrlxBH924QUbEdxpnsEdPPvCLqSEQERKIsAp/Kxscw1sKfi6ZCvQ/4B8XrDD7FT0meAwzpmw7JgmTwDwjLKNbBuh05XzTUP8ksEREAERk+AA8nYU3EGJOQGbo3DBXVKmA3Q5ej/n4LJUsjmo6+NAiACIiACItALga2R6lsh3OTHeqOfp1/CZ4BdEjPgTf9tkHv1UtJKVAREQAREQARqCNwdx7kJ0fch3p8JSvgM4N39T4Y/WGB6jxrmOiwCIiACIiACWRHgssNPgnBQGqeizXu7DzmX+2cAr+7/y8DqMxBOx0w1Zz+riiJnREAEREAEhkvgVsjaEZCQG/28ODtljMij+/9I5I+sFERABBIT0IWWGLDMi8ACgX/i73870NjTwUYqE092MPxx2CArBREQAREQAREYDAEuSMNFfea94Tedy/UzgEf3f6n7Hgymgioj4yKgHoBxlbdy2y8BDmg73ugCxxUsNtpIoc4ZCtxPwRI+B+W/WwxIVwREIJyAHgDCWSmmCHgQOM7BCAcW5hY8fPJgkxsX+SMC2RK4ZbaeyTERGCYBfga4FLL+MLPXOlf8tLEhRD0ArRFKUQTiCKgHII6XYouAlQA/A3zeamSA+ur+H2ChKkt5E9ADQN7lI++GSUBd3SuWq5isyERHRCApAX0CSIpXxkWgkoA+A9wci7r/K6uJDopAWgLqAUjLV9ZFoIqAPgPcnIq6/6tqiY6JQGICegBIDFjmRaCGgLq8/wVGLGoqiQ6LQEoC+gSQkq5si0A9AX0GuJGNuv/r64jOiEBSAuoBSIpXxkWglgA/A5xQe3Y8J9T9P56yVk4zI6AHgMwKRO6MioC6vm9xCzEYVZVXZnMioE8AOZWGfBkbgbF/BlD3/9hqvPKbFQH1AGRVHHJmZATG/hlA3f8jq/DKbl4E9ACQV3nIm/ERGHMX+JjzPr6arhxnR0CfALIrEjk0MgJj/Qyg7v+RVXRlNz8C6gHIr0zk0bgIjPUzgLr/x1XPldsMCegBIMNCkUujIzDGrvAx5nl0FVsZzpuAPgHkXT7ybhwExvYZQN3/46jXyqUIiIAIiIAIiIAIiIAIiIAIiIAIiIAIiIAIiIAIiIAIiIAIiIAIiIAIiIAIiIAIiIAIiIAIiIAIiIAIiIAIiIAIiIAIiIAIiIAIiIAIiIAIiIAIiIAIiIAIiIAIiIAIiEAggf8Pz03AZBNAwdAAAAAASUVORK5CYII=;" vertex="1" parent="1">
          <mxGeometry x="480" y="280" width="70" height="70" as="geometry" />
        </mxCell>
        <mxCell id="CRDmnUIXy0GdyubuIBd--19" value="" style="shape=image;verticalLabelPosition=bottom;labelBackgroundColor=default;verticalAlign=top;aspect=fixed;imageAspect=0;image=data:image/png,iVBORw0KGgoAAAANSUhEUgAAAgAAAAIACAYAAAD0eNT6AAAABHNCSVQICAgIfAhkiAAAIABJREFUeF7tnQe4LEW1to8iOSeJwiGIIDkLiiAiSQURAUXFiKJXL2a8ileMIHpRvF4VTARRQUWiIAYEREAJkjMccs5Ixv//Ptgjm2Fm9sz0qu7q7reeZ53Zp2d61VpvV1VXV1etmjaNBAEIQAACEIAABCAAAQhAAAIQgAAEIAABCEAAAhCAAAQgAAEIQAACEIAABCAAAQhAAAIQgAAEIAABCEAAAhCAAAQgAAEIQAACEIAABCAAAQhAAAIQgAAEIAABCEAAAhCAAAQgAAEIQAACEIAABCAAAQhAAAIQgAAEIAABCEAAAhCAAAQgAAEIQAACEIAABCAAAQhAAAIQgAAEIAABCEAAAhCAAAQgAAEIQAACEIAABCAAAQhAAAIQgAAEIAABCEAAAhCAAAQgAAEIQAACEIAABCAAAQhAAAIQgAAEIAABCEAAAhCAAAQgAAEIQAACEIAABCAAAQhAAAIQgAAEIAABCEAAAhCAAAQgAAEIQAACEIAABCAAAQhAAAIQqJLA86rMnLwhAAEIVEBgUeW5+ITMp8/5J6Tzd+dzLh333512cm79/YIJe+fQ56wTfz+iz4cn/n5Mn/+c+PsJfT4guV9yzyS5t+v/N+v/N0numjiPDwiUQoAOQCmYyQQCECiJwMzKZ1nJipJlJEtJfLNfckIW0+cskhyTOxE3StwhuF7iToH/vkpyhWSG5EkJCQIhBOgAhGBECQQgUDIBP7WvJllB8pJJ4pt+5ym9ZJOSZ/eocnBn4PIJcafgMsmlkvuS504GjSNAB6BxlxSHINA4Ar7ZryxZe5KspL9pv5651Lfoz3Mmyd/0923PfM1fEHguASrQc5lwBAIQqI6A36uvK9lIsqFkTckS1ZlT65z9GuE8ydmSUyV/l3TmKtTaMYyPIUAHIIYjWiAAgfEIeDLdWpKXSzab+Jx9PFWcNQUBT0o8X3K65C+SP0runuIcvm4wAToADb64uAaBDAnMJJv8hL+VZAuJh/Wb+s4+Q/zPMskTCi+U/FnyO8kpEkYIcr9qgfbRAQiEiSoIQKAngQV1dFOJn/BfL/FMfFJ+BHzz9+jAHybEcwpIDSZAB6DBFxfXIFAhAc/M30HiG/46kudXaAtZj0fgGp12ouQ4iV8XOMYBqUEE6AA06GLiCgQqJjBd+W8r8Y3f7/RJzSHg4EW/l7gz8GtJJ9hRczxsoSd0AFp40XEZAoEEXixdvuHvKFk9UC+q8iXgyIbHSn4l8dwB5g3ke62wDAIQgEAoAYfEfa/E74v/H9JqBg51fKjk1RJe84RWM5RBAAIQyIeAZ+wfIHGjz40fBt1lwGGM95F4VIgEAQhAAAI1J+AZ+3tKHIK2u8Hn/zDpVQb+pbJymuQ9knlqXv4xHwIQgEDrCKwnjw+TOP58r0aeY3AZpgx4suCBEuaHtK4JwWEIQKBOBBykx8v2PNt7mMad38BplDLgkMS7SLxjIwkCEIAABDIg4EA9n5V4+9lRGnR+C69xyoDnCvi10iIZlH1MgAAEINBKAovK669LmNTHjXycG3nRc/x66WDJS1tZ+3AaAhCAQAUEllKe+0sekhRtxDkfhkXLgCcNOq7AyyqoC2QJAQhAoBUElpGXvvE7cEvRRpvzYZiiDHiXQs9DIUhdCU0SkEuATBYQqJjAksr/C5J3SDzRr+3JN67bJLdIPO/hVom3xXW4217ioWonR8DzDnpOHj3pHJ9Vf3tbYydPcJtr4m+znk8yf5d0jnnuhd+De0TGr2OYHDcBTh9/l+wtOUri60VKQIAOQAKoqIRAJgR8o/m05D8ls2diU1lm3K6MLpdcIblScrXkZoknoPmGn9vGNo6i506AO2uLS9wpeJFkBcmKEo/etLGD4B0JPUHVIYdJwQToAAQDRR0EMiAwm2z4D8lnJAtkYE9KE3yjP0/yD8mFEt/wLfelzLQC3b75LytZSeJOgXdbXE2yqsQjEE1Pp8hBl+e/Nt3RMv2jA1AmbfKCQFoCfop8m+RLEj9BNi35Cf4MSeeG708fa3Nyx2BlicM0rzXx6Y5BU0d8PFnQSwgvaPNFx3cIQAACkwn4BnCmJMXErCp0emb4xRJHkXPwGA+Bk4Yj8AL9zJH3PiQ5QuK5DlVcw1R5eh7GYZKlh8PBryAAAQg0k4Ankn1f4kYxVYNbll7vN/AdybaShZp5uSrzyq8MdpV4577rJGVd05T5eCKmJ7d2JmBWBpeMIQABCJRJwMP9fjL2O/CUjWxK3Y4T77DDe0g8gkEqj4DnE7xP4iH1RyQpr3Nq3Z7Y6brAK+3yyg85QQACFRFYV/k6rnrqhjWFfs/A/55kM8ksFfEj22cT8LLFN0i81fP1khTXvQydnii4BhcXAhCAQBMJeGLX1yRPSMpoUKPy8BPatyUbS4hDkH/JXGeinF1Ts3Lm8uq64Vdijr1AggAEINAIAi+XF5dJom7KqfXcJVv/V7KhxK8rSPUk4NEm7xcxQ5K6zETq98THHeuJHKshAAEIPE3AE5y+JanDJD8H1zlG8kZJG9amt6mM+v36+hKP5LhzF3mzTqnraNnq4EokCEAAArUi4CFzz4xP2UBG6Paa7I9IXlgruhg7LgF37vx0faKkDh1TB4X6gISRqHGvOOdBAAKlEXBwl69Kcm5cH5d9XmPuTgqpvQQcrvhzkqslEZ3JlDpOk40Oq0yCAAQgkCUBL8/KOaCPZ/E70uASWdLDqKoI+BXBlpITJA7ilPJGXkS3d8L03hgsGayqpJAvBCDQk8DOOurhyiINXKpzPcz/dglL93peOg5OIuCgQ/8neSDTsuw64tcXi3HVIAABCFRNYG4ZcLAk1c27iN7TZRf7s1ddQuqZv3ej/ITk2kzL9h2ya7t6osVqCECgCQS8kYu3rS1yk44+10O4Hsp9ZRMA40PlBLw3gUePLs2snHfqzQ9ll4MhkSAAAQiURuBNyim3YdLjZZN3lSNBIJqAZ+F79cD5kuhOa1F9V8omB0AiQQACEEhKwNHw9pLkNFnK+6xvktRrlEPgGQIOBZ3bZFfvibA7FwkCEIBAKgILSPHvJEWfWKLOP1e2bJ3KWfRCYAoCr9P3F2ZUH1yvPB+HHQanuHB8DQEIjEbAe7Tnsl76OtnyFgnLoUa7hvw6noBHxN4pyWkjIr+mWD7eVTRCAAJtJPAaOZ3DEj/vob6PhElPbSyFefvsJabeojiXLa7vly2ep0OCAAQgMDaB9+tMR86LGrYfV8/hsmGpsb3gRAiUQ8A7+XkDokczqDOep/MVCSNl5Vx7coFAYwi40fD2vePesKPOcxCfjRtDFUfaQsBhe3+fQf1xPfyVhHkBbSl5+AmBggS8YcphFTde3p3Pw/1E7yt4MTm9UgIORHVtxXXJnYDzJOwsWGlRIHMI5E/AM/3/UnGDdaryd0hWEgSaQGBOOeENsrxUL2pkbBw9njy7WhOA4gMEIBBPYBGprDLQyb3KfzcJ7yzjry0aqyewgkzwrn7j3LyjzvHkQJbOVl8WsAACWRHw8OBlFTZOJylvdunLqkhgTAICjijoHf0erLCuPaG8P5jAN1RCAAI1JDBdNl8liXrKGEWPtzjdQ+KGkQSBthCYLkf/IBmlrkT/1nNsSBCAQIsJeLbyDZLoxmUYfRcp3zVazB7X203Ar7ocO6DKGBvfUf50vttdDvG+pQQc3a+KwCVen/w/Eq82IEGg7QSmC4C3rh6m05ziNz9R3o5oSIIABFpCwLPsb5WkaFAG6fTTDvuYt6SQ4ebQBLzt8F4Sv58fVH9SfXe08p1taGv5IQQgUFsCjhN+cwUNzTnKc5naUsNwCKQnsLGyqOqVnAMXEWY7/TUmBwhURuBFyvlaSaoniX56D1GeRCOr7LKTcY0IzCtbf15BHXXddQwQOgE1KiyYCoFhCSymH15ZcsPiDXzeNayB/A4CEPg3gQ/rL0fE7NepTnXcIwG8DqAgQqBBBBaSL551n6rR6KXXrxnWaxBDXIFA2QReoQxvKbneui7/TkInoOyrTX4QSEBgduk8o+RGxJv4LJ3AF1RCoG0EHCCr7PrrTsBvJazUaVtpw99GEfAa3yMlvZ7QUx07QfnN0yiKOAOBagn4RnxgyfXY7cOvJV6hQIIABGpI4NuyOdWNvpder+9nTXENCwom14KA98p4vOQ6/VPlx/4ctSgeGAmBZwh8tMSG4knl5UlLJAhAIC2BLaTem/r06oCnOrZvWpfQDgEIRBLwPuRlBRVxPsz0j7x66ILAYAKr6uvrJalu+L30ehMjEgQgkDmBdWWfl9/1qsTRx5zP6zLngXkQaCIBx/TwZNvoOt1Pnzv6b2giSHyCQFMIvFCOlBVJ7AHl9eqmgMMPCNSQgIP2eLZ+v5t29HF3+DesISdMhkDjCXi27sklNQZ3Kp81G08UByGQP4GZZeIRJdV7dyjukLw4fyxYCIF2EfhmSY3AXcqHm3+7yhbe5k3AK28OLqn+uxPgiKIL5I0E6yDQHgI7l1T571U+nmNAggAE8iLgpXr7S6KH/fvpc8hglvzmVQawpoUEVpPP/yyh4vvmT2jfFhYwXK4NAXcCvlFCW9DpFHy1NmQwFAINJDC3fCpjg5/7lM/LGsgPlyDQRAJfllP9ntwjj/9L+WzfRID4BIE6ECjjvd+jArFZHWBgIwQg8G8Ce+uvyJt9P11eDbQK3CEAgXIJvKmECu4IfzuU6xa5QQACQQQcmrvfjTvy+BXKZ74gm1EDAQhMQWBpfX9PCZWb6F9TXAi+hkDGBLwZ2EEltBPuTBwtYc+AjAsDpjWDgCv1ySVUag8hkiAAgXoT8Ez9X0gin/j76fpgvVFhPQTyJ7BnCZX5UOVBbz7/soCFEBiGwCz6URkRAx0p8KXDGMRvIACB0QmsoVNSbwf6V+Xh/cdJEIBAcwg4bPA5kn5P71HH/6E8aD+aU27wJBMCDvV7duIKfLP0L5GJv5gBAQjEElhM6q5L3Ia4I+HJhyQIQCCQwB7SFdVL76XnYekn0E/gBUMVBDIksLJsclCvXm1A1DHHB9g6Q98xCQK1JODNN/x+LaqC9tLz1lqSwWgIQGBUAlvqhNSvEj2auNCohvF7CEDg2QQ8Ge9kSa+bdtSxrwMdAhBoFYHdErcpbpsOaRVRnIVAAgLvS1xRz5J+bylKggAE2kXg+3I36iGin57N24UUbyEQR8BDaCkD/twt/UvHmYsmCECgRgQ8W/9vkn4374jj10j/HDVigqkQyIZA6h76dtl4iiEQgEAVBF6kTG+XRNzs++ngFWMVV5Y8a03As3VTTtT5Tq3pYDwEIBBF4NVS9ISk3w286HHrXjvKWPRAoA0E/piwQjpYx2xtgIiPEIDAUARSRxh1ECLHMiFBAAJTEPDQfNFed7/zH5NuRxQkQQACEOgQ8B4jJ0n6tRsRx9lcjPIGgSkIOG63t9eMqHC9dHx+ivz5GgIQaCeBxeX2nQnbHk86XrCdaPEaAsMR+ETCCniedLPkb7jrwK8g0EYCOyZsf/xAsl8boeIzBIYh4A07bktUAT2hkIk4w1wFfgOBdhPwbqC9Rg8jjvkV5Artxov3EOhN4LMJK95evbPkKAQgAIFnEZhX/5shibjh99JxJLwhAIFnE5hP//U7sl4Vpugxzylgi05KHAQgMCyBTfRDb+pTtO3pd/7GwxrC7yDQBgJfTFjZtmoDQHyEAARCCRyYsE3y1uZeeUCCQOsJeGbsfZJ+veUix49qPV0AQAAC4xCYXyfdmqhdcpu2/ThGcQ4EmkZgn0SVzFsIL9M0WPgDAQiURmDnRG2TOwAOSObdTkkQaC2BueX5vZIiT/n9zt2rtVRxHAIQiCKQMkDQNlFGogcCdSTwURnd7wZe5PiN0jt7HYFgMwQgkBWB5WSNRxOLtEf9zv17Vp5iDARKJODY2DMSVaxdS/SDrCAAgWYT2CtRO+WOAZOUm1128K4PgTcnqlSXSy8bb/SBzmEIQGBkAnPqjJsTtVdnjGwNJ0CgAQTOSlShdmgAG1yAAATyIuBRxX5D+UWPb5aXq1gDgbQENkpUmfxOjZm1aa8d2iHQRgIzyekLE7Vbx7URKD63l8AvE1WkzduLFM8hAIHEBLZO1G49Kb2ebEiCQOMJLCwPH5UUHTbrPv9vjSeHgxCAQNUE/pCg7XJb9o2qHSN/CJRB4GOJKlBTI2vNIl47SX4muUzy4IT4bx/zFqb+TVWpl33dnTP+H9/hzZGpy2Yu5TJVfVhfilOwv0d6PdmQBIFGE7goQQW6Sjr9jq5pyZ2aq4fgZf+3q8D5Ye1L0WCiM82NKJKry+UbKyiXqbP84xB1chyO70ltOPohUCWBDRJVnPdW6VSCvN2Z8ZDgqI3IvjqnjE1GxrVvVH/4/ehlIEdmXy+pXCaoij1VbjpG3RzmupzXMzcOQqAhBH6QoOJ4fW7Ttvsd5+bfaWC+VkJZKWLfMA0hv2nGjX/ydSyjXJZQ9P+dxV8TtGXm9fIynSAvCJRFYC5ldH+CSvPZshwoKR8Pqxe9Ab4hoa0R9hX1j/OLl5EqGKYslwmLfE/Vrw2op72ugR+SSBBoHIG3JKgwj0nnog0i5Ql1fm/aq2EY5dg10pFiYmCUfaP4wm+Ll4dcGKYql1U0AY43cm5AXe2+NndL58ARzTLe8VUBlDybTSBFhL6jhMx7djcleSJfxHpgb4O8bQIoUfYlMA2VNSCQqlxW4bpv3PsnyHh+6Ry4PwAdgATUUZmUwBzSvnmCHA5IoLNKlZFDpCk6AJH2VcmZvKsjkKJcVuXNL5TxHQky92hp30QHoC8avsiUwOtkV/QaVy+P+1Om/o5r1trjntjjvHV6HCt6KNK+orZwfj0JpCiXVZFwQLODEmS+jXTO208vHYB+ZDieK4EUQXq+L2c9DNektFigM0sE6uqoirQvgXmorAGBFOWySrf/T5k7lG9kmk3K+o6U0AGIRI2u1ARcmAe+0xrDAFe4Q8c4r02n/KtNzuJrbQg0rVxeJ/K/S0B/53466QD0I8PxHAlsIaPmDjbsz9J3W7DOHNQ5pkFUitTVsSmFzih/0VMPAk0sQ99NgP7V0ukJgc9JdACeg4QDGRPwDlrRyZNvmpjODnTKWyNHp3OiFaKvdQQiy3gu8E6UIdGrkV4gna/p5SAdgF5UOJYrgc2CDXtc+n4TrDMXdUcHGnJMoK6OKi+7JEGgCIHIMl7Ejshz/UryiEiFE7qiX50mMBGVEOhPYHl91R3oouj/j+2fXe2/mVkeXBnAzCskUgQCirKvaBng/Ph6VQbTVOUyh4r/soB6230NbpFOBxwiQaCWBHZLUCneXksSwxvtYDvdDcEo//ckKy8jSpW8u9so9vBbeHXKQN+Z7akKa4l6faN2Bye6vLP0tsSLSFaxBI4MrhBPSN+CsSZmqc27+o3bkOxdgkfe3W1c+zivnez2KaFcVp3FVxLUiz2rdor8ITAOAW8Ze09whfjrOIbU8BzP8/HuaaPcLP3k70a2jDlCzqNIJ2UUv/jtaOUgR14uy2WUy6qr+ioj1tlhrtXpVTtF/hAYh0CKd2KfG8eQGp/j0LvDzAm4Qr+rYnh1WPuGaej4Tf1v9N3X0GW3inJZZZUfpr52cxr0f4969lwOWKWT5A2BqQh8XD8YVLDH+a6N78M88c4bKf1UcqnkgQm5RJ8OhvQmiX9TVepl3zjXlnPi60vZTF02XUZdVqsul1XVh/9VxtHcUyylrooP+baEwOHBFeF26WvDMGJLigduQqCRBHyzju4AfLGRpHCq0QS893dkRTi40bRwDgIQaAKB2eXEQ8Ft30mTwfAU1IRi0mwfFpZ73vs7Mp0SqQxdEIAABBIQeFg6Tw3Wu770eVL1U4kOQDBd1IUTcIGNTm1ZARDNDX0QgEC5BE4Izm4e6Vupo5MOQDBd1IUTWDdY493Sd3mwTtRBAAIQSEHgDwmUbtDRSQcgAV1UhhJYL1TbtGlnSp/nE5AgAAEI5E7AKyHuCzbSy6qfSnQAgsmiLpyAA2JEJob/I2miCwIQSEnAQbnOCs5gnY4+OgDBZFEXSmBuaVsiVOO0aXQAgoGiDgIQSErAo5aRaQUpe2oiIB2ASKzoiiawohRG72B1frSR6IMABCCQkEB0B2A22bq07aUDkPCqobowAXcAItONUuZJgCQIQAACdSFwhgz1q4DI9FTbSgcgEim6ogm8JFjhxcH6UAcBCEAgNYF7lcFVwZk8tRSQDkAwVdSFEvj3etUgrRcF6UENBCAAgTIJeL+OyPTUwxUdgEik6IomEP0KgBGA6CuEPghAoAwClwVnwghAMFDUxROYHqySDkAwUNRBAAKlEKADUApmMsmFwHwyZI5gY7zXPQkCEIBA3Qg4IFBkWlDK5uIVQCRSdEUSWCxSmXQ9KPFkGhIEIACBuhHwCEB0BNNF6QDUrRi0x97oDoCXAJIgAAEI1JHA/TL65mDD6QAEA0VdHIHF41Q9pemGYH2ogwAEIFAmgeuCM1uMEYBgoqgLI0AHIAwliiAAgQYQuDXYB0YAgoGiLo5A9CsARgDirg2aIACB8gncEpzlIi8IVog6CAxDYBH9yDd4z0S1LCCZf+LTf1uitwF+g3Q6/vWdkjsm5K6J//uYhTDBgkCCAASyJHBbsFWL0gEIJoq6aS5Ty0i849RSkiUlL5r0t/8/awWcVleelkHpCX15u+QaybUTn52//f+bJNEzcQfZw3cQgAAEOgSiRwDoAFC2xibgJ3aHk3REKd/s/bcj9y0nmWVsrdWe6M6L5x5YXtHDlEd1bIbEnQKvy/XOghdIHKbzMQkJAhCAQCoC0XMA5o3eajWV4+itlsDCyn5tyVqTxE/5pKcJPK6PyR2Cf+j/7hh4NIEEAQhAIILA+lISuTXw2bwCiLgszdIxu9zx+/eNJOtIfNP3ED6pP4GZ9dVqEzL5V163+5cJOU2fF0qe7K+GbyAAAQj0JfBQ32/G+2I2RgDGA9eks+aWM+5Zesj75ROfszXJwYx8cTRC9+BPl7hj4M+HM7IPUyAAgXwJvFimRYYzv5IOQL4XO5VlfsLfRLKFZFPJyhLiQaSiPViv5xScLfmD5HjJOZJ/DT6FbyEAgZYS8Ejs9YG+30gHIJBmxqqWlW2bTchW+pwrY1vbbJqXIp4sOU5yjIS9C9pcGvAdAs8m4LlYkfOK7qAD0Mwi5ln4r5ZsK9lS4vXvpHoR8MRCvyb4rcSjA9G7gdWLBtZCAAJ+cHsgEMODdAACaVasykP7HtbfXvI6ibfTJTWHwJVy5WeSn0sub45beAIBCAxJwJP2/WAQlZ6gAxCFsho97hFuLfFN358M7VdzHcrO9Vxl6M7A4ZIby86c/CAAgUoIzKRcHawsKrEiKYpkiXo8Yc8z9g+QeDjIkemQdjJwBfZrgt0lL5SQIACB5hKYQ65FtvX/bC6q5nnmSHtfkXgWaGQhQFczeHpFwW8kfg3Eqo7m1X88goCjr0a21/eANG8C88i83SRnBF/4yEKErthKGcHT8wU+IfFGSyQIQKAZBLyJWkT70NERHVq4GZQz8MIx9feXMMQfW+AjK08ddD2iMnSExEtASRCAQL0JeHO1yHYnMqZAvclmYL2X7r1F4pCxkRcZXfB0GThP8j7JnBmUdUyAAARGJ+BIgJHt+VWjm8AZ0QSWkEK/2/dwTOTFRRc8e5UBBxv6b4nfJ5IgAIH6EFhXpvaq0+Meu6g+rjfP0uXlkof5HQt+3AvIebAbtwz49ZLLnzugJAhAIH8CXuo9bn3vdd6pzBYu/6J7d71DJJdJ/lPCxjvlXwNyfDpmhMvfNRPlcQWgQAACWROIntR7Fx2A8q631+4fK/GGL2+XOKgDCQJVE/DcE5dHhxp2+XQHlQQBCORHYKFgk+5yaEFSWgLbSP0XJGukzaZW2h3O8hbJDZLbJHdJvCbV4g1wOn93/t+JWOXtdDuhML03tte+O80qcZAMJ5dpb3Hs5OMOiez33d2fPuZlNd5ha3FJdOWSylolPww4hLSFBIGqCThIjaNcOurlURPyWNVGVZz/AsH5300HIJjoJHUOyPJFyXrpsshWs2/S10r8VOn9q32jt9wkcaX2TT9y21t3BDqdAf057Q7/M2Lyq5glJe4MeLmNxcGXvCTTw+PsrSAIJAiURMCrVVz/LF4ddbXkU5IjS8o/x2yio33exV4A8Zd5Y6n8kmSjeNXZafRN9wLJhZLLJ8RzG/xeOXLTihwcd+VbSeLOgD/XnJB5czAOGyDQEgLfkJ97SCIfIOqC7kQZ6gfLqLQrHYAolNOmeYnGVyVNDbri1QrnSzwk53kM/rxY0rQbvVwaOrn+LCfxe/OOrK2/o4fqhjaIH0KgBQS+Lh89GtC25IesyMm6r6MDULwIeRnV3pK3SZrE03EJTpU4MJE/L5FE7kQldY1MLgMvlbxS4omfHhFiqV0jLzVOVUhgO+XtuQFtSZ6j43lPntcUlVZp0g0rCsqwejzp7JMT0oToatfLl1MknZu+e5ukGALLSo1fCbkz4CE8zzMgQQAC4xNwFLuVJW2ZGOj5SZ5HFZk6k6UjdTZelztNftr3xegVXKEuxxwn/iTJRyWeaEMqh4DLj1eEfFriDpdfodSlzGAn1yqnMrBDOVU2i1z8ABHJfpyJ0lmAqNKIdZT5WcEXIvKiTqXrOtn+fcm2kiaMWlRZFqLy9uqCN0kOktwtmeoa8j2MKANPl4GfRlXCGuh5T3DbcHYNfM7GRN8s95H4HXjdKp9v+g756vfRvPLJpkj1NGSmievk63V7Dcta3eoG9tavPZt8zbziqC3JbUJkef1lW8AV9XN7KfDa9Uj4qXVdK3v3lXjEglRPAo7Q91rJQRIHR0pdZtAP47qVgfvrWbXHsvpPwW2AV1KQBhBYWt85NGpdKoV3eXMv0YGHeNIfcGFr+JUnnDpcrxsBr3+uS5nETq5VyjLQpg6A39lHsnxnDdvBUkz2couPSxx2NhJ4Cl0VAcxdAAAgAElEQVR+JXGCZEdJ5PKQUkCTyVgEvKLgCxK/2klRptAJ17qUgba8AvCqoehrwuhwj+bXQV287j0adrS+K2XjZyVeGkJqJwF3VDeXHC3xXgnRZQx9MM29DLRlEuCWwfXb7UVn75R2tp5dXnvIfDfJA8GgIyuQL9rxEjf6DPFTbCcT8KjAfhLmCnDTjmxzctfl1TNtSHvJychr4QdI0gSBRfV5TDDgyIvlTskBEkeXI0FgEIG59OX7JA7RHFkG0QXP3MqANwfyRNk2pD8E1+c2b6j0rPKys/6X69prb6jzMQmbzbShisf66NcD20jqHLMitxsO9uTVCXIskzYk79jryY6R5e+LbQA3yMfZ9eWBwVCjLpCf3naRsFXzoCvId8MScPyH32da1qPqDHpibxC583RMlrYkby4WfT38cNDatIo898Y20VCL6jtPNjnmgJ/eSBCIJuDNiRz6uWg55XwYVlkGvqYy3KY28j8T1Flvbd7K5HCK3lGpygLcnfeZsud1Eib2tbJIlu70BsrxlMzqQHed4P95tVE5XA9PXGvLsP/kRuHXwXW1lRMAPTnq0GCQRSvF+bJnq8lXmr8hUCIBdzovyqxOFK1TnN+cjoMnP18q8VI/z/afucS6kUtW9jl6Zc8huThXlh2ePe+ClEvjMEO2+B1/m4axyrrW5DMaAe898C7J9ZIc6of3P9hwNBf4NQQaS8Cv7aLr5QcaS6uHY6/XsfsSQBznotwlOxxhcLYednIIAlUS8KRYb0+cQxyMh2XHTlXCIG8IZELgq7JjnHvNoHNWz8S3pGb4fbobtBwipD0qOzxxxdu+kiCQM4ElZNwvJIMakDK+834Hn8kZFLZBoAQCnhgeWd+85N2jfo1Ofpo5LBjcuBfhd7LjJY2mjXNNJLCpnMohmNCPZUdbgr00sRzh0/gEHP8/euOvX41vTj3ONLQcgp94+2C/5ydBoK4EHIdid0nVr9D+IhsWqitE7IbAmAQ+pPPGffDsd56jhDY2OWDCzQmg9YPZ6/gjyv9LEjZaaGwxa51jL5LH3nGyV3kv69iFyn+x1pHH4TYTSLFUd3pTgXqDnOhwiaM2br5gL24qYPxqPYF3i8A9klHrRdTvvX55euuvAgDaQMAj2dHz1y5vKri3ybHHJFENzah6/qm895CwrK+pJQy/OgS8cdZvKqxrHuFzJE8SBJpM4CMJ6ti3mwjMN97oiRKjdAC8S9MyTQSLTxAYQOAd+q6q0YDblPcaA2zjKwjUncDpcmCU+9Awv3Xgr8YkP227RzOM4yl+44lRnlBB+N7GFCkcGZHA0vp9ioZqmPrqzgcBg0a8YPy8FgSWlZXRD7V+Pd6Y+DMOj3i4ZJiGIsVvTlPebvxIEGg7Aa8U+LIk+n3lMPX2QeXrSGkkCDSJgOvTMOV/lN/8rCmAvCb4yASAhoH5hPL1NpRtjEndlPKDH2kIbCK1Xvo6TD2K/I07Ad7umASBJhBwhzpFPdquCXBmlRPHSiIbkGF1Xad8N2oCRHyAQCICXqt/XAX1068D1kzkE2ohUCYBh64f9p407O/cSa79snTf/I9JAGcYiB5xWKDMUkBeEKgpAc+J8cTcsl8J3KE8WR1Q00KD2f8mcLT+GuaeNMpv/Lq81smhfU9KAGYqiF5a+B+1JofxEKiGwLbKtuwIgrcozxWqcZdcIVCYgPfheFwy1X1p1O93LGxZhQo8dPHHBFCmgujGhHeLFV54sq49gZXkgYOPTFXXIr+/QflNrz05HGgjAW8YF1kXrMuvx/wAXcvkyXbHJ4AyFeRzlOdStSSG0RDIi8DcMqfswEGOGLhwXhiwBgIDCbiepIir8b2BuWb8pdf5/1wy1c06+vsfKE/PNyBBAAIxBFyXvyWJrquD9J2q/KjHMdcPLekJpIj85/qxXnrT0+Tw3ZIbDL972S2NK2iFAARE4GOSMicH+gGCQF0UvdwJeOnftZJBHdpxvrsod8f72ZciEMIggI6StEU/YzgOAQiEEdhJmrxj5qD6GPmd36uSIJAzAdeJyDLf0fWJnJ3uZ5ufElLA6KfTQRdW72cMxyEAgXACG0vj3SXW8w+Ee4BCCMQQ8Osxb3Xd7/407nGvYFskxsTytOysrKJjIA8CeL7yW7I898gJAhCYILCyPlNEPOtV3x3Bc0vIQyBDAqme/n+Roa8DTVpH33pb3V4VOMWx3yuveQdaxJcQgEBKAtOl/BpJivrdrdMjDsuldAbdEBiRwEz6/SWJyv/6I9pS6c+XVu63JgLR3RD4/54cRDz/Si85mUPgKQLTJVdLetXT6GMe8at9SFTKTWMIvDVRuT+zToS8/vGCRCB6NSA/Vl7ueZEgAIE8CPg13BWSXvU1+thhebiMFS0n4HtQqiBZb64LW0+ASBH7uF+j4aAIzpMEAQjkRcATllJMhurVFnw0L9expoUEPDG1V9kseszzamozur1fIgi9IH5debEmuIU1DZdrQ8CdgFRPRZPbBMf82KQ2VDC0aQQ89+x2Sa/7VNFjn64LrFTvP3oB/EJdoGAnBFpOYGn5f32ixnFy2+A5R7VbJtXystEU9/0w2us+VfTYvdI7Xx0gvURGOvhOUYeHOd9BhUgQgEB9CLxYppYxKfhE5cOoYH3KRRMsXVZOpAqEVYsH3TkF4GLJMDfvor/53yaUGHyAQAsJODhXis1RutuUD7eQLS5XRyDVxlgPyKWFqnNr+JwP1k+7K2GK/x+kfJjwN/x14ZcQyI3AhjLowcTthZ/GVsvNcexpJAEHo0pxr7POr9SBmDfbSQVgsl5HQWKpXx1KBDZCYDCB7fV16g2EvAx5tsFm8C0EChHwyHeqoFe1ePpfSwAelqTuAByrPGqzDKJQkeJkCLSDwH+V0G7s3w6UeFkRgVQT/3w/3bcin4bO1tG3LiuhEv9deRDpa+jLwg8hUBsCqV8deg+SV9eGBobWicCaMtZLT1M8/DrE9YK5w/h2IucnA3UAhCVyB4F9EIDAWAQ8qndy4nbkWun3UC0JAlEEPA/tDEmKm791fjzK0FR6NpXi1Dv8eUkhE3lSXUH0QiAPAn7SuVKSqjGtxXBqHpcCK4Yk8NmE5dUd1lmHtKOSn82jXGckBOAK66GVzSvxjkwhAIGyCayqDFPuGur2ZO2ynSK/RhJwOXpMkqrD+pbcqXnjnVTOd/TumjsE7IMABEIJvDNxu3Ke9L8g1GKUtY2A56Kl2urX976/SbIOYvX6xJXUEL7btlKFvxCAwFMEfiRJ+XCxB5whUIDAdxKWT79Sf2UB25Kf6qH/mxICcMX3nsezJPeEDCAAgRwJzC6jzpek6gQ8JN3L5Og4NmVPYCtZmHLe26G5E/hWworpCn+nZHruELAPAhBISsB7BtwnSdUJOCKp9ShvIoEl5VSqnf5czl3eF8sZ3BoyLtWaRwN4QsJ63ZxLALZBoDwCOyurVB0A692oPFfIqeYEvFT1r4nL4wdzZuQ1j6kB1Ga/45wvFLZBoEEEDk/Y6J4r3ewp0qDCktCV1PFuzpbtWYe494z8lL3xE6Q/65mPCQsXqiEAgd4EvAtayu2D39U7W45C4N8EdtRfKe99HvleJ2feroR+N58Kwh3SnfW7j5wvDrZBoOEEtknY9tws3XM3nB/ujU/gpTrVwehS3fus95vjm1fOmQcmBvDGctwgFwhAoKYEDkrYBn25pkwwOy2BhaX+6oTlzjd/76OT9R43K8lAD1Gk6gH9JO01RDsEINAAAvPKh+sTtUPectWNPQkCHQIOw/sXSar7nvX6vvqy3JEflRCC91B2XAESBCAAgakIbKcfpGqQ950qc75vDQHPRTskYVnrlOGv5E50w4QQnpRuluHkXgKwDwJ5ETg+UZvkPQgWyctVrKmIwOcSlbHJndcLlEfWm/2Y/akJQXyvootLthCAQH0JLCfTH07ULu1XXyxYHkRgF+lJGenPnYBHJWsG2ZtMTcqZt7fI6vmTWY5iCECgyQT2knMpXgW4Y7FEk8Hh20AC3uMmZaC7Tpn96EArMvjSAQkulKSoZNa5UwY+YgIEIFBPArPJ7KsStU/71xMJVhcksInOTzWyNPk+erTyyT7ejW/QqW7+DvhDggAEIFCEwOt0coo2yhsFOe4JqT0E1pKrKfed6JTT65TPArljde/EITJTVC5PtGEXrtxLAPZBoB4ETknUTu1ZD/exMoDACtKRcoOfzn30MeWzQYC9yVVsmahSGYRnV5IgAAEIRBBwg5riQcXRAbOfoR0BsOU65pP/VyYqQ93l8pN1YZ2qV32TAMxZFwjYCQEI1ILAbxI14O+ohfcYWYTAAYnKTvfN32U0+/f+Bply3f97ilwpzoUABCDQg4BjtaeIVHpej7w41BwCXk5axox/T6avzV4Tx8jY7t5LxP8d9CDrrQ6bU67xBAKtI/DjRO3Wpq0j2R6Hv5CozEy+X3qTu9rMeVtFxqYKgOB5BSQIQAACKQgsLaWeZBXxsDJZh5dskZpJ4O8JysvksuPy+Ko6ofu/REB+XycI2AoBCNSSwKEJ2i8PEbNNeS2Lw0CjHYQuxWujyR2ADw60ILMvPTnv3gQVyECy3+0os2uBORCAwOgEVtUpKUYw9xjdFM7InMB2si96tGiyPj9M1yp5gl4KIDz916oYYCwEak0gxUZB3q+9FjO4a33lyjX+24nud76Hevfc2s13S/U+ZONyryu5QQACLSbwykQN+8tbzLSJrqe6350pWLVb6r5Gokrz1yaWHHyCAASyJnB6gvbsh1l7jHGjEJhFP34kQRm5WDqzD/PbC1SqYAhb9MqMYxCAAAQSEthBuqNfZz4gnXMltBnV5RFYJ0H5uFE6lyrPhbicPFzhwh1dYTzEQoIABCBQNgE/4d0miW7T3la2I+SXhMD7g8uGV4qslsTSAKXPn0KH9z9O0bP95hT58jUEIACBFAS8/vqgBIq3T6ATleUTcOTIyOShfwe6q2VKEUfbOyuxkUYtiwNGQ6ARBBzmNXpJoPeKr01I10ZcxTROnCS1kaNDB6YxM0broBEAF+YU7+l/IL2PxpiPFghAAAIjE7haZ5w88lmDT5hNX289+Cd8WwMCKwXbWNvX3X6nFdkTsi5HV1o6GDDqIAABCIxKYCedEN2+HTGqEfw+KwKzy5rokaG1svJwBGOOTVBBvJkQCQIQgEDVBPwa8m5JZCfAE6Z9EyHVk8DyweXBZauWr4UcC9nD9JGVw7rY9KeeFQOrIdBEAil2CXQYWVI9CWwisyPvebfkjqHfHIBtZLiXy0Smm6WM0L+RRNEFAQgUIfDLIif3OZd5AH3A1ODwEsE2XhWsL1xdvw7AVuE5TZt2uHQ+mUAvKiEAAQiMQ+CPOumecU4ccM5mA77jq7wJLBJs3rXB+sLV9eoA+Nim4TlNm/azBDpRCQEIQGBcAo4J4M1ZItN0KfO7ZFL9CMwXbLKXvGedenUAHApx4WCrvezm7GCdqIMABCBQlECK1wCMAhS9KtWcH90BuKsaN4bPtVcH4DXDnz70Lw8b+pf8EAIQgEB5BPwa4N7g7FK0ocEmoq4HgXl7HCtyqJYdgM2LeNzn3J/3Oc5hCEAAAlUS8GsAdwIi06ukrHZ7vkcCqKmu6CWc0R3LcKzdIwBes7hBcC6XSZ+FBAEIQCBHAtGrk7yMeu0cHcWmgQSiO23ZT3rv7gC45zrzQESjf3ni6KdwBgQgAIHSCER3AGz4hqVZT0ZRBFrXAXhBF7mXR5GcpOeEBDpzV+kYCg4Isq3EoSCXnDDY+0KfK/HMY4uHH6tIvezz1s+k9hH4p1zOpVxWRf8aZeyJyt4kKCqtF6UIPaURaF0HoJvsyToQGQnJjYs3yWhT8ragbkym4uggEVVEDRvWvqns5/upr3EdGblcvrFNFXbC1+8NUWdHuZ7ZB4Fp4TWeyuUjg8vAG6bKMKfv3ftxLOtRCvlUvz0uJwcT22J+3xiD3746p/tVTApTx7VvqmvM97F1JheeXy+pXKYo6+PodKcnmv0LxzGEcyoj4Fg1kWXg7ZV5MkbGqwU7b5AfGsOOup4yzs2/U9i+VoLTReyLrBToim1kUvIso1yWUPSHymIB/Sp6JzjCAg+FPpsf/UiWRNanD2bjWR9DJj95rtvnN0UORy+vKWJLynM9rP7xAhl8SuemHC4qal8B1zi1xgRSl8uc0HhnwGuDDWIeQDDQxOoeCtaf/U6AkzsA6wc77xjbbVj+5wl1EU9K+0lP9AZMvqRR9gUXD9TVhECqcpmj+38PNooOQDDQxOqiA/dER9QNd39yB+BlwdrPlD4PpzQ9eSJfxOzhZaTHqwaiU5R90Xahrx4EUpXLHL2P7gCsnKOT2NSXwJ19vxnvi6XGO628szrLAL32f6XgbN0BaEOKHLp3ByA6NnmkfW24nvj4XAIpyuVzc6n+yN+CTXiR9M0leTBYb+7qfONzQDl/+iHTEfEulJwlyTk4zh3BYLPvAHT8XVF/RE5+sK62xMO+IpBdilcmkfZFlxH0xde7FExTlMvgtjZEnWNhPBFYn30t2hIR0Csedpe4E9VvMqVvsF+SeMJljmkTGRVZf27O0cleNm0T7Lh7edEbK/SyO4djkUsnrSs6RdoXWTnQFdvYpOSZolxGl/MofX5SjWT51ijDMtTj2PlvkRwveXwEbr4x5viAOH0EH4YpI+4IzSfJNnXmALwk2EI/MdwXrLMN6lxgSBDIjUCbyuWlwfA9utqkNIec8SuhgyS3Srx23ssdu6PKDvJ5MX3pToM7DzklR8R0RyYqPU+KVo1SlkJPqg7AJSmMzVRn5DBPpK4OrhQ6M70UmJWIQJvKkF+ZRaYmdAAWEpBdJEdIbpM4jPk7JPMUAOV5Z4dK3lZAR/Spfv3jTkBkcnydbFOn17ZCsIVteWdobGdLovhFz0K2fecE2hdcTFBXEwIu421JdACefpr3EsZNJa+V+O8U0UodnfQgiZ+6D5fkkHz9vfIlKq0epSiFns5Fje6ltqkDcHTghTkmUFdHlXvrJAgUIRBZxovYUca5VwZnUoeZ4L4PeMni+yR+yvdkvdMlnrDn5eEpbv5S+1RyJ+AwSS6vAzwHJDKl2GAv0r6nJusNM6FhlN+0ZearL4SHstxojMKn12+9gdAsoVf2aWVR9vWymWPFr3vuDFOVywRFPUTlggF1ufua5hYRzvZ46/f/krhz5yiI3TaX/X/vjFrF5mjdhcavOiJ99/wZr5DINnn9f7TDXvvapuSCW4ShC4lXYqRKKTY6KeIv5xYrL2XySxGcKlU5j9LrgDCRjKMnWY/ip1/z+j30rpIfSvyEG73UMYrVo7Jt+1GcS/DbNaUzyp+OnjclsDNM5SbBDl8fZlm9FO1bgOPeJbj69QL2RVcI9MU3MimY7lNCucwxC69lj+Tpd+llpCWVyZaST0kOkZwreUQS6UtqXV5C/pEyYPXJwyOm3hMg0s/v9skri8M7BTt7WhZelW+E35N5T4BRCo6f/N3IpnzH1iHhPIp0Ukbxi9+OVg5y5OWyXEa5LL+mTp3jsSPW46mu39unznLoX3j43k+pfqr8tMRP9adIchjGn4rDKN9/Sz5VVf5OVd6j2DrVb72ywEsCs0seHlok2CqvDW1j8s18D8kZEj9tLz8FBM8b+KSkrAlWts9PBn8d0r4pzOfrhhK4Sn59osRymSNGL3WLTIsPqazTHvtJflGJQwl7zbz/7/1G3KZEt9dDmlb6zxxV0BMoHUjp4ZJzdxu5UWCeS0iXd9v1yFJWiQ5A/OXwrHsHuXAMfr8/9YRIV2CnGyReluebviUy6MTTOUz9bz/72jZvY2pS7fiF49T7CcXl0mWjqnKZE+3bg41x4+/2YH6Jw+B2f3qdvW/4vrl7VjzpaQLb6eNPEs+P8sqEspI7ANHJ1z+7DoCd/LFkqiGMUb7/TDQ59EEAAhAokYCfPkdp8/htWl5+cHpFidffAY68KiHyul4jfVW90uiLzgZFDym19RVAX8h8AQEI1IpA9CuAWjmfobEeQT1ZspekjJvo/crnrGAODi60cbDOwuoM08NRkYkOQCRNdEEAAmUTiH4FULb9TczPr6s/L/EETb8ySZ1+lyCD9yTQWUilOwCzFdLw3JPLfFfz3Nw5AgEIQKAYgXuLnc7ZCQlsLd3nSVK/EvhtAh8cjyX6gbuQmSk6AF5DSYIABCBQVwJeO0/Kl4BfCXjp4wGSVFEWHUPB7+0j0+xS9oFIhUV1pegAUHmKXhXOhwAEqiTgiHSkvAn43uW9Cy6QbJHI1CMT6PUEU3cEskiGGB1/nsqTxaXFCAhAYEwCPMSMCa6C06YrzxMlh0i8j0Nk+nWksgld3hfgbQn0jq0yOu51GRM0xnaWEyEAAQhMQSDFhkCRS8rQ1XuJnldvvFsSFUvB0fsiNnrrvl5XSW/0g/cURbr31yleAZQdtam3ZxyFAAQgMB4BRjHH41b1WX66/pHkIskOAcb4xn1QgJ5uFY7q+P7ug1X939HounsoRf7v5RokCEAAAnUl4DasSBvYxnOfELNTJR+TvFLibaSr5vBn2bC+pEjyhEP7Fu2LRytSTWAcyd9o56KGX0Zygh9DAAIQCCJAB2C4G55He4+TvFfip+/JyaGN/yGJvnGOqs97oPxS4i2Rx01eEjhqvsP8/svjGhR5npftDWPssL/JZoZjJCR0QQACrSEwZ3CbOGzbWYff+f31dyWO0z/VE+x8+o1HBXLwyx0BB/d5jWTU5C2WU/jgyaYrjmpM9O8d9CLSOV90EgQgAIG6EmAS4DP3hHt0EX8l8TvrZce4oH4g9AZTkfeYorrOlz27SIadiOfJgJcm8uHP0lvpVsEOe1kU6OTzu4eCpJ4EAQhAoDYEvH1rZJtYJ103yfcjJF6vvo4k4pWudXwjQ6beBfOLkhdLpkoO4JPqOnrlQmXJECId86QJEgQgAIG6EvCTbmSbmKsuTwD30/D3JF6b7g1rUibf6LzCIkce3gLYN3lv19wreSTD+9yksN2j8KnZ9/LpqWPRszW9xIEEAQhAoK4EXirDUzT0Ver0jfdsyYGS3STrSaL3gRnmem+kH0WPOkdy9Xt5BwDaUdIdt/8TOhaZ12Rdp0t3JSvoLgl2au1hSgG/gQAEIJApgbWC28RUN41eev1Uf4XkKMk+kndI1pTMnBHrpWXLmZJe9ud0zCvkTpN8ZoLhXPpM2Xn5QhXXyD2PSOip4jJXwYY8IQCB9hHwTPHINjFa15Oy73qJZ9gfLPmcxIFvVpUMO7FNP6002c5vSjw7P5pPKn03y9YbEtrrDsdWZV4VDzncFZxhdDzmYPNQBwEIQGAggUUGfpv2S98Q/ZRp8YS8zud1+vvaCfHN/7G0ZiTXbvs/KnEn5seSOqweWywxFU+W/LnkZZLLEuf1lHo6AGVQJg8IQKBOBKJXMjnqmyfbebKXxUvr7pv0f/99i8STzHzD9xN+W9Jv5Og/JIdIXtEWpwf4Oa++O1riToDLSfIUvTyjkvcYySmRAQQg0BYC+8rRyGFkt7GkwQS8Ft7b+/4zmH3kdSxTl1clOCBV0vR8aY9+BRDde04KAOUQgAAEughEt2F+sicNJuCbq1coeHXCuYN/2opvN5CXR0iSTt5M0QFYuhWXBychAIGmEojuAHjyGGk4AhfrZx7+3lPS9p1ltxaDQyW+TydLr5fmyKENLyskQQACEKgrAb+TjmwTN6kriIrtXlb5Hx98LSKva1m6vFoiWfLSkUhHHpK+SmMbJyOFYghAoOkE3HY9GNwmrtB0aIn92176Uy6/i7z/pdK1XSrG8wQXdgPwVpAkCEAAAnUj4FDm0Y24A8iQihHwhLjPSx5IcH2ir3cKfV4Gmmw+wN3BUD2BgQQBCECgbgQ2lcGRDbiX+JHiCPjh8gCJIx5GXqc66NopDuPTmjqTC2YEK2bIKxgo6iAAgVIIDLMz3CiGRLeto+TdxN96RYW3Jl5d4hgCvnG3JW0b7WinA+Dhhci0WqQydEEAAhAoiUD0w0spEd1KYpNTNp5s/kaJOwJeLucIik1P60Y72OkAXBusmA5AMFDUQQACpRCgA1AK5rBMLpQmD42vIjlM4nj6TU1LRDvW6QB47WVk8soCEgQgAIG6EVgj2GBGAIKB9lF3qY6/TeLt6L8m8by2pqVkoxzri1T0JIgqN9Ro2oXHHwhAID0Bb/YS3Q56K15S+QTmUJYOLXxRgmsaXUaG1edtnpMkL1OJ3pZx8ySWohQCEIBAGgLRQdHcpiaP554GRaO0elWaVw54I6Zhb7Y5/u4X0Vel8wrAgS+i5wE4nCMJAhCAQF0IRE+yul6Oe3MbUrUEzlD2XjngER6/Jvi9pI47LnrVQ7LkLQgjez0nJrMUxRCAAATiCZwQ3AYeF28iGoMILCQ975H8VvJo8HWPvI92dPkBfZYg33uq+XIwBA+3dEYYembIQQhAAAIZEbgjuA3874x8w5T+BObTV2+V/FTiOAMpbuBFdSYLBdzB4gyKGtl9PssB+xc6voEABPIh4OV/3e1X0f9vkY97WDIkAe8F4ZUgn5ScJMkh9HDSzYA6XBxisWiB7z7/A0NC52cQgAAEqiTwweD2zxMAF6jSIfIOITCTtDjYkO9lB0sul0RPmO++b07+v2/+pW2ud40yG2TMqN+Fz1oMuaQogQAEIPBsAkcGt32+UZCaSWBuubWexHMI9pN4pMDRdB2EaNR7ZL/fz5AuRzpMml7Qpd2zJZcJzPE10uUeVB1nXAZiQBUEIJAxAbdRrwq276xgfajLh4BfC/xtQiZb5fupd5NcekKW0ueCEo8ETf707+aVeI6cd/jzMvyHJLdJXG482/8oyWOSpKlXB2DnwBztuHtK7li0KXm2pudUePOGtSQuFKwHblMJqI+vXqZ2o+RciRudUhqezPB4+Z8ngkUmOgCRNOuhyyMAMyakHhZ3Wbm2/t9vSGLc41+qJYnxjd5ep16dgOO4/J2Q9CUAABjkSURBVDkvvkw3melVKrvJhx7Hr15JztwzQX11x58EgVoR8IiA96+ObOD+XisC4xvrYcRvBLOLvA7oii3XTef5dZXltizjPS243no5YVvYjd9icmaWBPz+IbJx8/v/NuwLwM0/ttxElkF0jXdtvKlK05NXP7mNiiwjTH5ueqlpiH+9eqkOkxiZnEfyIAaRBo+hy8P+Hx/jPE6BQM4EPiXj3pCzgQG2ue72ageLqI5uQ4vYwrkQGImAVwFE9oat608jWVCvH3vCn9+bRjNDH0xzKANeGpw0BGnF1d1tUzTn6RX7RPYQKEQg+obmIbbFC1mU78k7ybToBgR9MM2pDOyQb/UrZJnjwT8eXH9Z/1/oknBymQT6DX05sEFkcj5NnVnc9CHSyHKArnoS8HLWJiYP/3cvhS7qJ8P/RQlyfmkE+nUAUuzkt2NpXpWbkZdOkiDQZALrNNQ5dwCik3cUJEGgFgT6xRieXdbfLnGEoqjk+MnLSWZEKcxEzwOyI5JTJm5hBgT+TeBB/eXwp01KS8sZz2/o9xA0jq9eQu0VT95elgSB7An0K/wPy/Ljg613Xu8K1ok6CEAgPQF33puW3Bb1a//G9fUYncjNf1x6nFc6gUEV4NcJrHm3dDpgTpPSzU1yBl8g0INA08q427139vCz6KFfFVXA+RAok8CgDoBHABwnPDI5Jv6WkQoz0HVOBjZgAgRSEjg7pfIKdG+hPP0KIDL5VWD05OlI+9AFgecQGNQB8O5Ev3vOGcUPvLe4iqw0ePMUEgSaTODohjmXog06VoweaRgn3Gk5gbfI/+j1yF53u0SDuHo7xysTcIrmjr74stwGpt7YqkmBgBz619usRl+7pi5zblBTjSvdBAaNAPi37vnf331Swf973e2HCurI6XR3aPbIySBsgUAggY9JV/J9yQPtnUrVf+gH7rRHpnukjOV/kUTRlQ2BA2VJdG/5buls2tI5754WzQl9MK2yDOyTTSsUY8gcUnNngnr6nRjz0AKB/AhskKDCuFH7cH6uFrLIoyn7JmJV5U2AvNvZCfFOgFONEBaqMBWc7DYnRXleswJfyBICpRG4JEHFcRCOpi0J9AVxaGDmBKRpaFM03uh89rVy2W1i6F+3NdF7nLjssArIrR6p0QQ+Ke9SNJQpQnHmcCH8jtEbqPxUcqnES4RS8EMnXIuWAZdNl1GX1TdJot+PS2UWyb4VZdXrfM8pIEGg0QQ8czZ61yxXpn9I+oUjbjRQnIMABEol8Dfl1usGXuSYl0rPX6oXZAaBiggcnqACufI1dRSgostEthCAQBeBbRK1XYdCGgJtIbBhokp0kfQ2bbJRW8oEfkIgdwJuWzzSWORJv9+56+fuPPZBIJLAWYkq0k6RRqILAhCAwASBtyZqs06BMATaRiBVZfIqgyauCGhb+cBfCOREIGWUziaulMjp2mFLhgRcoW6Q9BsSK3I8RXzuDBFiEgQgUBKB9ydqq66QXl5blnQRySYvAnsmqlS3Su/cebmKNRCAQE0JONLojYnaqg/UlAlmQ6AwgfmkwbGvizzt9zt378LWoQACEIDAtGluS/q1M0WO3yW9cwIYAm0m8JVEleth6Z3eZrD4DgEIFCbwYmnw1rxFbvT9zv18YetQAIGaE1hQ9nuXwH6VpMhxxxsgQQACEBiXwPE6sUgb1O9cj3wS+Gfcq8J5jSLgzUL6VZSix1/TKFI4AwEIlEUgVdAft2mfKcsJ8oFA7gReKAMflBS92fc635t2zJ47AOyDAASyIjCbrLk6UZt0h/QySTmry40xVRP4RqLK5k5B0/Yir/pakT8Emk7AbUavB4qIY59qOjz8g8CoBPw+zLNiIypYtw5vPsQ+26NeEX4PgXYSWEtuP5aoLbpder2skAQBCHQR2EP/7755R/3foYeJEEiRgwAEBhGYVV9enLAd2n1Q5nwHgTYT8Hu3GQkrnzsYJAhAAAL9CKRa8+8HmSsl7mCQIACBPgTeruNRT/3dejyst26ffDkMAQi0m0DKoX+3Ra9tN168h8DUBBwX+xxJ98076v8e3mNVwNTXgV9AoE0E5pCzKYf+T2gTTHyFQBECr9LJUTf8Xnr2L2Ic50IAAo0j8IOEbY5HHldqHDEcgkBCAj9PWCH/Jd0ECEp48VANgRoReEvCtsYPIN+qEQtMhUAWBBaTFfcmrJjeMXDxLDzFCAhAoCoCyyvj+xK2Mw76Q8jfqq4u+daawIcTVkz3zM+QzFJrQhgPAQiMS2BmnXimpNdrwqhjntRMggAExiDgdftnS6IqYy89+41hF6dAAAL1J+C5QL3ahKhjJ9YfER5AoFoC6yj7JxJX1B2qdZHcIQCBkgnskrhN+af0L1uyT2QHgUYSSN1T9zvAFRtJDqcgAIFuAhvqwCOSqCf9XnqI+NdNnf9DYEwCXqN7eeIKe430e1dCEgQg0FwCnvh7k6TXTTvqmOcVEHa8uWUIzyogsIHyTP0q4FTlQajOCi4uWUKgBAJ+kEgZZMwdiEclK5fgC1lAoHUEviaPo3rp/fQcojye1zqyOAyBZhNwnT68hPbjk83GiHcQqI6An84vKKESf7Y6F8kZAhBIQOAbJbQbf1YeDmVOggAEEhFYW3pT7dXdGRVwpEDW7ya6gKiFQMkE/FTeb8Qv6rgD/hBYrOQLS3btJFBGhfZ8g+3biRevIdAYAm+VJ+7QR93o++nZtjHEcAQCmRPw+7yjSqjUDyuPjTNngXkQgEBvAlvrcOrRQncIvtc7e45CAAKpCCwoxddL+vXIo447RoD3CSdBAAL1IeBVQw9KotqBfnq8hbBXF5AgAIGSCbxc+T0u6Vc5o47frjxeXLJvZAcBCIxH4GU6LeUGP5125X7lwza/410jzoJACIE9pCXqRj9Iz5XKZ94Qi1ECAQikIlDWzd/zCt6Yygn0QgACwxHwfICjJYNu3lHffX84k/gVBCBQAYGybv5uT/auwD+yhAAEehCYW8cukkTd6Pvp8esGNvjocQE4BIGKCZR58z9JvhLqt+ILTvYQmExgOf3nTkm/m3fU8b3ADgEIZEVgI1lTxjt/tyHXSjwBmQQBCGRGYFPZk3pS4N8z8xlzINBmAl5//5AkqoM/SI9XFazZZtj4DoHcCXwocWPgAEHz5w4B+yDQAgK7yMfUHf5Oh8D1nmA/LShUuFh/Ag7MMagnX/Q7GoL6lxE8qDeB/5L5ZUT467QVH6g3LqyHQHsIeIJOypUB32wPSjyFQFYEvNmO61/RTvwo5++bFQGMgQAEpiQwu35xWqKG4owpc+cHEIBANIG5pPDIRHW6X4fgCOXHDn/RVxJ9ECiBgGfrXpKgwfAeATOXYD9ZQAACTxNYUh/nJKjL/W78Pu4HiNm4ABCAQH0JuOFIsWcA+wPUt0xgeb0IOOT3rZJBN+vo785XfgvUCxPWQgACvQispoPRs4V37ZURxyAAgVAC75O2Mnb0m9yB8KjhwqFeoAwCEKiUgHv0kU8J+1XqDZlDoNkEPPR+QHCdHab+X6U8F282WryDQPsI/DC4Mflt+xDiMQRKIeCdN88Lrq/D3PxvUJ7LlOIhmUAAAqUSeH9wg3JNqdaTGQTaQcA77N0TXFeHufnfpjxXbAdivIRA+wisE9yoPCl9s7YPIx5DIAkBD/mnDuDVryNws/J+aRKvUAoBCGRBYB5Z0a8BGPc4w4VZXFqMqDmBVWX/PxLUz2Hq9Qzlu3zN+WE+BCAwBIHbgxsZ70JGggAExiPgADu7Sx6RDHOzjv6NX+PRiR/v2nEWBGpH4PTghmbn2hHAYAjkQWBZmXFKcH0cpYPgpX7M9s+jLGBFAwjUIVzmtcGcXxisD3UQaDqB58nBD0sulLyyImcdUdCjd373T4IABAIIvCBAR2oVdwZnMF+wPtRBoMkEVpJz35dUdeM325Ml20nuazJofINA2QTqMAIQ3QGYt2zI5AeBGhLwxlx7Sby2v8qbvzf22VrCzb+GhQiTIVCUgPf0HuU94VS//XFRgzgfAg0nsJX8uzq43k1VL3t9/yXZ4NcPJAhAoKUEPGmvV+Mw7rGft5QjbkNgKgLehMtP3OPWrajzvI/Au6cylu8hAIFiBOowB8DBeyLTTJHK0AWBBhCYUz58SPJZydwV+/Og8t9JQtjuii8E2TefQB06AE8EX4Y6+BzsMuog0JOA68J7JF+QLNLzF+Ue9KY+Divs1QYkCEAAAtPeIAZRQ4vWczRMIQCBaa8Vg4uD61aRenq8bJmf6wIBCJRHoA6rAKKH7B8vDy85QSA7ApvIIgfzOU6SQyx9dxo82e/1Em8oRIIABCDwbwLv0l9Fniy6zz0UthBoIYFXyOc/BNel7ro16v/vlz0e8idBAAIVEKjD+/DoSUkPV8CZLCFQFYFXKeO9JFWu5e/lu18/+OZ/Ra8vOQYBCKQnUIdXANEdgIfSYyUHCFRKwPV6W8mpkj9Jcrv5/0A2rSfh5l9pMSHzthOowwhAdOz+u9p+0fG/sQRmk2c7Sj4tcQjf3JKj+e0m+UVuhmEPBNpIoA4dgKWCL0x0aOFg81AHgZEJLKozfGP1Wv4FRz67nBPOVDZvlVxTTnbkAgEITEWgDh0ARyeLTLl3ALzq4WWSVSXet+Bfkuslf5XcEAkCXbUm4GH+zSS7SjzcP3Om3jiQl2f5f1kSHdQrU5cxCwIQiCJwqxSNOrt40O9zex/a4eQnt69K/Iqil/3uCPxN8hGJn/hI7SSwhNzeU3KtpFc5yenYpbJxw3ZeJryGAASKElggQSMX/UqhqI8+f0vJLSP46uiIJ0reLpkrwgB0ZE1gFlm3jeQYia99Tjf5XrY41sY+Es9JIEEAAhAYi8DGOqtXAzPusUelLzqw0FiOTTrJmx25wRzXp3/q3MMkjuxGg1v0auRzvl/PbS75keRuybjlo+zzLpCt6+SDEUsgAIG6Etg9uOHLbdmRZ2wXufl3N+5e4vh7ibm9qK4XvcV2+72+A/bsLxllRKi7HFTx/85T/6wtvn64DgEIBBLw009kY+Z447mkN8uQ1MO55ykPT77aQJLbyEcu16FqOxznwgFxfiip202/UzdPl+2rVQ2S/CEAgWYRuEzuRHYA/F4yh7SDjIh88h+GkVc/eCOkj0schKUOK0ByuFYpbFheSj1K49Eav5Ya5vrl+BtP0H2H5HkpIKETAhBoLwHPdPfM98iG720Z4NxeNpR98+/F8AHZcZLkvyWbSGbPgE1TTfBSVpe9AyV+DdXretTpmMuvX1N4mSoJAhCAQDgBPyVHN4qrh1s5mkK/838sgV8RnPwkerbEN6kPSNaX0CkY7fp2fr2M/thF8mPJVZKI65OLDocXZrh/vHLBWRCAwJAEvhfccHq2fJXBUjz07kAouTTkw9jhJ70LJQdLHH9gY8nCEtIzBLysdDuJ51p4aeYdkmHY1u037sh43grD/c9ce/6CQK0J5FqZPRvaUe8WD6T7Z+nyzmhlJ0+++6bkw2VnnDC/e6XbQ9mXT4j/7khTd1tcSD6uOCEv0ecqkrUlTe8Q3S4fHcnPI0MevSJBAAINIZDrRDBPUou8+ftynVHBNZtDef5M4lCtTUrzyRlfI8vk5Kdad9wcutifN018+u+bJ/72xDHP7cgtOYaC39UvIfFTvf9eTuJNdXzDzzXGvkxLkh6U1v+ZEM8XIUEAAg0jkGsHwEOq0clLlcpML1Rmjtzmd+ltSR5R8s3T0i/5tYI7AbdJ7pE4yI0/u//2/++fUOJPvz5xx8E7yjn5adSvdZw8V6ETBKn773n03fx9xDd13+gtTX+SN6dhkrn6ad9P/X76J0EAAhAojYBvIldLIt+RulHzjaCs9EpldGOwD5E80BVbvprA05NAD5AQQKqsVoJ8IACB5xB4TYIb58nPySXNAXdedpe4w9GEmwI+NP86eqjfS/r86oMEAQi0iECOrwDenYC/A66kTp4kdohkq9QZoR8CAQT8Xv8nkr0lfiVDggAEIFApAb+T9Szy6CfPNRJ7tbH0M+Qff92iywH6pk2bobL6SYkncpIgAAEIZEPg87IkupH2fIJUybP8HV74iQR2R3NAX3zZqhNTB3naRZLjqF+q+oleCECgJgR8M/Ws4+hG1UOcKZKH+mcksDfaf/TFl6m6MH1E5fMISZtWoqSo6+iEAAQSE/hgopvpusF2e7nYYYlsrcuNBTvz7lRcovLpYX6WNgZXftRBAALxBGaVyhmS6BuLdxOMSh463VXS1FCv0ezRF1+eBzF1rIQfSDaMKvDogQAEIFAGgY8pk0GN27jf7RFk/GbSc34iG8f1jfPSlJm6cfW7/fdJ5goq66iBAAQgUBqBeZVTiqdqT8wrGk7YT1N/kVR9U/BGLA4u5I7SKRImHVZ/TaosE77pu3O7rIQEAQhAoLYEPEkvRWN6XAEia+rcIxPZNaqv/5Adi3b54pgD75IcLXkoEztH9Yvfj1buuel3VQL+CwEI1JvAyjLfIUhT3Aw2HxGNo/htKflDInvG8dFP+1Ot1/bqCe+d8EPJtRnZPo6/nPNMXfAoz2mST0mWkZAgAAEINIaAb7hu4FI0+hdLr/UPk2bRj94p8b73KWwZV+dRsscb24yavIOdJyv+QpJiWeW4/nDe1OXLEfl+ItlR4g2MSBCAAAQaScATl1LdFKx7quQtXr8s8Ta1qewYV+++sun5UzkwxPfuBK0u8dwB70xIhyCva+3RL3eC95SsLRm206qfkiAAAQjUk4AnL3lb13FvkIPOu0V6+z05ezjdnQNP7PPWsoP0VPGdbwh+t58yeWLk6yWOYGgOKUIvV8GuDnl6+2IzN3uvLOlXTvUVCQIQgEDzCMwsl86UpGqw/bQ7OS2g/7xZ8htJqvkGEb746fwVXbaX8V/HYNhA8hGJNzM6V+IIchE+tV3HDHH0ZNKPSxyNz7EkSBCAAASyIFDFkKOH3T+byHvfRP0OfAWJQ/VuLXHDO1Oi/KLUukO0k+T6KIUF9fhGZYarSlaTrDLx93R9VlFmCrqT/HR3dLznhDtPk+Wu5DmTAQQgAIExCZTdmL9OdnrpWsT77V4u36iDvnl1L5vr9dscjvnG8S2J13Q/noNBU9gwj75ffkLc0ZosS+r/ZZenKcwN//oxabxG4giTV0zI5fr0BFK/0iJBAAIQqA2BMhvsl4rKGRLfREjTpt0jCO+WeLZ/E5JfJXhuhzsFL5K4E7ZE1+ci+n+ZZW5Urn71cZPEE0M9GuNPdyr9dO8b/QyJl+eRIAABCNSeQFmNsd/DnyXx0yNp2rRTBeEdkhktg+HRGXcC3DFYUOIokJ6Y6U8ve+v83fmcRcfcYey8wnG4W88hcXL8A3c6nHzj9mRGJ8/zcHCkyX87Tr47XJZ7e3x2bvqOSEmCAAQgAIEgAp7p7Bte2yeE2X/fpDzcn/uchKBLjxoIQAACEGgrAT+tHS/h5j9t2gXi4DX5JAhAAAIQgECjCXiin6PRtf3m77Xfn5F0hq4bfdFxDgIQgAAEIODZ7W2/+XtDomUoChCAAAQgAIG2ENhejrb55u8Z5N6ghwQBCEAAAhBoDQHP3PYNsI0dgAfk9+ckc7bmauMoBCAAAQhAYILAzvps283fQXy+J/ESNxIEIAABCECglQTaNPHvSV3hX0tWauWVxmkIQAACEIDAJAKOmtb0EQDf+N3RcYx8EgQgAAEIQAACItDkneQ81H+IZEWuNAQgAAEIQAACzybgaHdNGwG4Uz7tLXGMexIEIAABCEAAAj0IXKVjTekAeJe3XSUOZ0yCAAQgAAEIQGAAgcP1XZ07AN4s5gDJBgN85CsIQAACEIAABLoIvFn/r1sHwO/2T5R4CSNP+xRpCEAAAhCAwBgEHPP+GknunQDv6/4Xye4S1u+PcaE5BQIQgAAEINBNINdQwLfI0EMlftL3HvQkCEAAAhCAAASCCewvfVWPAtwvG34n+YRkNcnzgn1EHQQgAAEIQAACXQR8sy1zR8B/Kb/LJQdLdpOsLpmJqwIBCEAAAhCAwHMJlPFE7NcB/yNZ+rnZj3XE7+5vlvhm72V6l0z6fHAsjZwEAQhAAAIQaBmBMjoARjqrZFvJGyXrSRaVeLa9b9iege+n9/skvrnfJbm769O7C143ITdO/E4fJAhAAAIQgAAEIAABCEAAAhCAAAQgAAEIQAACEIAABCAAAQhAAAIQgAAEIAABCEAAAhCAAAQgAAEIQAACEIAABCAAAQhAAAIQgAAEIAABCEAAAhCAAAQgAAEIQAACEIAABCAAAQhAAAIQgAAEIAABCEAAAhCAAAQgAAEIQAACEIAABCAAAQhAAAIQgAAEIAABCEAAAhCAAAQgAAEIQAACEIAABCAAAQhAAAIQgAAEIAABCEAAAhCAAAQgAAEIQAACEIAABCAAAQhAAAIQgAAEIAABCEAAAhCAAAQgAAEIQAACEIAABCAAAQhAAAIQgAAEIAABCEAAAhCAAAQgAAEIQAACEIAABCAAAQhAAAIQgAAEIAABCEAAAhCAAAQgAAEIQAACEKgfgf8PNvVR3hfiTIsAAAAASUVORK5CYII=;" vertex="1" parent="1">
          <mxGeometry x="670" y="250" width="62" height="62" as="geometry" />
        </mxCell>
        <mxCell id="CRDmnUIXy0GdyubuIBd--20" value="" style="shape=image;verticalLabelPosition=bottom;labelBackgroundColor=default;verticalAlign=top;aspect=fixed;imageAspect=0;image=data:image/png,iVBORw0KGgoAAAANSUhEUgAAAgAAAAIACAYAAAD0eNT6AAAABHNCSVQICAgIfAhkiAAAIABJREFUeF7sfQmcXEW1flXd7p6Z7KsxkMxMd08mCYEQSABZ1LCoLMJTISiKoLjiAqj/5/406nN9ooKKG24gKgQQRRQVNbIoWyAJZp+eLWFNSDJZZum+t+r/1WRxMunuW3frZfrc3+PFuffUqVNf3b516tRZGKOLECAECAFCgBAgBAgBQoAQIAQIAUKAECAECAFCgBAgBAgBQoAQIAQIAUKAECAECAFCgBAgBAgBQoAQIAQIAUKAECAECAFCgBAgBAgBQoAQIAQIAUKAECAECAFCgBAgBAgBQoAQIAQIAUKAECAECAFCgBAgBAgBQoAQIAQIAUKAECAECAFCgBAgBAgBQoAQIAQIAUKAECAECAFCgBAgBAgBQoAQIAQIAUKAECAECAFCgBAgBAgBQoAQIAQIAUKAECAECAFCgBAgBAgBQoAQIAQIAUKAECAECAFCgBAgBAgBQoAQIAQIAUKAECAECAFCgBAgBAgBQoAQIAQIAUKAECAECAFCgBAgBAgBQoAQIAQIAUKAECAECAFCgBAgBAgBQoAQIAQIAUKAECAECAFCgBAgBAgBQoAQIAQIAUKAECAECAFCgBAgBAgBQoAQIAQIAUKAECAECAFCgBAgBAgBQoAQIAQIAUKAECAECAFCgBAgBAgBQoAQIAQIAUKAECAECAFCgBAgBAgBQoAQIAQIAUKAECAECAFCgBAgBAgBQoAQIAQIAUKAECAECAFCgBAgBAgBQoAQIAQIAUKAECAECAFCgBAgBAgBQoAQIAQIAUKAECAECAFCgBAgBAgBQoAQIAQIAUKAECAECAFCgBAgBAgBQoAQIAQIAUKAECAECAFCgBAgBAgBQoAQIAQIAUKAECAECAFCgBAgBAgBQoAQIAQIAUKAECAECAFCoJoQ4NUkLMlKCNQKAkuWLEmsXbt2km3b41VOjWM2Gy9ZbiKz2Dgh5XhmWeOUjX8FG8+UGCeZM54xa6LGR3AVU0qNPYCV4nwMUyqu/+acH/JsKJ54tgvtnMF7nOe4UnsOPMez3VJxmzFH4d5OwawexmUPk2wXj4keyVgP+tjFHNYjWHwni+HfhOixLGtXfX39iytWrMgN7Yv+NyFACJQfAVIAyj8HJEENIbB48eL6ZzOZSTbn07llHaEcMd2KqSMcpaZjYT9CMms6Y/IIQPIS/GeNGGg46+eKPaOYeJYLhX/Zs8pRzwCDZy3HeiaWkM8mxox5euXKlTtHzJhpIIRAhSNACkCFTxCJV10I6J376tWrk7n+/jQ24mkWU2nhOGnFeIox1Yh/x1TXiEorrbY0wJKwWQqesRyVkRb+lTIjGhoyxxxzTOeyZcuypZWIeiMERi4CpACM3LmlkUWEgF7kV61aNVf252ZJhgWeK73Ap2E2T2PxmoluRURd1zpbh3G2GUceGSZURkBBYDGRsZXatGjRovWkHNT660Hj94oAKQBeESP6mkJg9syZRyjecJQtsvOEUgsVs47C2fc8plh9TQFR4YPlTME/gXfj37U4VlghbbUmkbDWrm1rWwfR4aJAFyFACAxHgBSA4YjQ3zWJQCqVGo8z+AWC86PhBTcfDnDHYEGZB6e4cTUJyEgZNOdwTuT/hsL2b86d1TyR+DfmdGVbW9uukTJEGgch4BcBUgD8IkftqhkB66iWljkDjlqIzeFCJvmp+Pc4DIhM99U8qx5kx4evHT4ZD0nOVzAhVkycOPERilTwACCRjggESAEYEdNIgyiGwLx581460Nt7Anb3C5XjLJRML/hsMGSOLkJAI4Cjgz043lkF34IV3GEPOha7v6Oj43lChxAYyQiQAjCSZ7dGxzZnzpzWbDZ7Bpfylfi0nwzHvKYahYKGHQABhCp2WJz9S0rrH/Ai+FtmS6YtADtqSghUHAKkAFTclJBAXhEY3OHv7n25sthZOOt9DS34XhEkeiMEOHsOYYoPIHfDfYnRiT+tW7euy6gdERECFYoAKQAVOjEkVmEEWltbp8hc7mSY9E91HCz6TB4PanqXC0NGTyJAQPsRKMHvw5HBfbFRdX9bv379ixF0QywJgcgQoI9mZNAS4xARsOClfzJe1vOFVK+RSs0Hb3p3QwSYWAVGAP6EbJWQ7E/IC/G79V1dj4AjhR8GhpUYRIkAfUSjRJd4+0Zg4cKFo3q2bz8T57CvhUn/Apj2X+qbGTUkBEqMAD6sL6Iow9+Q+vj33OJ3UdhhiSeAujNCgBQAI5iIqBQIYJffyG1+tuD2+YqLVyFeu64U/VIfhECkCKAOApTYB1GUCcqAdWcmk9kcaX/EnBAwRIAUAEOgiCwaBOa2tByfzeVeL7g4H6b9Y6PphbgSApWDAI4KnhRC3K0s6zebNm1aWTmSkSS1hgApALU24xUw3llNTXOxE3qjI9WbsDOaXQEikQiEQHkQ4KzTEuJWFov9bOPGjevLIwT1WqsIkAJQqzNf4nEjNr8ZsflvsrDo007fE/h9+JHuwK5xFzIW7pJc7uJC7JD436hJsCsmxC7mOLuQzW6XdFgPEtjsjDtxuE4gz53I7pZSIkc+UhzW1Tn1AwMH09/KsWN7d+/ePaCfjR07tk7s3j3qgFT9dXXj5MDAYCli7FRjXCbG6v+ds3LcctgEYbHxTMpxzLLGKVuOR/7EcShnPA5yTkCD8fDXGAfFTqdQnoD/Gg7wpX+LI6AtA5xbv4rVJ26jEMPiWNHTcBAgBSAcHIlLHgSw6E/O9eYuZFxdBofoU0BC79sBnHAuzBV7Bk5iz3Kh8C97VjnqGVhGnrUc65lYQj7rDAzs2LB587NoMrigV+M1Y8aMholCTN8bix2BYkoTEUM/3YqpI6AwTEfthSMks6bj3TgCY3sJ/htUOujSCIgVisub6xoatDKg3wG6CIHQEaAPcuiQ1jbD+dOmje4bM2YJUu5ephRDJr4aza/P2U4s8O0oF9wes6yMY/N2i1ntday//cLu7u6ljA3uzOnahwCiPuI9L7zQ6MRiKSTbSXPHSQlmpbAIplBqOQWLwvgaxQq1qdTfLRW/qVf2375ly5a+GsWBhh0BAqQARABqLbJMNzaisI54Jxf8zTVUQa8XY17HlHzKiomNjpTt2OFmsirbjg/19lp8D6Ias7YmyaxMMe6kmW2npBCzmVRHwzQyF33WxjEDlEqlxC1WwrqRnAejetNqiy8pALU136GOVpfQRdjeG1Fm9T34EOtsfCPyGlZrfo2j+No6i69ArXnttIUdGl3lRGD2zJlHwHKwUDrqKCThmYeiPkdxDuVgBIeR4sO9Vip2U1baPyJls5xvX3X3TQpAdc9fOaTnyZnJ0ywh3wXT7EUQYETtvnRVOKnEE5zLRxCm9SQWkTWLFi1av2zZsmw5wKY+/SHQ0tJSh6OEuTiKmscUP04xeSIsBrBSsYPOjv44V1YrKN57cdS0LMbkjRu6ux+qLOlImkpHgBSASp+hCpGvsbFxYtyKvwPm7neOoNA9h3G+hiv5KLzdH8kx9ihKwK4B5LSrr5D3LkwxljIWu2XWrKPlgDxRCOckRKOcCL9UfYQwIpwPB60ClvgRxvPT9vb2njCxI14jEwFSAEbmvIY2qsHSugPZqxH2dTleltGhMS4HI1Rzw47+QS5ij4iYeLRh164Vq59/fm85RKE+KwOB2bNnj4XD4UIna58oBTsJCsGpUHCnVYZ0/qSA5WO34uyn3Lavb9u8OeOPC7WqBQRIAaiFWfYxRpzvn4awrauUVG9A86rcIeFDuBW7+0dwZv8gZ/K+THf3ExhL1YbU+ZhGauIDgWMaG1O9LH4Wt+RZUHxPx1HXFB9sKqEJihGpvyFvxPVtHR2/p3e/EqaksmQgBaCy5qOs0ixZsiTxxONPIDuf/Ah2QbriXlVdgzsfLPhKoUTrvgX/SQyAKrJV1SxWnrCHKgTqDGiQkytPyuISwSKwkkvrewNy4GYKJSyOVS09JQWglma7wFiTyeS0OOdXIjXvlVj4dUKWqriw4Gex4N+P5Dl/ELHY35BK9SkITgt+Vcxe1QopUL9iQdZRZzDpnIN38OU4VopXzWhwDCa4dYOy+PdRoXBr1chNgkaCACkAkcBaHUznzp3bZPf1fQwmziuqJmSK8+cFU39Aytl7RDz+5w0bNuyuDrRJypGIgA6FFbZ6NQ7JULaanYPf0dSqGOdgJkp1I7PjX217um1LVchMQoaOACkAoUNa+Qz1wp/t7/8wdvvvxkervtIl1t7NwhJ3I3Xe7+Hd/E/IS7v8Sp+02pRPICEWQg7FWRzVLash/bW2ouHI71blxD6f2ZJpq81pq91RkwJQQ3OvPfpzvQOfRIz7W7Drj1Xq0PFRyimm7mPS+k1MZe9BPvxnKlVWkosQKIRAy5EtM3jcPs+R/A2CS/gOVPZvDjkwbkbehC9R5EChGR1590kBGHlzetiIWmbOTKtY7KNcyisq+COE2HvxMHK/LxszbtyvVq9e/cJhA6EbhECVIoCiSJPq4nWvFdJeorh4TQX7DUik874Dx2ufofLEVfqyeRCbFAAPYFUbaWpG6hgRV59GKJ/O2CcqUH6dcOcfgrPbeCJxBz442ypQRhKJEAgVAe10a0mJKpniYigCL6/Y3yZ+l3Wx2BeR8lonx6JrBCJACsAInFSY+pudvuz/SiYvqcCPi4SJ/wGcO97mCHEHMu89PwKngIZECBghAH+c6dm92YtQMvuNFeozgIKW/GYV45+B/0230aCIqGoQIAWgaqbKXVBtZhyVSHwUVemurjTnPpwvbhGWdUudbf/wqe7udvfREAUhUFsIaJ8BadlvYZy9Bx/mZCWNfjDklrOfIeT20xQ+WEkzE0wWUgCC4VcRrXUCnxWPPXYlJnMpFv4JFSEUhMBHYwAfs9/hf96MTGR/wL+UY79SJofkqGQERGtj6xmSD1wGn50LIWglFTDaoRT7amOq+brly5f3VzKIJJs7AqQAuGNUyRSipTF5oRLqa1j4mytFULxUg6VKY/WJH9O5fqXMCslRjQgsWLBgwu7tuy+utJLb2qKnVOwLme7Mj4ErKfbV+HJBZlIAqnTikIDkPBQx+Qqm8OiKGAJnO7Hlv8mKx3+CRX9VRchEQhACIwgBZCA8fiAnrxBcvRXOg+MqYWiC81UWUx9b39n5p0qQh2TwhgApAN7wKjt1S2PjUQgj+jYEOaPswkCAwd2+Jb49Zu/em6myXiXMCMkw0hHQFQztbPZyWP0+iGRerZUwXq74n2Kj6q5av379xkqQh2QwQ4AUADOcyk61cOHCUbt37PiolOrjFZC2l6qMlf2NIAEIAcbhK3CmtHLvroSqnYMJvDj73sw9TZ9avnX5HpqfykeAFIDKnyPWkkyeD8eb70DbbyynuPiB78IP/Ncw83+TkoSUcyaob0LgUATSM9ItVkK9ExFA7ym3IzAWlaeVsD6Z6cjcRPNU2QiQAlDB89Pa2jrHGbC/g/jgM8sqJucbuJLXz+hN3kSafVlngjonBIoi0NLSMk7a9tsFjgdQtjhdlDjih5yze6UQVyF/wKaIuyL2PhEgBcAncFE2qxhzP+erka3sWmjyt2C85Okb5aQTb0IgXAQELIfnKck/iw3EwnBZm3OjYwFzrMpBSQpAOVAv0uesVOpCZatvKq5mFiGL+JF4SDHnS+1dXX9ER9hI0EUIEAJVigCf3dx8gZT8k5KrE8s2Bs67YkxdvaGz87dlk4E6PgwBUgAOg6Q8N+bPn/+SPT093+WM67z9ZbrEQ1yoryJpz91lEoC6JQQIgYgQQOjwaZbjfEwy/tqIunBli0JDy5hlvZ+yCbpCVRICUgBKAnPxTpDMZwnj8gZk/ZpSnDKSp0owdY+Kx7+IH+XDkfRATAkBQqBiEEin06cI2/4EFIHzIFQ51oAdTFkfRxKhH1YMKDUqSDkmv0ahPnzYuhBIbm//92Du/6/Dn0Z/B7G7v3Us9hkU5FkdfW/UAyFACFQSAi1NTccpZn0BPgJaESj5JZi4wxbq/VQQrOTQH+yQFIAyYb9v16++hwP2yaUWAZP+T56If2LTpk33l7pv6o8QIAQqC4E5TU0n21x8GflFXllyyXQGUWl9jKwBJUd+sENSAEqM+7x58146sHfv9xDX/7oSd60new1Ke36urbtjWan7pv4IAUKgshFAUqGzbJH9P67YgpJLytkfxtj2u1dt2fJ0yfuu4Q5JASjh5Lc2N1+OWLpvlTpRBwp3tIlY7H82ZjK3YbjI4kcXIUAIEAJ5ERDpZPpSppzPlbrAmGBsu8PUBxF99Mu8ktHN0BEgBSB0SA9nqHN3y/7c9ySTbzn8aXR3EIO7FamDrxWJ2Lfg4DcQXU/EmRAgBEYSAshFEt+5defbmRhUBF5ayrHpSIEx48e/e+XKlTtL2W8t9kUKQMSznkwmT7Sk+hXO+lMRd/Uf9pz1I23w1ydMmfLlFStW9JasX+qIECAERhQCg4WHcrlPc6mugY9AomSDUxzZA51LMt3dK0rWZw12RApAdJPOU83NVwnGv1bKHw5C+n5fr9TVT3V3t0c3NOJMCBACtYSArjXALPWtUkYM4OjSFpb1xY3t7Z8H1nR0GcELRwpABKAiH/dUZds/g+ns3AjY52cJjVlxeQ3Oz/6Qn4DuEgKEACEQDAHtKChF9no4Mc8NxslLa3VfYtSoy9atW/esl1ZE644A/C7oChOBVGPjmSpnryrV4o+jhb2WJT7HE9YxtPiHOZPEixAgBIYjsLF7433jJ08+FlVBr4GP0e7hz6P5m5+V7etf2drUdE40/GuXq1W7Qw935NppZlQi8RXOxffBeWy43PNyw29Q/QKa8QUbNm36/fbtcKClixAgBAiBiBF49tln5Y6dOx+ZNHrKzcySR6C7oyPuUrMfjUypl0wdP6Hhgz07/7GcjgRCgZyOAEKAcTCP/87dyzhXrwiBnTsLlOeVDntXx+aOB9yJiYIQIAQIgegQmJ1On+HYzg9LVX4YZYaXs1jsYqonEHxOyQIQEEOdTjObzf0Vu/FjA7Jyba6dYpgQ35kwedLFa9evzbg2IAJCgBAgBCJG4MUdOzpGjR3zo7p4LAaH55PRXdRHy81cOpdMmTztwRd3vPhMxMMb0ezJAhBgeltSqbcoR/4ILBoCsDFryvlq5fB3tG9uf9ysAVERAoQAIVBaBGbNmrVAZXM/hjXg+Mh7RrizEuJ97e3tP428rxHaQdSa2oiEbSljsdZU6itY/H+BAUa7+OMl105+x5+w6ARa/Efk60SDIgRGDAKoL7Ly0q7OkxAl8HE4CUabfEyxeu7In6STyR9oH6wRA2IJB0IWAI9gt7a2TnEGsrei2Rkem/ogFw9ZdbF3bty4cb2PxtSEECAECIGyIaBzB/CYvLEURYaU4vcri11MlQW9TTcpAB7wSs1MLRJc3YnyvTM9NPNMqkP7kNDno21dXd9DY/xJFyFACBACVYmASKVSV2Gn/iVIH7W1tJMr9QZ8N5+sSqTKIDQpAIag4yW+hEv5EyzH9YZNfJFhQp6w6uvevAGXLwbUiBAgBAiBCkPgqJaWeQO280ukKJ8fsWi9whKXbWpvvyPifkYEe4oCMJhGpPS9GrmwfwDSKM+ZFBP828efcMIb77///hcMxCISQoAQIASqAoGt27dvnTxlyk8tzuI4EjgFQke1+dT8l0wcP6F/R8/Oh6oCnDIKGdUklHFIoXZtpZpS13Em3x8q1+HMOH+eWeJtmUzm3uGP6G9CgBAgBEYSAoPphHn25zjb1EmEorsEvz7T0fEhdEB1BAqgTApAAWCQz7+OOc5NSqqLC5CEc5uz38Tr69+1fv36F8NhSFwIAUKAEKhsBHS9FHxfb8T39YJIJcX3dcC237Jly5a+SPupUuakAOSZuBkzZkyqs6zfwkp1Wp7HYd3qQy7fT7R3dl4XFkPiQwgQAoRANSGQTqYvU9K5AQvR6KjkRubAh0UicT6iqbZF1Ue18iUFYNjMtcycmVY89kfG1ayoJhWgrxV1iQspvC8qhIkvIUAIVAsC+x0E74CD4OyoZIYSsC5WX38uLK2dUfVRjXwpEdCQWWtNtZ6grNhDkS7+iv9WWuIUWvyr8edCMhMChEDYCKxta1sTq0ucoJi6PWzeB/jp8sW5/v5/pRsbF0bVRzXyJQvA/lnTBS1ytvO7qExROo8/nF4+nunq+ga6pNj+avy1kMyEACEQJQIc4dYfQ86A/0UnkUSo6RLGPB57LTIW3h/lQKqFNykAmKl0On02s5078T8jSVSBxX+bUHWX6Fra1fJikJyEACFACJQDgZbm5lei9O+tOBKYFlH/vVLw1yFr4F8i4l81bGv+CCDV1HQuvFF/gxmLZPHHZv/x+KhRi2jxr5rfBAlKCBACZUSgrbPzHzxnLdLOexGJMcpS7O7ZM1uijUCISPgw2da0AtCSTJ4vuLgzsux+gv/w+BNPPHXdunVdYU4a8SIECAFCYCQj0PZ02xYWiy1GcrTroxgnkgXVOZazDNbf10XBv1p41uwRgE7tK3ScP+OxsCcL50w5wdn7NnZ03Bg2b+JHCBAChEAtIdDS1PQ+fKe1IhC6X4D+VnPBL6nV1ME1qQDA7P9mmD6QiSqSxX+3VPJN7V1df6ilHymNlRAgBAiBqBBA4qBXw09rGXbu4yLow2HCuiLTkbkpAt4VzTJ0jaqiRwvh0o3pd3GufoIkP6GPHdrU0zwRf1Wmvf2BSseB5CMECAFCoFoQ2L59e2bCmEn34Kt9HmQeH7LcKL6qLpg4edLmHTt2rAyZd0WzqykfgNZk8p2MO7qoTwTjFivioxpOQHhJTb1AFf12k3CEACEwYhBo39L+FJwDTxWcr4pgUBbCD2/UmQkj4F2xLCNYCCtzrNrZQ0r5PUgX+rEHvFXvjdXHT4ez37OVOXqSihAgBAiB6kdAOwceubfpNGzZfx/BaASTzk9aGpMXRcC7IlmGvhhW4ihTjY1nCmHdoz0/Q5cPnv5v7eh4/1LG7NB5E0NCgBAgBAiBfAhEVqkVjoFZFrPOb2tr+3O+jkfSvRGvAMxpajo5y/hfMNCwi00obomPtLW3f3MkvRA0FkKAECAEqgWB1lTqE44jvxS2vDpjoBDxMze2b3wsbN6VxG9EKwBz03OPtu2+f6AY9KSQQXcswd9LYX4ho0rsCAFCgBDwiABCut+L8/vvolmoR9pYHF9kSr6irbt7rUeRqoZ8xCoAg1X9hKW98aeHPBs1GzISMo7EjhAgBAiBUBCIKrRbR3aNqq97+eoNGzpCEbTCmIxIBWD2zJlH5IT1IAaXDBNvfTYkEOO/satLpw6mixAgBAgBQqBCENCpfZHd77awfb2wjmTqxow+bc2aNc9VyFBDEyNUk0loUgVgtGDBggm2EH8Ke/FH+b69QsbPo8U/wORQU0KAECAEIkJgw+a236HIz4Vg3xdmF/j2p7N7e+9FMqIokhCFKapnXiNNAbB279x5CyL9jvaMRLEGnPfElXwNFfQpBhI9IwQIAUKgvAi0t7ffIxLxs2Gt3RWmJFKpY5lt3wqeoSeQC1NOr7xG1GBSydR3uFJv9gpCMXpdyjcRj71qfUfHo8Xo6BkhQAgQAoRA+RFA1sCuSVOmLIcDn47nrw9RopYp4yeM296z808h8iwrqxGjACDF7wc5k58JFU3s/JUUr9nUmVkRKl9iRggQAoQAIRAZAlACtkyZMGE54/yN6CS0/C+Ks5chZfDzSBn8eGTCl5DxiHACHCwUkcvdE3Jxn14p+dkdmzsor38JX0jqihAgBAiBsBCY3dh4Ksr9aZ+w0PLA6AqCUjrntHd3/zUsOcvFp+p9AFpbW+conM2EufjvzwR1IS3+5XotqV9CgBAgBIIjsKG7+yERj70B3/SB4Nz2cUCUQdzi4rY5c+a0hsWzXHyq2gKACZhs9/U9jMW/JSwAtXaHagEXtnV03B0WT+JDCBAChAAhUD4EWpuaXo+EcLeFulFkrF3UJU7auHHjtvKNLFjPVWsBWLhwYdzu7789zMUfUEqEkVxOi3+wl4paEwKEACFQSQjo8G2h4lfob3xYciE8MGX35+5YsmRJIiyepeZTtU6Ao+INNzCmwqzapLjg7850dNxU6kmg/ggBQoAQIASiReDFnu2rJ08Yj906Pxc9hWL9RiXYpmefe24cnALvjVb6aLhXpQKA3M+XcCW/HCYkg4V9OjqgVNBFCBAChAAhMBIR2N7T89jUyZOyOMc/M7TxKXXS1AnjV7/Y07M+NJ4lYhSKFlQiWQe7weI/S0j1OCYwvKxMlrgu095+TSnHQX0RAoQAIUAIlAeBWc3NN0jFrgytd852jpJy4VPd3e2h8SwBo6ryAVi8eHG9kPLWUBd/zv6Axf8jJcCauiAECAFCgBCoAATe0tl5lRD8L6GJotiEXs5vRUh6aDkHQpOtCKOqUgC2dHR8Wyl2XJHxeHqE85snZ+5t1okiHE8NiZgQIAQIAUKgahFYypitLOsiJApaHd4g+CLko/l6ePyi51Q1RwCt6fSbHNv5VViQYODPqJj1skwmszksnsSHECAECAFCoHoQmDt3blMWoeRMsZeGJbVi6i3tXV2/DItflHyqQgHQCRfs/gF97j82DDAQ67+bx2Ov2LRp08ow+BEPQoAQIAQIgepEIN3YuBAhYP8IK1ugXl+susQJG3BVOiIVfwSAeP9Rub6+O0Jb/JmyhZJvpMW/0l9Nko8QIAQIgegRyHR3o9aLugw9hZIjQK9VzsDAr7TPWvTSB+uh4sMAxyQS1yLZz/nBhjmktYpd09bdgZLBdBEChAAhQAgQAozt6OlZhyI/WVSTPSskPKbv2bmjHmGH4TkahiTYUDYVfQSQbmo6HfkadMGFcOTk7NeZzs5LIsCRWBIChAAhQAhUNwJ8VlNqmWTywpCGIVFQbnEl15Sp2COA+dOmjeaM/wgTEdLizzfE6ureHdLEEhtCgBAgBAiBkYWAEvXxtwvOwkroIyyhfqbXskqFqWL7p5yWAAAgAElEQVQVgL11DV9HruV0GMBxpvZw6bwBPhm7w+BHPAgBQoAQIARGHgJ6jXBscTFG1hvG6HS9gD0NDV8Ig1cUPCpSAZidTp+Bff97QhuwEle2dXevDY0fMSIECAFCgBAYkQi0b2l/CqnhQ7MWc8WunjVr1isqEayKUwC0uQTx/uGZ/gW/Hk5/v6hE8EkmQoAQIAQIgcpDoK29/RbFxI9Dkkw42dzPFk9dPCYkfqGxqTgFoLe+/pvabBLGCBXnjxy/aNF/h8GLeBAChAAhQAjUDgKNycYPMCYQIhj8giNbcvOYri8G5xQuh3Ac7EKSCXmUX61yti6rGFguMHgRmf6Oo0x/IU0OsSEECAFCoMYQOKaxMdUrrCeYUuNDGLpE+vkz2jo7/xECr1BYVIwFYMaMGQ0yZ38fowq8+GtkLBF7Hy3+obwjxIQQIAQIgZpEQFf3gyt/WJViBRSJGyupYFDFKAAJEfuoNpOE8ZYJJm7Z0NF2Wxi8iAchQAgQAoRA7SKwKZP5GfL73x4GAkhq1yKzdlgKRWCRQtltB5UilUo1MkeuhTCB4yXB45l+xz5my5Yt24PKRe0JAUKAECAECIHW1tYpcOT7N3bw04KiocPSRzvOnFVbtjwdlFfQ9hVhAeBSfiuMxR9gKNhY3kmLf9DXgtoTAoQAIUAIHEBg48aN22JMhRKaDivAmN5Y7GuVgG7ZFYBUY+OZKMX4+jDAUEJ8b2NX1x/D4EU8CAFCgBAgBAiBAwhs6Oz8LRf8pjAQkYq9eU5Ly+IweAXhUVYFYCljMZRO/FaQARxoCwtCe+Oexo+FwYt4EAKEACFACBACwxGAG/9VjPPu4ff9/G3n7O+g2m3cT9uw2pS1GuDmZPrDOFO5NITB6KILr1v57Mq2EHgRC0KAECAECAFC4DAEduzYMfCSyZNXSzlYPjioD91L+vdmt+7o2fHoYR2V6EbQAfgWM5lMThOKbQglvhLZ/jIdHVf7FoYaEgKEACFACBAChgjMam7+Mcz4VxiSFySDBXxX3ehRs9esWfNcQaIIH5TtCCCm1JdDWfw5ew4Z/z4TIUbEmhAgBAgBQoAQOIgATyQ+hsUzcKSZUmpc/+6+peWCtiwKwJw5c1ox8LeGMWgu+X+3t7f3hMGLeBAChAAhQAgQAm4I6KgAHAB80o3O5DkX6oqWmTNDqXxr0t9QmrIoAHbvwOcRChHzKuzh9OpBFPq55fD7dIcQIAQIAUKAEIgOgU2dnT9Cat+Hg/aAzXCcxWJlsWKXXAFIzUgdo7haEhQ0JFOwpRDvBx/UDqKLECAECAFCgBAoKQJSSYmCQcwJ2quS6i2zmprmBuXjtX3JFQARV/8LIYP3K2LXdXR0rPY6YKInBAgBQoAQIATCQCDT3b1CcPbDEHhZyGPzuRD4eGIRfCH20F1qZmoRNJ3zPTTJTwrHP8nVF/I/pLuEACFACBAChEBpEHCE+AR6ejZob1gbL2ppajouKB8v7UuqAFgx9SUIFzj0EJrSh8nxz8s0Ey0hQAgQAoRAFAjotUhZ4lMh8IZLAft8CHyMWQRejE17QsGf07gjHzClL0wnVmS62k/Aczr7LwwSPSEECAFCgBAoHQJiVnPyCanUsUG7jDN1yvqurn8F5WPSvmQWAK4Gd/+BrziXWtOixT8wksSAECAECAFCICQEpLTE0jB45UpoBSiJBSCs3b9S/P727o5XhgEy8SAECAFCgBAgBMJEoKW5+Z9KsZOD8pSCnwQn98hTBJfEAoByvx8KCohun+Dy42HwIR6EACFACBAChEDYCPB4PJQ1KiZRdKgEV+QWAGT9a8719esiPYEKD8E74q62zs5QygaXAFfqghAgBAgBQqAGEZiVTP4ZxYJeFWToqBGQg2NhOpPJbA7Cx61t5BaAXDZ7DYQItPijvRSJxFK3wdBzQoAQIAQIAUKgnAhIx9FhgYH81HR2QCvnvC/qcUSqAMyePXssk+ptgQeh+M3IvbwqMB9iQAgQAoQAIUAIRIjAYHIgJu4M2oXD2XsWT108JiifYu0jVQBUf/+7glb80yl/RzGnpLGRxQCjZ4QAIUAIEAKEQDEE4nHxWTwPZAVA+4nPjOm6vFg/QZ9FqQBYNuM6T3KgC6V+b3+qu7s9EBNqTAgQAoQAIUAIlAiBtW1tawRT9wTtznHY1eAR2TodGePZyZYL4WGYDAoABPxWUB7UnhAgBAgBQoAQKCUCVjx+beD+uJo1e2bLawPzKcAgMgXAljJwGIOO+0fJxUcKyE63CQFCgBAgBAiBikRgfVvbcpwCPB5UOFvY2goQyRWJAoDEP7PguH9KUImFxb4elAe1JwQIAUKAECAEyoIA52GsYacf09iYikL+SBQAofjbIGywHAOcb2jr6Ah8hhIFaMSTECAECAFCgBBwQyDT2Xk7FsKMG53Lc76XiUtdaHw9jkIBEMyRb/UlzdBGUujzExmYDzEgBAgBQoAQIATKg4AjOft24K45ext4BNtU5xEidAWgtbH1DMXVzDx9md/i/IUBOfAL8wZESQgQAoQAIUAIVB4CY/r6bsTK/WIQybRDPY7WTw3CI1/b0BUAmw8Ej1tU8gdbtmzpyycw3SMECAFCgBAgBKoFgdXPP78X+Wx+GlheZ9AKEOoVqgKgsxaB4esCSqhQPOjnAXlQc0KAECAECAFCoCIQEPX1NwYVRHC1ZOHChaOC8hnaPlQFYMuojosV40FTF/69bfPmoE4TYWJEvAgBQoAQIAQIAd8IbMCFpHaBQtpRH2Dcjm3bgm6wDxlDqAqAVCKw+Z8rHtxU4nuaqCEhQAgQAoQAIRA+AlYYxwAhrLFDRxaaAjB37twmztXLA8HGec/4qZMCF1EIJAM1JgQIAUKAECAEQkbAEeLXYBnItw1r7JlYa6eHJVpoCoDT23shhAoWpsDZrStWrOgNa3DEhxAgBAgBQoAQqAQE2tvbe0KoEmjlentfH9Z4wlMAGAssFLcsMv+HNbPEhxAgBAgBQqCiEHCUHXiNQ4nBwGvtAVCC7dj3c0kmk9OEVE/jT8s32sj8l+nsmOO7PTUkBAgBQoAQIAQqGwHe0tTchkU85VdMhBTaoq5u+saNG7f55XGgXSgWgJhS2jPR/+KPxkrwnwUdDLUnBAgBQoAQIAQqGAGlmPplEPkQaRdj2ex5QXgcaBuKAsCUClyuMB6P/yaMAREPQoAQIAQIAUKgYhFQ6q6gstkhrLlahsBHAC0tLXUsl9sWKP5f8U2Z7o7WoKBQe0KAECAECAFCoMIR4C2Nya4gKfM557vGT540BU7zuSBjjQVprNs6jvMKETT5T4zT7t9gIlpTqa9IpYqeHeHFuHVTe/sdBuxMSES6ufkW8Cx6vOPY7NsdmzseMGE4Qmms9Ix0UsZl0nLYNBbjU5XjTOdCTMN4G1DRqh7ZLRtwSqYV7glI6LGXc5nVWOAscCfMcDuZiL3AuNqmpHxGOSKTVdl2pMPePkLxqvlh6ZLp+FHN547T5FhWI6yoDfhvLJM8i8PUAXiLb+VMduL3vmlUX9/jOp1szYM2cgBQkvPf4Sz//X6HpJMCbX9h+8vQPtB3N7ACwJU6x+8gDrbj/LeBeYx8BpbtyA9gBRldbKiCyV8Ve+7l2VEtLXMHcvab8LIVbRZvSHyxKMEIejhjxoxJiUTiZHy4X8Y4P4orNgf/tijlJARWeqWXeEfjhZ+33IfbPjOb/v/7ilvywRv/uTtIJZ2DKHEwqmMxlm5q3gHaVYxbK6S0nxBSPjLSs2TOmTOnOd7b6+losjcez2Uymc0HAazA/zF/2rTR/WPGnC+lfD2T6kzlyMn73wa8L0OKnuKF0q+JZP95H/bWNzjpZPIJZJK7c0w8fuvqDRs6KnCIJiJZqGvfZEI4lMYePbpv3bp1z3ptV8n0Sqjfcsl8KwB6bMgJoNfe8ioAQrFXF18eXKYBlf/w4w2UItGlhxHxODUjdRR2BEUXfz1QJxZ7PKwB27a9yJUXZ/1jx45d60pXpQS6vkX3qI5XY0U6Gz+5U/Guz8UHG6s3/g9/DL77LgpSgKFPBOvFTDmLuVYohMXSzckuLCB/5zFx35hx4+5ZuXLlzgD8K66p3T+wKsfFOC+CcdtpB33aS5tS0R47Y8aRu+OJD+9V8gpmOxN89mthzk/AG3DCXmfgizAf3y1i8S9ubN/4mE9+ZWkG5W5Cb1+/9zTvvQN/hcBnlUXoiDqdNGnS8p0vvrgTHxC/7wQTQn+T2CeDiBjIAjB//vyX7O3ZdVQQAZTid6P9f9TdIMxGctsEW+SGEkz1W9tC3Alh57/QzU0Ey+CTQc+hKm3aWltbp0D5WYId9wVbWNfpSE9dF0jJDXOASjVBF3gbdpBv27OzJ4sjmr9i3u+ASfF2nWgkzK6Il38EYClqGJVIfHyPI/8fjn/CLOAicHb8X46TvSDV1HRLrK7uQ2GEg/kfKbX0g4D+ZuK3+0e0vcRPe90Gm4NjoVRNXr9+ve9Sw55MbcMF3btr1+m4t8+WOfyh4d8CphBD0tomcxgW4+IXlKlHi1N4ewqTo6sFAEdAoVkcvEkXOrVobWw9q6Wp6SZnINvNHXkDfmBnQwmqC72nkBhCtgR2EOfgqOFGLDLPtSSTt+kxhMSe2PhEAO/QcfVW7HHHkZ8BizAX/6ES4XSIX4p3dTXNuc+JKn+zoGufyOVygdLvB1IAcFC1OCCGfeMnTdLmHbrcEODKdTG2LBbmYmxpDdNVLM5XuNFU8nO9U0s3pj8IbTzj8OxfEM3yVsgLh70quxSrhyKwRI8B58WPtjY16WxhwX7fVQZBJYgL8/xFeIcegsUokGXUw1imY87vhVPhlR7aEGkFIMBjsT/CehfIix9mgMVBhhLsAyG4tgD4vqDCPky5/93hQw3oOHba890o4TEc2mKcTCbnoT/X3UssRJ8Dt/GF+Xz27NljZzU2f7QuFu9g3LkeO+nmMPmXlRfOix3G70TGsada0+k3QZZAVrqyjqWKOofS9WGY52+DyKVWIC1tsYIScE0VwVXzora1te2CIT/QNxsZeBcHAdK3AoD4/6nQPmYH6lyIQB6MQfquprY927YdbfJRidfXh2YBsKR0tThApt6L29o2VBOWkFVgx/8umE4zcOX7Kt5hHao3Ii+9C3Vs51ep5uS/0un0KSNykBUyKL34Qum6FuKUTdmCEvCN1ubmyysEEhLDAAEc4wVaA7Hpm79gwQL/joQGMuYn0WFQQS87FmjwQbuvlvZKxVwXY3x1ng4zVEYKy9XnANrrE0sZs6sFxzlNTSenm1KPYsf/Q/zwplaL3EHlhPXoJHigP6j9G3QYY1B+1P5QBKBcvU4vvhWACyLL+A9aU60nVIAsJIIBAsgVEnQN5L3be13Xh0Ki+I4C4EycpNzc0gv1ivu6oMERfUc8vJFtLEJFj/YhoL3xXS7FQ9v9654sRy3SwW7FLrgjh9pnsb6CPNMx2H0NDf+XU+y9iLB2GVWAnhDSCubrkACgGwrUVi6dZ5DgZysWhz7Bpc1U3W7NHbnA6xWzG5QlGixpT0HygKnYPU5nXKZ1TgEQvDSAFIWaIsKcv7UuFnsVFqwrEXobOB1poY5q6T4iRubIgYGbga2/94pzfADVE0KprQj/79fvAhesCV/IU/w4oOo2jp27ZfHixfOXL1/eX0tzUY1jzTrOg3Gd+COAv46yBjfj9/kZv28FAIlJTgpi7ZJcrFi+dfkeP0LXXBuOEECXi1si0FnSUPba5wAxqvP3BbkX7hgfvdD6LNxLsCezmptP2iv5zTD1zwrG6dDWUGC3IBD3n/juP4xoiUfgjbuuu6t7Rxh9aJPeru3bF1pMLFSCnQxnzFeC78QweA8qF7bzm3Rj6gc8Ia7GOeRAKHxrk4kls9mf4HcwxsvwcTSzF+/PDfGGhhsQwtWZr63OP/HM6M4LkUvqM6BP5aMpeI+rWZs7Oj6F5/9TkIYeVAQC3d3dO9JNTcijwvUxr79rcC32d/lVABCBIk4IkgBFcPGgP5Frq9WSJUsSTz72+NFuuWawwQxtN97b03MMFop6N6RFfTy0Pt368vGcz0qmP62k/RmYm/y+5we71d66CLO832LOH3h9/T0bcPmQyajJ/uQ+OjrmQISMBadMeILyc6Uj4WXOtINmsIvL96icsxBxxEsKLULBOhj5reFL8g5kgDzZ20jFQ3GZu3jD5s3PFGs3uDnayn6O3/+vVj7y2Fdht/Lk4Ael5EPw07oeCt7WYv3Qs/IjgARf9yOM17cCgM30iX5H4csJEHnP01j8x/vtVLezbH5/kPa10nbVilXHmpgC68ePD203ns26hxxiQdyNBCQVeX6jd08I67tDSufz+BAGW/wFf4wp6yqRiB+R6Wo/a2NX1zeiXPwLvNdOR0fHoxvb25e2dXUezZWcxyzxNVgfXihAb3ibL7L7+h7TVhLDBkS2HwGY2Os5tz3tsJFQ6tbjT1x4htviPxTkZcuWZTd1d36ICf5BL+DjPGI0Ell9wEsboi0PAjHBg/kBKPUSnXHSj/S+FACRUK7x4S7CKD469pALDT0GAjaz3c//Oe9evXp1wMVgCNyWdO9zX/jKkCTmlTFdyDWe2jym65+wYOg4eF8XlJsBwdlPpeDHZjo6Tsx0Z75dSdnW2rq712ba2z92/AmLZlox6xKcPj/pa6BoBAVpCkoX/BVZ5c71y6MW223u2nwxsJthPHb9kU9Yl+sF3bjNEEK8h9+BEnC9l7aOlJeB3p9vgpeOiDYQAg0DA8EUAPS+27J8rcm+FAC8Ua4x6cUQwflXJkj6wmK8R9oz4Tgmi3GopnguDSwAFZgBcNasWQv6hPUw8qYf4+c9wHu5hwvrSw5nTZs6O6/Arnu1Hz6laqMXk42ZzK/bOjuPt5g6F4rAv/z0Pbhb5OKu2cmWi/20r8U2sMJcYTxu1MuI19VdFtTf4vhFi/4bxz8dxv0it0W6sfF4Y3oiLAsCq7ZseRq/waJHQm6CxUqpACD2cIGbQEWfc/7vos/p4UEEkOPd1QEQKftCM//j3LAOpmXX8yhksQqtzzCmOzUztUhlc/f5Ce/Djj+L3dUP68aMmdXWkfkUFv7nw5CplDxwNPFHKAKncMEvgCf5Jq99A7e4o5xfzJ7ZcoHXtrVG39jYiCJN6jTTcWPR/l4YfhZa4RNM/a9pv4N0Vvx0T/REXBYEpAq2Jkrbn1XelwUAOyzXBaIYiigvv6bYc3q2DwF9zigYd3X4kvHwnPEcx9E+Bwm3OXAGQk077NZd0edzWloWC0v9DR/ayUUJ8z3k7A8N0pkLE+t71qxZ81w+kmq619bRcffxJy06WgjrM/oow4vsg0qA5VA9ARfQ4vH4K0FiuZAdfAwHr1tMad3orPr6ZYMKq+GFTHHBNmuG/RBZQASsYAoA4/7WZM8KgN4h4kPbFGS4iHMlC4ABgFu2bFmgP8oupArpeEPbjRtlAOS8J7Mlk3GRqySPddKTbM7+PXAa66VDHcaHePwLM52d5z3V3a3LyY6Ya9BxrCPzBTguLvB6LKAdTh2Ru31WU9PcEQNIyANB1LbxERPes22Z7u4nwhIBDqi7pWQPG/MLOfzVuF8i9IQALDvBSqrr/CEelNIDwnlWALA19NXRUDTsAUUWAIPXQzmOq/kfZ0cdYfpTYHfh7nOgpK5DDj2wvFfLzJlpR+bu1mfYniTh7M5+WDrau7ru9NSuyojhuLj+0s7OV1iW+BxEd4zFR4QPEhPdo8siG7epIUKElnrIKcG7AU2ovxUklTKOvkFtAprDKng3ka0z0KZYK+5wgPa8MfesANi5XGsQPHUGQFEvjF/gIH1VfVvHIAOgCDcbH1KJuiodVgVkAERc/DQmrD97zOXfizPyd2LXfyGsK9ur/v0wGMBSBJLo8EE4CZ4P5Q7FR8wuKFVJuz+nTdeevxFmPVQvFbAxTsqkmAglOdQhaImYccQPklR5U46rd1qqWvIj9zbrTXEgRbE3Hve8Nnv+cduKe+7k0JnhG4N6w1b1THsR3qAEMHfCcwAcjG1mzNX0CyUhtCMHL3AcoNWZCi2p7sSvJWXaXpv8E/HYy3FG/mPTNiOJTjsJxq36UxEU1mk6Ls7Vq5Gl7EOm9LVCh/fftUrmf7BwQi82BQuEsTUHO8s9tTIv1TzOwcRPnHUFGQMsxp6L83lWAFADIBlESHhbk/nfAEAscqOwGM9xIxVxK7QQwOc6Oo4z8DlgoxoSZVUAdm3bdi0Wf/PqdkjmA9+Gk9a1tYV2Fus2L5X4fF1m3b/H2PZpiPIwtsBxLr6owysrcTzlkkkJvte0b/yGm0Hr+TtbjL9ilnlBJ86MrQXF+qRn0SOAehCBjgFg4TPeEB0YjfcXU8jGIFAIzoM5OwTpvIra7tix43iDLHaqYezY0Ba1nEHVQbww21dv2NBZLihRdvUS7MA+aNo/nOD+Prq393Qv2ddMeVcjnY45TjTUL0aio/Um8uuzRWnbN2mriwl9UBoodn0+ePhp46ObfU2QYW+naWNdJyDV2Hi6Kb0JncnG4CAfGTRbpIlEZjSjR4/2NU+COb7amUlVOVTcChgdp9RMr6PxrACgpFggBUA6TrdXIWuU3vUsHju5TfvzxocEkXsGQOTDL5sDIBb/WcyRPzIdLGT9c79tn7f6+eeNd2ymvKuZTpeNdoR4DRYSs+QjSKy0c/vOq0sxZhzVePbNQDRH+OfsRQaLj6aR8nSABaymlxZh5+nRUsZiOJoxLvcrYnylpw4iJF6xYkUvzNyeKxRCKSzp/EYIQXHWSm0uTuDyVAnPa7NnBQCLjmctY6jYiFkz++i4jHXEPzbIAIjQkdDM/xpPfFhclQ5UHQy1Tw/zKLjj/ASLlqlT098aU03/BWe/mtg9eMBxkLS9vb2bJ+Ln6ZoOJm1RbOqzKCMc6Ldv0o9SwrsCICJwtCsirM2Yt0VVsDfNnTvXs4d2PhFuaZx1Nqwy4/I9y3cPsvoqE5uPVxj3sIGs+PkNY5y+eEgZbG3k3i0Angql6DKlu3fsNH758oFgWdaz+e7TvUMRsJABEKVAi15w8AntLF4X0NnMOl19DrAQhNZn0cENe4jd/1XY/ZtlX+N8Nc5p31Dqeug6LBEpOVtszmdAs67HvxLbtR0sZ22zRltr9M7by5ijpt20adPK1nT63Y7t/Mqtr8GSt47zNdBd4kYb5LkSajv3WGECWJd0hxivr3/AGcgO6OMRo7Gisma2r+8rYWAnufNeoz5BpFNbT5g48RFT+lLQwVoDBYAf4aUvfAtLOr9eZAuTFhEbzwSKA1Bqqnbk9vLd86QA9Pb2vjTogIUQW4LyqNT2WKTG27bt3aoybEAJJzFaKts12kIKsUmnJQ0Dj+dE54l4+Vyzm+WEyJj02dDQYOukJWHIhuqTLVh8vmjEC4WRYo59zobOzT1G9AGI5s2b99KBPXvO5cw6QzJ5BvS16TmttKF2s3bTxgd4X/A9d5jTiwQaTc1PK87ux4/uVicWu7cSomF0LQFUA3wFlM0rXaFQ7GLkBvgK8guscqX1SQCotnstX4MPZ0kXCP1ez0om78c0v8p4mIq9cXY6/aMNmczfjNsMI2xpbn6lUvI8D+1/BbN7zgN95KTawgNLo6d+bClLOr+ehAuRWOViT7MYbDb+L/7888/rqJMuUxaeFIBcX26qCLC86dSkSFrj2QRkOphy0wlHrolz4ass41DZleFLoKT6HfoLZdiDC5fBhdSiq1A4xpXSGRhYDqJQnJ94zPk2PrauoVf6/RIiftGGzo5gpjSX0c1ubDzVFuIDA3t734CdcUIxsy0rID4SOsEl+IlfwnL2DoTYfSen1De7u7uNPnDIfTAfGtqnXcQbfAxHyc3tHe0fMaEdN3ny/+vZ9uJrIF/KhV4gD8gXQHOBC53vx4MWAMN38UAnyi79AsEd62bGbXMFAPqgbTu/wBwe56fWhN5cIKXw9z1AI0Vd3Td8T0REDQXmF79lTxdSxxv9PjwxrUDiS59ue+7mpma9d3DdiBUSf2DPwFQ8M1YA3L/kQ3riQmrmvi8UEdIfZo/T77s7ajgCEGhtajoHH4yzTYYCz/aPbGzfqJ0UI7lwBn42dmFP2Fw8iLf4TTABJwJ0BMsN/5+4sDpmNTZ/FHxcf/TwPn8VlL4lJv9ZShpb67RzliO4Ni27/jZRKfK1qRkp41S4XvGxfHzsAVzJF4gjUjOW6TS/Hsc3XUjuObnSUjj+Ye5/DSuN6xHdAXm44nfrTJAe5YucHD48njeAnJVewYsciDwdYJ5tWL+25nlkfks4LzEn9hifirOYQAoAvGEj3Zl5GTjRVj4COvQM1RCvNZEUGf5u29jR8V0TWq80+ggilUz+jtnOH6GMHOe1fVF6pN2VnH011Zx8COb1oh94rM4vK8pryENsIx41pdV02JX+RTBxp0EbbsXkNQZ0vkjwsfexQMRKrgDoc1YuYtd5H6Q8Ewqf0Tutec+fNm30zU2pu0yV4P3y9MVG1WmlsvIu5T3Kw3Icz+9E5Q3cTCJYvwKtkfA58rRGe7MAKOW92tqQceNEtKKcoMymhKjKhcDOrTvfiw+fa2ZChC+8IOLx94ct55IlSxKzkun/5TH5b+x8zw+b/1B+cOg8SQ4MPDanufk1hfrBj9VYARCxmGfnL6sh8Ukco7ieGePA480oCubpQ1NoTIfdF+LFw+653MAxTMkVAC1SQ++eb2LH9pyLeIc9hsJ3TWsy6fq+InJgel/dKPgMeDr3hylJfRpHrcbJng4TMMIbsAB4nisos57bRDiESFnDqhRIAXCUt9oPnhQAZlnjAo1eWJSVKhCAtdN4xowZDUw4nzQZMbzGPwBzp1dzbFHWs3E9+ehj/5LS+ZSxt3dRju4Ptac9bIB3p5Ppy4ZTtxzZMgPPZwy/n+/v/eVin8z3rNi9wUVDyZ8Voxl8Bq92JAd6syudDwJYfDzv9mTcu9XAh2iHNdH5JaZMQB8AACAASURBVGAV/Z/DHhjccKS6Duf6BR36Uk1N52b7+ldKrk40YDeERD2ItM8+LBPeevFLbVuW5/mNjx5dMwqAw6zn/WKr2yHKztMa7UkBsBUbG0Q41LanmOwgANZQ27p4/B1YaFzPsWH6/11bd8eyMKHRu3B7IPsITO7Hh8nXhNdgKmbp/LSlMXnRIfSWY7z7h0K00m+EgbSs/0O/2hGp6MWVeGtRAp8P5YD3xVzYdtkWCBw7/RgnqX/1MVxLOM6vh6dZ1inA06nUtzjjv0c0iafzXOwe20aPH3+hyfz5kDeUJsJWni0806ZNK9v8hjJoD0zguxMocgpr9BgP3XnLUS2kE0gBQBELUgC8zE6N0mrTO8LBXM8w9U4XO8b/FyZMLcnkO2yl9Md3fJh8PfISKON6E5wO/1PvwBLGCoDi0tP5/1DZkCBoE3wB7nKXVy5081lw53E4xWhue94hJsaMKecCoRKj6t5hmlBp6Ii1xUdlc/ccSLCEqJDTd764/Unku7gadLCWm1/of2usoeG81atXV7SVVTKP5/nIHOglrt0cscqkhMUnkALgdY32ZAHAWWsgBQCQ91cm7CRVJSHwxCNPXI4FcKabTDiXv0EvWG50ps/TyeQH4GH/I4MaDMVZ4qOFr3c7/nuCKa7lQxYAz1cDd+RdOteAbgm5jBUApoTn8/+h0tlC/cBEWtWfvcCEzguNNWmSZwVg6tSpxrn5vchiSosET13IkHmVKf1QOliZjkAVt9+lm5uRjIn/DYqna/6P4f3oxT8es86u1HP/ofKiFoyn+fWTOXA4PtX0txCxQAoAcmJ4WqM9KQBSeimDmRd2UgDywkI3hyCAAnSOewlaznv6pK1j0kO5cB77dibV9WDmaed1oHMUHXpYWeJDyhHz39rZObatqzON/xZmujtaM12do8dOnDARz1+LUMWf4qNvVJsAxwFT+3p7f6gtInAEMz6OQPrBQAoAIgL+ChQ63YBFtsVz3Wi8Pkdtix6Ysr1kQ+mrhB3ipkzmZ3puvY5X02ORW6DDSn21haJp1SVeXi2VLuOjRnlSAIBJOa07fqYkUBsnoAUACsBoLwJ4SgSEDE6e6IcLgi/riD4CkJY4ZbRt+8bITiQmZHPuqXaFJS6qt23PTl7D50P/PcASpzrcvinfs6H3pOAnjXEcY0e7rFS+lL3WxtYzHZV19/xX8tvI8+/1Y5J3mNrhCuexP8TO3/PirwsOiYT1WZy5P3yA+dI8vewv2nQPHt0DD/qPKSk/BVPvB/B30fh/HX2w8rHHvgW6hjxsD7sFjX77pvb2tsMeeLshmRC3Qb7ixzBKngpfybFhZXzcL6LORaB39FNMRPbjVW7C1w/Nkc3N7+vu7DxucEEvwYVzokcbJow9v9LN/kOhkNKbj0epCz2VYNqKdoGSwKY52fLyQTSRp/XHEzE+droSVd6OTW7CwWhEKwC6wIoJDoVosPidZbD/dBr27r03rAp3iEk+1Nksj3D4yD6NXaHvc+U8LAvekiynF8Wil85xjvNOvSgGvrS3Pxz+fondtqffgl5osaO/KtPerhO7eLqgLOhkH9fg7Fcvsr9xc/YyStO7XwKkGtbz5P9Hup9P3HHuyjFeVAHQRyW5vj7tpe7HCa4gZoqjIJB5OFPF7BC1JQKWpIsxp9oCE0qK7gIgIWm3uP7IxsaPV4L1o4CMeW9rZbGlOZk1TaKlSlzoKa/QJbypmEAYrqsPbkGJcMTi9TtWkNdhD0RACwAY+toVHibICL1hx2zXanxM8LVhLf4aRpicTnCFk7PHXGlCIBgMdePqtW6soJB8H+ednr2Jh/PVBZCQslgvwJ4c/tD/2ob6ukVtPhb/oTJkMpl/xuvrXg7DQ9dw2fz+jVobgcz/B/pd39X1iEmmO8uKn+xX1kLt0K+xZQfHEMa0hfoL8/6gE2Ui/rr9oZhhst7HCzkvoHieD8Xzmmpb/A+AAe3UWGmDom1MGz7YpeeI759rHo5iUg1GEXm4PPkAIL2kJ+1iuBz4UYxoC8Dw8Xr923KYqwIAE1Go5Xhx4O6qAKDPkigAyKqvK80VNYnjubQaGkLJ+Le5ofvrRomGDplI8dCYiRNOXb1hQ4fX+c1Hrx23eM46DUpAIOvRQd6OE4oCoHGGTA/mk3noPYdJj3HqbhwHzRfGi3olHQEcGBmqLN6PIzPtyR/uxdmvecw6GkqGPkqq2suTglfiQk/lBhVhkl78Xw4T14cl8zAekd2IZb0W+oxMlIpkjBAQVwUAStSKsIRHGNcU7H6b3PihAmBJFACp5KVusiDm+o9YNDvd6YpT6HN/xuW7i1MNfypWKIudt/88f/hD33+3Pd22BbH/bwhh16hEQ0NoRzWKWw+5DQo56t39NdyYDHuOc0xj645yKnOHOHHixJtwHLPS49Dzk6O8NbxTFmc6Oy/Zf3yUn65K7uqKgKailqPQk6lsI4HOkwVAcpkNMmiHO0GKpwTpuuLbmi7G0PDCswAMDLju/gGcqqureyJqAAcLzCg1360foazvu9G4PYcTXh2SUnnz+IeZnsfFOdh9RVJmONPdvUIIrmvG+76ws8qEcTRyQADLsVwXMPgBJDWevoXO01B5yBYnmKooE7GuXwE/gCt3bnuxLagzICwhezGn7890dhzf1tn5jzxQVeUtXfHRVHCU2jamNeVZyXQ43jFy9i00BhwBerKye1IAsEMJdD4BBYIUgEIzZ7AYa/z7bHt1IRZe79uKuyoAYS8qBWUU8vUFnx14wPnzm7o3/dGVzoVAZu1r8HFNu5ANfdyXiFlviHr31ZvNfsVPbvmD8DArLPP/IEtrtLXGACMLH52kAZ0xiZddH9ylKkUB4MjeuKRn27a1yN9wAwY73XjABQhxvNGAD7Q+avLvFVaAdzlvI8mX8aJeK5UAD86Hw+qDzA1eFE9+dp4UACZ5IAuAFYuRAlBgdpWIuZr/sUN+CqFvnjS8At0N3rYMHAARV1oS8z+iS84vJqt+hiiU2/FPoI+hTqyDnfan3Po65LmyrilFnLWeWyWZ7+gGqYLF/w/HBAlunoXS6ZqYBI6UgRe7oX172fWBtuwKQLqxcWEKZaLhwHUbLCItw3EM8LeAI8bNc+bMaQ7Ao+KaKosbH/Egp0XZ57eUAArmBFIAsKBHpwBIiwVSAGSOkQJQ4G1SjlxY4NHB2/B4Ds/8D674uLj2yUtw/j975swjkA7FVZa4spEtLdjVv3vvl3GM4iFblvhrpjvzo2C9mrfGx/FnHhPhHGRuxayDuQjMeyxOCYXEtdodFPtpxbl4e8pjXkzE5asVP2jub2z+GBfWP4Oa+wshBEvVZKd/4C5dI6AQTbXdtzxUb4QCWlMKAOYykALApIxOAbCCWgAs6SlEodpe7EDyGjgAMkeE5gC4P/+4684NpV8jtwA4sdg5wA4WzyIXyq5u6O7+VxEK10eDfgacHVZpr1BDnW8ATn9X4Dm+w6W5kG/heanEP732hg/lgBQytOOhA/1j4K4lvJ0cm+pV3mL0SMpkbCIu1w4Rfg8v63nxxVVwzvuKaUx7sTEXeyaVOnbHtm1G6ZmL8amUZ6gJYzy/5Sz0VA68YN4MpgBEagEI6ASIJAcjRosN8+XQZml8aI9045lIhGcBULbtev4PeZwxe/c+6SZXCM9f4cYDnuF/AQ30Ef8XF+ojaG187CUs6xtBkzv5k1Z5TqwDYHxXACwmo8XlrmLP9TPFnFB/1zh2Ml4gyrFD1Lt+lbMf9B5C6oZk4eeoDngpnAvfW5iiep6IWMx4fstc6KnkoOKbE9ShdsCL0MYfw0GmBueBxTrnjjOp2PNafTbQ2+u+GKPAzNHHHffvsDCKGTgAhp10qJDs2EG5KgAodP2nQu1N7utjBi6YzjNgdGFh2SqFuNaIOGwi7j3SA2WRQzf/62EZOhUF3bUcgqC0LeMzYtQ/N15Mgk6TjnZoaWq6Se/6wcstX0XB7vyGewqprtOWh4KMq+QBKngaz9nAwEBNHQFI5QSKAoAZNcIjAMf8bC7fu+hYnBSAPMAgfaOrAyCci1YtW7YskA/G0K6RAdC1z1IkAMKuphFbyOY8sAy9pRyl7nOhKfo4x60PeDHVIgf/1+H177r7Ldqp34eW5VnRww8/kqMak8gf7FpC9e0ZYAPGC0QulyvJAqHDdGXW+TN+h2/1O62DER7CulxK51w/fh76/YXl4c65c+e6Ht35lrEEDeWAcT2AXvwGPe1oSyB+tF0oMS5IB7AERqcAwEwd6MeGj1SU+bGD4FbWto6UrosxysqG6QCIqXB3unOECLPPvBgj85VrJjkI267PxvMyMLipHahQqc1L0p9eVBq80YB1JCTZbFbXCvB25XKRWAAgxHg3QTA/oUWm6L4QDaGLARkd98ACoGkjvbQXvpPNPoZIFXdLVX5JUNOGfR957edkOjI3tXd3/xXf0o/nJ3W9Ox31F365lLFAWVlde4mQYDQ38wHAexVovYlwCJGxxphfGoQ592gR83QEIAOG3ChJFoACk+te6tVioTkAYtetQ5XclbFcNLvKoRgoLo8tgMnB2/sL3LiRFXy+c+vOS7U3dUGCYQ+gLPw8rEqDpn0OpRsM9cSRj2lb7Ca3tW3e3G5K74nOoL44wt/2euLpTizxYTJZ2CPfIWoLVa6//+8GVqq8o9LKK5K7vCLT3Xnl0CRSma6ua6EV/CJvI5eb8D1Y/ItkWh9DeL6Qq+DedFPTY6lk6rvpZPoyWDbmgAnELN1lTZpkZOGptUqA+2cgkAIgHcfTRsmTAiA8hOfke504l3QEMAyY/SZw90nPsvB2447j6nOgzylFnXgq3zyGeQ8voGvpVOycAqW3VUy+xYvMMLWWLOyvoFzKfPcDp7lQKgDmlUW5WwCUzffkbRvgJj7+rotE1DtEnLePg/Pp730v/pzdlVVyERb+vDUVGpPJd8HPxtfRjZLOR2YnWy72AvGSJUsSUNZejvV+EZfyfUg//XNnILsO1fl60k2pB9PJ5HU6mVEymQw1rHO4jEil3WN0BFJjlQA1Tkh85L4WDAd0yN/xWOy5Io8Pe+RNAQgak6lUqOFCh42mGm84jrv5n7Hey7a0rwtreJaBAyB23atKcf4muZjvNq44cqG70RR6rsMdYbo9rdDz4fex+1/f1tVVisiH4V0f+rcHh1vE6gdSkIoLwia4PMfplB22BYBxg3zxEe8QBc78lzGpjnEb//DnOiTTEvwDSN/7+u7u7oJm7MFqfkJcCOfqF4bzMPnbkbkfH9XSMs+EVtOsWLFCH7cdFrGxLy+GPBVjvUonM4Kz4XPp5uYOKARRhR7qsFpXC4+XjIGmGFQ4HYI9+EuCyChYwtO75EkBQI5uY+/cfIOAA830pVV8dpVvTEHvCRFzTYCDQKsngFugKlFD5cSi62oBwFz52pl4wWMwh7xSM9zaOP18oxtNoefcts/HM+P33JEscLKhQrJ4vG/sWZ8QLJLz/8HkMwbzg524a64Aj2NnRvniI9whzkqmPwXF8dVe5Qb9Dks6Z27s6PiuSVuUhN4sHXaRibPlcH74jY4ZsJ07taVi+LN8f0PxPz3f/bz34JirZHQWW8XdCwJFrODlHXY5b+I4ZjKUsUC5cnI8F+ERgBBbAgJk3Tp3rmu8e8A+qqq5dNwdAEW4DoAWTOKuZnfsYCJXAGKxWBMmy21x7kW1vKf9TipC+c721FaK33iij4gYpufRhqzVHtuOZK5279itd5du88OwMcgYympMBqWibEcAranWE+Cp/1ljYfcTQuanE7GGVyBhlWsVxaG8OzZ3PMCUvMZrf4P0SrUy2/45/pfrOb5kUivDxhcmPnDdjUKd4QjAdTOphPkxWKF+qum+3WsHiu7Qxyqw2rriOhQT1x/3UOL9lcZ6g4Dav6e/MUj7EdYW4dvK1QIATT80B0Cc783Dl8J1cYHZPZJFZej8IYQr5T6fSju3aZOh52sprE0oV2u869Ef8PYt7Z5D8DwLZtKA8zEmZDAZborKYVGqnOvxjDZ344w76MbgsKFiJ+SqACA21JXmMMbuN7CBz34fZN7i/Dnvjo9qOHVdZp2v9wfHTjfgA+4r8gROga9rbWr6RLGhHTtjxpEw8ZscNx5goywp7y3GM8gzk5LAFi9/nYcgY/TaVsVVoPN/6IB6928UPXNANk8KwGAjzjd7HdhQei7kzCDtR1LbYxobkybe6aI+HpoDIH7Urh8BnQJ3bVvb+sixzjHXdwGV5nybl3/R1HSMNpOajgMJXnSyIV/KhmkfJnTz589/CRZAo4xgSsnIzv/hXOh6/o13pQNj8vTRMcEAuQVcF/codohwyr0ML4B7VM6QQYB+L1fydSie1GUytoI08fgHoIR6TgOt+TmMfx5HAQWPLHYnEheAzNVKcEA27QO0YfPmZwrKGvABZ+7pnmGxKOg/EbD7imwOjTPY5pgzT+f/GgTvCoCSgRQAZHQLNsiKnDp/QvUK97N47LB2b8Tlr4fDW6Ginuv5P3LRP4GWSAIX7WXF1BTXHqQ/BynNF8rDKa78hxAg2uBvXuijou3t7TWwjOzrHcWaQi0BfMiYHOdUtzFi5V/rRuPnuS3dk8WEvUPUxX2YI//Ho7xwV+BvC8NxVDvdwopwkbZEeZRBk1ssZ/8SSYL0sdphFxzqPEXCQKWLzPyvhcOxkauCh29fTSkAiMzQIZm+LyiinjdLnpNJIGvdZhlgj4SzzaTvEVZ4w1mNs16rmG2cylEqiR97caVcV2NDaM6FoQ1dqFfCZOh29etwIDeiYs9jCWvr+ra25cVobMWmFB89tBDBPDm1DO3PcdTRLvAeIl4skYj82KMYHgeeSRyNuL0XB2gtHo9EAdCpk22DZFGWUp7Ou03Gr2liMrbd4cX9XsPeIfZs3f5fsAJ5+j4JJn65qbtdl6kO5dIlmGc1N1+In+hy2KKMHUF152gzOds7cMfixYtPG4ww2H/NxmX3D7gqc0MHgMrtkfrCKFvuANZFL8S015QCADACKQCwzrcVBTTPQ88KAHYcm6El52FlfGuuMWWVESqe+z5+hMZOjkYfea5mgedtoUHhvvjjPVKvBllBc6KJLLZtLwed/q/gJZia4iqOI3sKMnB5gNz/cwyUnX1cONsJH5dNLixL8himwOOMfmFIFnTswmNXbWwPzUB0cHw2T7wW6pfLJxrkVt0DUYBix+R27FqLXmHvELnF3g2F2/zivCcxuuH/mTcwo9zU2fnIrHT6Smk7PzVrMZRKLny6s/MG3LniwF2Vy73dCx8dCot3KlJlmDNtASg+wYkaywSIb2EgBQBHdp6PbT0fAaCTDi8v03Ba5Fg/avg9+rs2EcA5t8n5vP9c4JKnjZHlXCc9ctVHjPkFIETGzZNNmmN1XhlmfYihfQo+GD5Z9AJYe9/cvjGSnAkJg5LAYe4Qke53MsLeTi864GEPlVTfWLNmjafEK6b8N2UyP4OC/G1T+qF0sNC+HVaE9+h786dNG60c+S4vfFB+2FeGQi99cIOkcqq+3vWYwEuflUyrQ6Lhr+TJ+nTYeGzb807AswLAHCdQQhp8NCZHnWnqMGDoRmUioIS7o1tM+FUAODxczDOaOay9EkDS2drgU2fkhAafhUjM/42NjRMl42e64YGd4gNLQ8xPMbQ/k49/mDtE2Wufiw+wsUVURz8oi0eVKGcQird0dX0YZvK/u81DvucYy3VQAk7a09DwThg1vGRgVYlRoyJXAISBgldXV1czRwBxFZ+FefQWeTJs4sdKWQILQCymFYBAOyWEZpEVIN+vtsbuCaHwDS9+4UPhqwLijBkzJurqacW5/+cpko4EsmyZ9uNGt/qJJ3TWQiM/EvwII1EAEAKqzcfuMnAe2tn3cFwcgwVChrhAOMz25jDK1G+CFKgaPt58fy/VylUs9kacyXXle17sno4iwX+3C8k/Uoxu+DMoNvcHjmYYzjTP37Aku+7u4brgmi0wD+uqvJXL9Qcz/8Mat2rLlme8Dt6zBUCXSIXp0XNHQwWzhCAFwOtMjUB6nM+7LtBKxXxpxdg9uOY6OPSdRKnWCrhspXS4ltElcrkoQgCRKIq/300ALBTZ/lwuMkexS9va9O6v6EYj1FLABuWxh2KCMEUdMhr5he/tVhGPvQ4dec6/gnmcgdS+rqG2h4xLWj+OfFDoQNrFs8rq46WojrdKMT6vfaAo2myvbQ6ZN8Y24O+iv5d8/D0rAJoJstcECv2B68f8fMLQvdpCADuU4l5Agy+b7aok5EMNvL15UAsRekGbfHK53cN5rZECgAV4KyoAZtz4eX2O2gnnQ8F3PYtEOOlfokpApGVeqne/nO8qJn+opYA5bynW1/BniBjxZZofzsfk702bNq20YtY7QOv5A2/C/wANV3zz2Knjf+2ljV/aATZQ1AIA/4eaMf8PYsi50bFfIbyRt0ErAJ4vXwoA83HWMFQyhAK6xqJ7Hgk1qDoEcL5pYt73tJAfAAG7Yy/+3AxHDZ53WGEDDkegl5ksvrpfLMBR7P4Zd5yrTcalmPNLE7ogNPhOFExrqneIYRWrgql5LJZW16JHB8aiU67CTB4sH4pHYDZmMr9mlvg/j808kcsY/wYKBuU8NfJJDOVRm/cL/kZNagX47Loim3HFXhZEMESveD7/1/35UgAcywpkAcDX65jBQiN01TYCMCO7AYBiSe5n0XmYjJo4cXee2wVvOZz7sjQUZOjjAQoXGXtrR5EBcDCPBWrNu4mOBXDLxClTlrnRBX1erCRwmDtEZ48z3ousMK1vBX3BxcsLLy+0mfb2T+CTfY+XNqa0WAi2N+5u9JWK2LSPYXQSfRY844ciXDMWAF0SHgrtET5x3NeMK18pqI29XocKB/PqE5gg35f2tt2zdetxYBBJEhHfggVtyFk3NDkTr/XxmPDJxbqDiTcHRSm0XQb603mmiypdOgUwbFEvFJPL9Bn6c81KhR3eHjebJpK9+CohvX379t11lvnrjY+R8Q7QFAMvdPgIjHcc+UbT3xU80P/lhb8brc6Ct/PF7deaGJmViF1Xip2izhePnBR5RUcERGgLBM7JvVmZODIGlOeSOWW/Nc6sR1AvWXuNh3ZJpm5YvnV5SY/B9il4vECEQu0cASADoFHYb7HJHus4vhyCzb+QQ3rH2dsqppwB7WlaTKhiz+AFehKejygFAPW/jTyJU83N38B37UPF8IF5fDkSgry6GI2XZ7OakysR33tssTZwbPruxvb2jxejCfXZoIm3+JIHJcFXfWyYGPtampqQbNAstAu5rcqqAMD0/k5gYeq4qOAlH1p9CD2nO3bseD+wbnWbXyimuyRXP3KjC+M5Fyj2k3/9x+cnvB2iSqisW9KhQ8aj1BStMJVCCRqOY3d39w6Ujb3AyeYexgbBk+ViOK+Df3P+wtgJE65lXV0FSaJ4wKHgQfnKy7qWLABA4KTiX8G8EP1n+uCUjwgAP+mj/R0B6LM3nEH6MjkckBom15r1AzDxgUAa29A+8EgNWo+XzDXyQtoqtKqDxV/ZfU8dxQue8R5sr5gvBUC3xzmi8Y8CmnDZFIDB4zAu/tsEs0EaVADUC4ExvQsh8sdP5478jAvZ4GMh1Q2o/uc7O6NJHwdoip0Dw2IT2vhRltqr/4fYuXOntqiV5UJpkPXwB3gbOs+/enqVSopPr1y5sqA53is7U3oUUSjoCOjw8Cw8pvKUiw7vcrDzf84e9iu7Lx+Awc6UDJQqkkvuKTe13wFWYDvkT2ELXOXi4SkA2A0vgLUm7tZnbFRdoDl143/Y85gwOG5QjYe1M76hjH1VkPimbCmqe3bseA92c8ZJi1B8Jsx5EsgffzMgnegKK+fPy0Tsy650IREk6hKfGaVkOu9/E8a+O6RuGBZU5KV390cZ2h/OAMr6/cpkMndZlvh8UAzwLXoi050pSejfcFmxCXxb3rnFnGdz2S8Opx+Jf+vEX9Di9HG47wvHYb6/B76OALSk3OKPIxWmf6ERn4pzz1nYTVRE/nXfA/HYcG567lFZu889Ba5lhWYBgL3YpATwNuTC7/Q4nKDk3W4MYMI/UqczXf3883vdaIc/xw5yHcq0njP8fr6/UVo28DlcPr5u92DOnSIHBj7pdhQylI/DgynfQ3nNSqY/KaVzppuc+rnF2ac3Ig+ICW0YNHgftYUov5Wo2/XV8SKCAy/qLpxGGZ+rSzn4XpUkZK7QQHBc97mWZPIofIf9Fu5C1Cm/BvxL7tCoxxR1IqVCuFXS/ZWPPXYc7DjefFCGDQDHh77O/zUb3xYABHD71joOyI/a9GdU0mSUQhabZd0XY8R4QzEK7wvnqIWuY+M8NIXDta/9BPVCdBrQ8v7x4z3FaB/gKaSzxoD/PhL4GhQqpWrMwwchKv9dCyVnipemcSlDmSso4KcpaX/WpG/EGa/c2NHxUxPaaqSBW5+3FOeKnTNYPri8l7ISiXdgF29s6RoublxIT+/e8Pb0d0AEuBXUz0vyeNz30a1vBeDyjo612iEoyPDhCFhzCoBjK1cFAN6xgZWrQ+bF4q4KAI4IQllUvLwPsd27O0HvakZystk5XvgepJXyH17aOXtzr/BCH5S2tanpHOze3uqFj45BHzN16pNe2uSj1SViUZjrdkMnSSeh1PvAxz1xU77OquCedNQ/vYiJ38tUOE5e6qVNFLQbNmzYLYVY7pM3x9b/Jlglj/bZnpoFREBJ5+xgLNRanZ3XLw/fCsBSZOqCI+ADfjsebKfY6fj/QRwgA3VflsYGKUeRKjm0xVg7mCHMxPV8O1YGC4A262P173SbB5jyT3Sjyfd8MFMe58YVshxhvykfnyjuIePeTP3xBW9P7z/nYg28z706rR0yhGMaG1NOf/99pn4HQlhfWd/VFWrYYRSYBuGZ4Op+r+2hQH0MbXx/Q732l48eRwDn4/d9Zb5nJvegAI7J2X13oXZGgXA8Ey5E4wcBjTm+fzoazveFj4dvJ50/9gAAIABJREFUB0DdacCX1/m7b8nRUGvROAOtmbTA2mSICADX8SJcLzQFAN7KC0x2efW2HVqfXt4JOLStdqPHNsX/j4Sze934H3yu2GvSM9K+jhuM+wChVspw+LrMq+lf94HIiUDz1HJky4y9XNyHvmeYySxWjJs04XNmtNVLBQXnEXxMjaNGBkeq1OxUU1PJlMbh6GpFjkmlj2U8KZHD+WARStdZ1q1LGfPtEzacJ/3tjkBdLPYqUAXKKSFisb+691SYIpgCoNTywqzNnti2beSkZcatsql6tm3TprYGNynj9fWBPvJD+YucuwMgPh/P+Y0jdRuL23MUwXBVABiXC/eVyXXjlue5lHfluVvoliViDhzyorv2Jdx5cRkUQV9KjbCYuV/DsGGkZqSOkTH7fqwWScMR9lp1sUvLEe9uKF+YZFJZ4navDGGR+cacOXOKJvXyytOEfvbMmUf0cfEXLN4h9c3PuqW5+YfoO5AyYSI70exHQPKga5+UnJdPAch0d6/EUALF46I0sFHxk5Hw0qCynWvuA70LQZ5x1yx6pnggY5z7+T8PNazMVLRBOnzA3E1Y8JLdXybXE29NnOnqWo64S+M82QhsuXxOU1MkEQFaienZvv0XGPS5ngeyvwH8Zrw5q+1v19KYvEhYzj89LP4wErArBmPOa+SyYrHvY6iuPimHwIHwzWxf37dKCVEymZzmCOvPEDQVZr9499+eTqW+GSZP4lUQAY5sjsEcAAVfoatFFuzB4EEwCwAskqgg5fnsbKhcyD1+0rx588qWVMMAo/BILOm6GCN7TWi7/0HBpbvTIezK4fbpATE4kuizZdcwJGTq87to6pKD+sNuegmUofvFggULQk0MpEMZn3zssd/C6e9iU0Hy0cXj8fZ894vcs1qS6S8i49pt+ry3CN0hjxBj/oVMZ+etpvQjgW5Q2fFyZLR/0PiSXwqHzteXAgMs/vOFYo9g8Z8XSX+OvDrd1PT5SHgT04MIIEupzgUzPRAkUv4pUHs0DqoA4Pei/hZQCJHr7X1tQB5V0RxOQ64RANwKzwFw8dTFY/ChmO0KTohJh1z7GkYwmNFOcHeztnR8m8vGTZjw8311Dsyk0zur3Tt23D1YJS6Eq2XmzHRvQ8MDUHYDevxie5rLGZ7dYxAw+aeTyX/B01gfaxibdhGFcjtizJeGMPSqY6Ec8RkI7c0KgAaSi59rvKMcsLbiWIo9CN+Dpij7wavyP8gPYZ6ZMlphRiR3qfj5QQemLCuwAhDY6QMl3e9BVqDrggxGSflfaF/KSlRBxPXVVqfj3dLZdTR+vEXbo0RWaLvxrvqu46DhuTqZjBk/PrQ+iw6uwEM4g96H1anoxxOoHXVUS8s8xLy4KwvD+tFpTlONzV9HfYWlBUTIc5uf5vQP3IsSvecECbPBR/tSJBn6Tlh5223H+QCELap068JCcK78KLJ1/jcsDp5i1YHRwxMmT7kceeGLv6h5EAvjFnafH8EC9H9eeCFB0ds3dnb+3EubQrTtm9sfh2PfLXpXX4gm3328w2NRdeI+ODW/GpaEVflo/N7TyaIQCvtt9PEm76qJv16RHOprsBxNaOvIfBocQnsXUk2p73AmdUip8YWD7ld2bO4IFnFm3FtpCHEs+cYgoOoQ/AkTJ/pOAHRglIEtADrUCh8NX+eSB4RAGtYztYm0NNCXp5enOzuPxQ/YteQsJtZ3UofhI+Nx9/N/hMl1r1692iAl73Du4f0dk4k/mHAbkPIyE7p8NGMG+r4OJeOZfM8K3cMP9BRm2w9DCXhZIZpC9/HRPjbd1PxXmN5vDmvxH+xLsde3NjbrdLyH/Xb12XBrKvUJy5Htetdvkv75UPnV44gpPztomGEhTIzui9j/b+9N4OQqqvb/qrrds2QhmSQQIDM9S89MEpYQRAQjYtgEWRReibiwiuDLq4iIgiJq3tefgiCo/BUBFZVdEZFFRQEJiOxhCWSZrXtmEgKBJDOTbWa6+976PzUQDZOZ6eXe23275+nPJ+L0rTp16lu3b51bdeocs1KR1T+8CWW8upGJDgit+lWsGK3PpOy7yiCYlJNIPh6tqzsl67ojVDA+I8319V9A4p/lGPe8nzYw9xAmbJP4Ke1LxAjqj/iVJU0W4OzGN1QxdE+UzKepqQkns9LnZhmrw1ile8QL59ydHiJjNTraNfxg7h/tWobfV26pqDCrACX7wcSedvkfP4tOt04d7wJo2+l9DkTh9v+367rfQfs9Dj6b0w0+EtaYt7KcHkYm5oBjKfM2k9UHCzZzdTL1BJbSf5LuiOBiHKMywX2aamvvtwcTJljP4Wkag0/fUG75rD62FF9vrKt7FW/L38Ve4v9g0r8C//8hJOp5DSmFvw+HiqzPdJtIf4O2fXS+Ev1k1eE8FzYhajEwZqUl6w+Mrl0wWd8JI+CPOB2QNrviSA2YraemurrPv/Dc8622o83qUU4JsYZ+UyHrI0rKnFck8LZ+Nlax7saZ9bSnl0bqC7/bmYBj25/a+dssv3GsB7OsMWJx11sARiqsmfthol08YgsZfomb1Tzcb8+weNEVQ3a/96bbhQUDTyMAWjA60qVr8DLoUK6DctdddyXwwHwA9cf8YeA+2xMT7Edbu7ruyaUtTG6/QTsn44bN1qHQgjPll4Rlnx+tbXhSKfmgVKIdzoW9eOBXwRF2Fh6UB96KwFYmtkWmuuHY2VdgYDThSGBWS6JGvjFM8CJ1mVlGxKSP/3XxkqTkc6Fw+NhYZ+eo2dky7VOplDMOkNFI3UJg/e+c+oSVmmT/wMdwvz2Ie+I2bLM9PNZKG1aZdrVSqQW21h9PDgz+F0YTK6K5LxIbnxes5hwb6+h4AkcGlzlW6MlcfQewivWxcqvsnzBoTi5AvpCc8Ae4Eh4V2u0KkTPJGfyzF330xADAg/UpvImszyWwyfZO4CF4lFnCLNkEEUMRAMd+SCMcqWfL/+YtIjUwmPYNJOlh0CE3NySMnzvwoBzTADDysV30VfwnJwMA9Uzs9DOcwcRLeLTOykFfDKDzAcdBJrh3zi1sH9FsH9WIrvfttljHjxvq6i7IQQ/Pqkgl75uwbdunc0m25JkSARX0noMOvOCFZ5fCN8XJNfOfMsYm/AmO3dq3SUfr6ruRdKgFy6492hJ9mJAnC612k8KuxSpTY2qIA0q75IF7cSt+T8fjufyEEdWyevVabEkdg/v+CVzLMW6Ac4DdP7AU/hGnxbq6Mtqyc9mNkqw+OxJZgJNPtW46h7H9p1dxWzzZAkBnTIzwv7rplIlWp2zl6oiUm/b9rDsUjleItPHsw2HLsxUAe3DwPehTuvHV5eXlL/jZ90xl7//e9/4NyqZ9A8UDbIGbc/pw0FqPDGifwlN2IFPdPC5nAs5c2Bbv+K6RG9I641DFHusBBPqn7fH4f3HyH5msWZkatBMfdbOEvoNk4Na1Eme/8UZ9Ct4Cz4VxAIPXOQLPPs+iT+I5sxYZMD/U3tn52I69MkccdcgyMVf6R+5t+m/N1hLMk/vfOSaY7tmSXuA4LJGUobQvOemwOEp6djzXs0HEcvPd6RRPd10r5zPpyhTjdSQNeU8G4Xh15eTJnk3GeJtO63OAJ1LHOylXC47VPGxxY9+aiSK2Uv+bSbnRyhiPYvD5OCzpwdHK+PG9aQ+T/6l4M/t34BhZUfFEvo0R6LEJx01Pbe/qOh/9LNkEP16M4Zo1azZi4jwKE2vWp0+8aD8rGVJiqV+9HwHaRlxJ7OjoeBIO2x/J5kjsCO0rqZQ5WpztotcIosbXV4th78MAPNllr7FLpP/oUsa/q3tmAMw78ECzAuAqKqAJj2qylHnVuQDJSTsZwxu/zRxX80xnmf4EABydCnr8b3hfrXD45/gu7YPFcfRRSKbj6ky9WcaUTujkfBkB6FTcseUhmPzv2LHfJpsbJhdPHHqG8xzpb4z5M5WOvX97LHbbSNf53c4EjGOuKi9biORnj+98NRjfYFK/ZWL/tgXp0oiblQFEPDQO1zkmlFL/qq6tPQP10/5Og0EmOFrcDP8lrALNdKeRftTLbXLPDADzBoeb8A/uOofXkUTqHLcyglbfskVaAwCbhd5Oxk4mpw6sEd8UCsXv7bCzaswz7v/WzXGuxP/P6UTAdhlt3W0P4Kz8+7PJGJgLGzgJ/m6XqqnvMWfMR6rv2Op7+N7vN/EeRJC74PTO+CGvdHfHRtKD341OwGwdHXDQe7ESoM2xuMB8YMC+hSNhH8dqzumZbuW0dHT8IxwOHYcZfGs2HTFGrAyrk5YsWVKo7bNs1A1cWSmsrJ19h3cCTtueLf8b2Z4ZAEYYbpB3vd0MVz6jvx37TBM0J6OyRVLIySAFMI5Sjjg55NJFEwgGcaaj6epKbXvmc5CurUyva50yZ9zTfxyNKHfRC9MXHLsEHpwv1mytPQCBOW5CyXdc+8auk/FVKbuw5H98e3f8k2Ot7hjDAE6B38hYbhYFMUEk0befhysrmtq6O69djDTeWVRn0R0ImJcc3C/nwqBbBKNxXYHh4EC9ug1HQvfFalbWS8Kr2tuXaCSjycTvZqifUvYp7Rzv6THlAgPMZ/NwwoQPmHO4mzaHfsvl5bk6QI/YtKcGABKvPAYLec2ILWX4JYyI6WtjaxZlWDzwxYYmY62b0ilqJ71bAQi/vfyfbmwdEQqZs+qB+sS6ux/BPuWjGSnl2P8HvmnZppO15K0lW9o6O89WZeED8HB3HV4Te/pvWEJfNHX6tL2wJJvRcR04BV6Fffmv4PfjyQQNOeulsr5v2ak69O1/guLrkW4siuE6DLo/DKaSe5nVAPNQzrfOOIb6UFk4dGBbV+xUN8vBxhdGVZQvQD/ax+qDuSfDQp/S3t29YqxyvDY6ATuVMsdJXR3wwErPQ17/jj05BrhDtx2hQr8Tjo1wnrl/HDkE65bcJQSnppmM8URPOxmXTSgzmRU9+eCYWtoAQJhkW9yEuPVE0VGEILLbZSJl/2uUyzt+XSlt8evFQizEP9cTZ1tbmxmDY6KRyAFahs7Cgd1P4++qDPQwRZCZUzyON6VbB5LJ2+E81o9wuhlWfbsY9uV/hKOwjyitL8dymvFxSHffDJffg7fCvyil7tuaHLh/TVdXzh7fOwpurK8/G0dUZwxvbKS/wezh0ZzQRipfrN8Z50Dofu682bMv3zYwcKmQ6nQ4Z6WN9Jlrf4ccSIW+R8FPBvfp47nKGV4PPigtON9/cHJw8B6cTPjg8Ovv/H3Bqs5O94bxKMJL/WtzCqx3wwbjN+HqA+dLz+PkeG0A4DGYgnORdGUAYBVggUmsEVsTe8UVsQBUdpJ2+gBAQqw0zmBeqattZB1MZ2sG5Pz/SH023soIoPIXc4Z6pOvv/s75wM31DT8Q8Zire25Hme9MYEsRnOUix3EOxKrAwSbQj2OL3ZXU5hy1iYrWi8yNbzlKrwhZ1rMykXjcnLdOr+/YJfBGtwwljps7d25tqr//GDjtLTArSAjotDuG9O0MhVL0KSH7MCFsRBKaldKWL8syuezU9vbnF3tgCO2ooZn8kU/glzBuMvn0WOUVv8qk4GhltJOKYbLL6py5nUyuHk2e398va2mJo41zECnvkrKyslNgkOIkE/xKsjfedlLVvHk7WsFz37kPq3U3d7hM/bpTA+98Yd4qca8fpe3Uj/HcMC9f//koeW17vPO60epm+z2MpFdhJGc1vmGtN2TbTpDKb9648dN4lrnKLmpW9KojkbvxkuBp1zL7WWfZJMKmPgtr8sAsq72rODr8S+y3Fb1DIB6gv8cDdOwtDS1/29EdP9MNrx3rNtbWtcOIGtMHwDiEmT1hr9r0Wg7ehOch89nzeGCEM5CNo9USS5TxuzIoyyIZEmioaXivVI5528woDKyJb7DjEccMmym5YjAGpk2UFYfYIX0ofvuI++404EEbQUfHclo1QTu7YGitwgrQcpR/0gmHH8n3Kt3surqP4ZzZL4eCuknxF0RENLED/HZQLbl7YMcO4Xm8FGNr4rLk/MF23tVIzGSCoHn68ccAiETPEdK+0Y2mZsmrfOKEuuXLl7/hRk6h62Iie1/YDu8ylh7lYiDmpWd2QyRyREhUjDm2TpnzctAdehDjfjHC3H5nLHY7XNsW0s6HW7q7M9k6yFDk+C2Gpe36rYODCB8rds+EAhwNV+0yffo8LxKUZNJesZUxiX1effXVPZJbt07EZFCJf1OFDvWFKkNbKrdt21zV2LghKN71CB28Z0pa35JloUvybYAU27im0xeJfw5FgqjH0pVLc13DiXcOVmo8Dxo25iSRRqlRL5s89Gsmdr2Gt7cxJ75RBbxzwTgxwer5ZrpyvF6aBLB3Fu7ZsOFZqcX8DHvYg3zuHyqFraMM++tLsaEJwAo9iq2HtKGkjQIw1hOIcfCB0Y45+qIkhZJAERBoiNT/zUR/dKeqeqSjK3akOxkj187WyWhkKcO+NV7VOGLi+kgg0lGeZ2LaZ9QoC5UcAfM2GSorO9NMMBl2rkqGnL8b/5EMy7PYMAKNsxqrUzK0JNPJ31TH8bBvcPLnrUQC7yaA/Dj7Y/I/yi0XBMi7wa2M0er7YgCYxqyKkInq5vZTBQefz7kVwvrFSwABWF7GsafFGffAOMtZzmOIFLgg4zosOESgMRLZS4dT/0QMicyPVmKfGNkZf0SEJEACwwhI+W18426VHUeKp+w67U9+sfXNADAPboE0o24VhxPNl83+mVs5rF+8BFpjsStMNL0selCFY4QPIY/52M6XWQgs9aLNkeYjEYzqX9jzr8u0r3BYWzmYSp2G8tjS5ocESGA7gb0aG/dGym7jQOnqI6V1k59+Nb4ZAKbXOMLk/s1A68hLzz13liuKrFzsBHR1Qy22AsTTWXRkAo4G/B4nUm4wvgRZ1BtvRaVJSeyopDl2mfFRJbzWrA1XVn7knfPw440Z+0sCYxJIJh0T2dPV/DoUgKmizJUz/ZhK4qK75Yk00hcj+9EtdfXtJg1mmqJjXsbb32pRZjXBIzWv2dvGVIoX805g77333n1g67ans7+f9BPCDp3VsaZjzIhnee9QgRs0+/2OZf8qByelnrJQ5aErO1a+WuAusHkSCByBfSORhn4pWzLIADum7jAAbjE5HsYs5PKiKwslXduLEZTE0o7rs+Z4k6vRtl30MQHS8eL1sQmYI6E6JU/ATWuisGXxkYcIy365saHB5A7w9Z7PQqmCFm2KRs/Efv8r2U7+cMjcjPP+H+XkX9DhY+MBJjCg1DfdTv7ong6HJpiEZ75+fF0BMJobL/7UYGI13tqmuOzJ61NnTG/EfkiOaSxdts7qgSEw5Kwm1cNQaI9slcINv9wR+mKTDjjbuqVQ3gT3gZPf1Zj4D82hPz0yHDoWK3HZbMXk0AyrkEBxEjAnkOCEbHKsjBX0KW3npJL3tcfjJm2zrx/f34ZMiFscE/IiheYefT09n/eVBoUXBQGTlMQqLzsck/lr2SoMb7W9pZB/bqqtvd8c08m2frGWR9KkSFNd3W2I7PdsTpM/vJFNjAVO/sV6B1DvfBBQIfdpyo2elm37/vZv2vF9BcA0giNZNdJ2OjIM6zrqOGH5EbHXZRPCjfaNWogXxg0Bs9e2TalHsvFcHw5Ha/n3kAhf1drdalYUSu4zf/78qZs29l4slbgQnCpy6qBJa6zkUfjdteVUn5VIYBwQMCdpbJl4yG1X8Ux6PNYd/5BbOZnUd7VMkUkDpkxPT8+maVOm1MDeSJulLo3MiVI7Vk9fn2vIadrh5SIg8GZfX8/0iTPuxpLbYVA36+0A00WcLIhqaZ8+ferUT8yYOqViVm1tx7p167YWQffHVNGE8p00ZcriZP/AzSh4BP7llPgLfB6VodCHkaCpYAl3xuwoL5JAMAioqqmTfw9VcnoO7diFkNTnbejry4vDcl5WAEznzBKkcnSb25SZQ2FHldyHbyPBuOuDoIVJt9n31sab4Cx6ilt9hqIOSvGgsq0/pELOfcW02rRw4cKKtatXn2jb9ul42zfhR10Z+IgLcM3p8dgliz3OMOh2jFifBIJGoLmu7gxbi9+41UtJ+XJbZ9xsTeYltkbeDAADxpzJRpbAc11DEurutq7YyW7lsH5JEZC4v74AZ9Orcl7qHobDJKTC7/BRR8AgcJyHjO9B0IiZzHNIQ3u0dJwToNtHsjnLP0ZftsHT/3MwflyH8x6jDV4igZIggN9gZYUKt5jTam47hCPvi5DV9A9u5WRaP68GgMlxjiXJVrerAKZzjiMPja+O/zPTjrLc+CBg0giHtLjZ0Xo/r3uMH8taRLf6pwjJZ6xU6tmtjvMCAuH0e93OWPL2q66eta2s7GCRcg7BBsYCR2qzrebqTX/H9sz+Y9mE8nP8yDw2Vr94jQSKlUC0thYJ6+T/c6u/0vLZtu74wZCTl7d/o29eDQDTYDTScL2Qjgfe/GopMiQdBJHMVe32ziux+oux331zXd0XlJD/5zYjZRo0Dn5AcQTsWOlY1gpp211Sl3WnrFS3ZVmvw2PexCvI6v402xmpdeuqtpSX12JWj2hH1Di2jiK99t74ueKfqEqjU06XsdqxCVtrX8db//UQkLcHUE7KshIJBITAkCOyVCYgVqVblcLh0GGr2tuXuJWTTf28GwDvrAK04MFcno2iI5ZV8vyOePynI17jl+OewNtpba2rMZ19slAwzMSK2bQHGb22aKEG3tHD/HfII19KR0G/KVqKCTieWOXJ7yLrzqo/Y1XjPDr6ZQ2OFcY5gca6ur8i5v8xrjEgqVZHZ+dxruVkKSDvBoDRr6G+4WrsWX4lS113Km4erhNTyb1eXrMm6/PgOwnjFyVLoCESOUIp9V38UN9fsp3MoWPI1fFM2FKXtnR0/COH6qxCAuOaQLSu7hQY73d6AMFRZeED2traXvJAVlYiCmIAmLPJW3p62/FmND0rbUcobLLEwWmiYG94I6jErwJKACdRDkGAjUscIY2lXZB7Pwho0PEV8GVY/I6zEZf7gzAo1KGoCDQ2Nu4ikqkV+PHMcq24lr/t6I6f6VpODgI8cx7Kpu033nhjYOr0aQksi3qxdLJP1fRpzyPWAIOUZDMI47As7pHujX19d+y+64z7EQ54Gqz3OcDgezTMoKDGmf6nrJB1cVs8/sWNfb3Lg6IX9SCBYiMwfZddfoTJ/3C3eptjxxO0/QkT08StrFzqF+wtaNGiRWUvPvvsciRNaMxF8R3roBOxATu1T749st3qzfqFJWCO0JWr8pMRGx8Zt5wF0KZgvwe/SAwdZZTivpDj/GhVV9dTfrVDuSQwXgggpPZBjhZPor+uXx5MrI1YPHZRodgV9IHX1NDwccd2PDnzqLT4cVt3p8n2xg8JZE1gzpw5zU4i8Wnb0Z9ELIHZWQsIWgUln8Pkf8dAIvFbGMZZZk8MWmeoDwkEg4B5cX3hueefwzNinmuNpHwz6dhzuru7C/L2b/QvqAFg2scZysfxH5xpdv1xsMR5eHtn52OuJVHAuCZgTqoMDg4eLmwbCYekCaPrOryn30DNm77WjomL8eDEioo/LmtpifvdJuWTwHgj0NzQcIVtO5d40W9LijNbOzt/64WsXGUU2gAQJn2iCumlbhMFDQGQojNUXj7PZCDMFQjrkcBwAsgcONe2rA/JlJiPY3v74uzePj7HFxiuws5/416HDs8Ly1oaSoWerxjse2pZCeQw2Lmj/IYEgkFgdiTygZRU5gXTA985/URHV5dJyV1QJ9yCGwBmaJsidT9CRJUvezLMWlzf0d15nieyKIQERiYgkWynbnCbva9WyX1spWoRKnhPHKubhV/zHvhJz0Q1t78tE2ToDUjpllq95lhiDVYkVstw+JVQKLQUkfo2jKwavyUBEvCawMJdF05aMyH+ojc+azqlysvf29ra+rLXemYrz+1DKtv2Riw/e/bsyfbA4EpPjlTAorKEPq61q+uvIzbGL0nAZwKI5hfue6NvprYSM2VZWVgl1CQhB8OOVpMc6YSlDk0yKoQs2YvEPdq2RG/YDmtbDPQgrr9O9os3T32t/Y3FTMLj80hRPAlkRiAaqf8NnIXPyKz02KUQ+euHbV1dXxu7VH6uBsIAMF1tjkY/aadsT5KPoFOvqfKy+bCw1ucHI1shARIgARIoRQLRaPREkbLv8ahvr8twaA7ChG/ySJ4rMa6PMbhqfYfKrR0dd2K505O3drOSYCcSJg96YAwcrzhRDgmQAAmQQH4IzJs3bzdhOzd41RoC110QlMnf9CkwBoBRJlxR8WVM2dvjpbtjrsVHmmtreSzQHUXWJgESIIHxSsDa2td3G4787eYFAEz+f0P0zbu8kOWVDA+8Gb1SRYj169dvmFE1PQHv5qM8kSrV4dNmzHho48aNazyRRyEkQAIkQALjgkBTfRT5Q/SZnnRWyj5tyWMRjbTPE3keCQniErlCbIDHPIoNYPYAOkQ49J4gLbt4NHYUQwIkQAIk4AMB5A05TtrOfRDtzSq5ss7oiHeYbelAfbzpnLddcqzy8nO82gqAP0DUSSZ/BRWDaOx4S47SSIAESIAEXBHAEd96y3bMZO3J/Iil/3uDOPkbSIHaAtg+ahs2bFjv5VYAornttev0aYMbenqecHVnsDIJkAAJkEDJEkCWv/JEwn5QCx31opNS6PU2lv57e3u3eiHPaxmBNABMJzf29jw9beoUhGGVES86jb2cw6qmTnm+p6+PWQO9AEoZJEACJFBiBKZNnvxzdOl4r7qFIF5nxrriz3olz2s5nixxeK3UO/KcUEXF57CE75XlpCwhb2msqfHEsvOpzxRLAiRAAiRQAAJN0eiZiPR3jldNK6FuC5rX//C+BdkAEIjp3xJS0psQwei5I8Q0HQrdM2/mzInDQfBvEiABEiCB8UkATn+HaNu53qvew+Fsbb+d+JJX8vySE9gtgO0d3tDb+8L0aVV7Ib763p5AQJz2ZDg8p6e316QhLmgiBk/6QyH7+kNRAAAgAElEQVQkQAIkQAI5E4hWRxuVsB/CZLBLzkLeXdHG1HJS1+rVKz2S55uYQK8AbO818vyeCx/+Ts8oaPFfOGp4hWfyKIgESIAESKDoCFRXV08TIecBLP3P8Ep5paz/Raa/R72S56ecwK8AmM4jeMLg1Kqqp5SQZ+JPj3SWH5g+dcpbG/v6nvMTMGWTAAmQAAkEj4BJ2pUaSN6Lt/UDPdTuH+2d8XMhryhWlz2aTD3EN4ooHKN4bXrVdDjz68NHKZL119inObpqxoznYGC0Z12ZFUiABEiABIqWwIRwxU3I8HeSVx0wSeiQ6OcoRJ7d4pVMv+UUW3AcFa2rux+21bFegZFSblZl4Q8GITezV32iHBIgARIggdEJIMzvZY5jf3f0EtldwXn/lO2ow+Or4//MrmZhSxeFD8AOiJzBVOo0rK3EvcKGFYXJzmDiz3PmzKnzSiblkAAJkAAJBJOAOe6Hyf//vNTO0fKyYpv8Tf+LbQVgaMzq6+vnKUc/hf87watBNDkDyidNPGT58uVveCWTckiABEiABIJDIBqNnihTqbvg9BfyTCsp/tLR2WmCBxXFvv+O/S62FYAh3ePx+DKhrPM8G8C3Ry7av3XrX+fPnz/VS7mURQIkQAIkUHgCCPP7YST4+Z2Xkz+W/tvNqvTbU0jh+5itBkXjBDi8Yz29PS9XTZu2m9TeeXBiFWD35ODAwury8jvXbd2aHN4m/yYBEiABEig+Apj8DxbJJI77iUqvtIf/2KYyOP3h7b/bK5n5llOUKwDbIR3w3gMuxKqLpwl+tBYHb62s/L05IpLvwWB7JEACJEAC3hJoamqar1Opv+LNf5JXko3TnwhZi1a0ty/3SmYh5BSlD8COoOC8Nz3V3/80BrfRW4DqzzKsPt7e3j7orVxKIwESIAESyAcBhPhtko7zOHbnd/eyPUvJL7bG4z/zUmYhZBX1CoABtmrVqg2wYj4Kd8ZebwE6x8FqvJ0rAd5SpTQSIAESyAeBoRC/Kf2I15O/Vuq6Upj8zRgUvQFgOtHW1bUSRsCJ2JNJeHpjIWRw74YNd9II8JQqhZEACZCArwRm4yMte4mWusbLhpSSD50ej13gpcxCyipaJ8Dh0Db29nZNmzJlLU42fmz4NZd/zx3o79+7IRq95/XXX0dCQX5IgARIgASCSqCptnaunbL/Af329FRHKVsSjn3MvX192zyVW0BhJWMAGIaI6//ijKlTJsEfYIHHTOcmtg3udcSHj/zTihUrkOmJHxIgARIggaARaKyt3R86YfKXMz3VTcp10k4dEV+9Gi+ZpfMpeifAEYZCRiN1iPEszhzhmtuv/lGzre5jS95aUjSxnt12mPVJgARIoBgIRCORA6RUf8NRv+le6muO+4VD1mEr29tf8FJuEGSVhA/AMJB66q7TTfrgv/oA+PDXKrseMScPfJBNkSRAAiRAAjkQmB2JfEAq6x9eT/5QpR8Jfk4oxcnfYC7FFYCh22fezJkTt1VWPmzO9edwP41ZRUvxkpbyGEQkXDdmQV4kARIgARLwlYCJ8IcgP3d7ec7fKGzO+ltO+OMtq9vv87UDBRReiisAQziXrVu31VHqGCXly17zlVrMl8hF0FhTE/VaNuWRAAmQAAlkRiBaHz1dpGxE+PMuyM87LZu4/p8v5cnf9LNkDQDTuVgs1qeT1vFCSs9DNWLppB75CB5rbm7eL7NblaVIgARIgAS8ItBcW3upcOzfIKOrD1Fb9dfau7pu8krXoMopaQPAQG9/rX1NuKL8KEzYnntvwkSc5SSS/5xTV3d0UAeYepEACZBAiRGwmurqrrOF/B765fk2tqXFFR1dXVeXGLMRu+M5vBFbCcCXeFOfYycSj3odFcp0zewVKaXOQ3SoXwagq1SBBEiABEqSQHV1dWWFCt+BAD9ex3t5m5eS13bE41/GH0WX2jeXAR83BoCBY6JDpQYHl/hhBAzBf/vmQYIiwYBBudyNrEMCJEACoxDA5D+t3LLuxSvXIaMUcfU1nLt/FOvs/IorIUVWeVwZAGZs5kbn7pNMbXsUTiMzfBkrKe6oqav77JIlSwZ8kU+hJEACJDDOCDRGIntpYf1JSN3kR9dxhPDq9njHV/2QHWSZ484AMINRX18/z3K0H2dGh8ZaSvFiuLLypJUrV3YFefCpGwmQAAkEnUBDbe2xCPBzu9B6ih+6KqF/iHwyX/NDdtBllrwT4EgDgPP7y2RZ+EjM1G+OdN3td4g9sH8CKYqj0ajXIYndqsb6JEACJFAsBGRTffQyKeT9fk3+eFZfPl4nf3MTlFQugGzu6o0bN76x28yZ9+uk8zF48flhWU5CvIDTZlRVvbGht7fkQkhmw5plSYAESCAbAgt3XThJ7apvw8T/RdTzZ6XaUlfGOuPfyEavUivrD9giooSwvnWp/v6H4BPQ6JfaWqifVc2ounDp0qVJv9qgXBIgARIoBQLzZs+u3zqY+BMm/3l+9Qdv/otj3Z3/65f8YpE77g0AM1Bz587dI7Ft299haO7j18AB9JMiFTrFxCXwqw3KJQESIIFiJtAcaT7SkYk7fYjpvx2Lg9NaF+Co30+LmZNXutMAeIdkJBKpKlPqL37kDtg+WIgXsB5OF6e3dnX5kajIq3uCckiABEgg3wSs5oaGb9m2cxka9mVrGln9EspSZ7R2dNyZ784FtT1fQAe1s2Pp1dfXNzBtxoy7EFryQKwENIxVNvdrcgK2Gj41Y9r0so29PY9BzrgINpE7L9YkARIodQKza2r2rJo2/T7H0Wegr744ppuUvpalTsDkf3+p88ymf1wBGEZrsRChW2trr8NEfU42ILMtixvyMctOfbpl9WrPQxRnqwvLkwAJkEAhCDREIkdIpW71LTib6ZSU68pC1rGlmtLXzbhxBWAYvSWI4rexr++BaVOngI081A3cNHXrHGWdWjVlyoqevr62NGV5mQRIgARKhsBivGitbWj4PrZcb0CnJvvVMbzhdkjHPqy1s3OFX20Us1yuAIwxeg0NDWcpR9/gT7ap/zQM34BbJgwMnGdSGI+hDi+RAAmQQNETQHyUGpHSd+Bd6wO+dkbJV0Kp1DFcZR2dsi/7LaM3V1xXkE741452TsQEvcVPzbHdcNq2ysrnGmtr9/ezHcomARIggUISaIzUnypS9st+T/5Sy3trttQu4OQ/9mhzBWBsPkNXzcSspTLnUiMZFM+5iPFSlY7+Vlt35w8hhAmFcibJiiRAAkEiMG/evN22btp0Pfb6T/JZLzyqrcsR1/9bfIamJ00DID2joRLIHzBTOfJuvy1X05bW8nHpqLM71nS0Z6gei5EACZBAIAkglv9/Kamux1bqrj4r2K8tdTZWbrG9wE8mBOgEmAkllOnt7d165IePvHXta2/siS2B92RYLadiSCZUK5Q+p2rK1FRPX+/TEMLjgjmRZCUSIIFCEYAP1ZRpU6dei5DoV0KHiX7qgTfZtY6SH0Gel7/52U6pyeYKQA4jGo1Ez5XK+anfzoFGNRgDT0utP4uEFStzUJVVSIAESCDvBObU1R2d0vqX8G+q9rtxk33VUepEvPl3+91WqcnnCkAOI9rT17N0SlXV05YWx+HVvDIHEdlUqdZSnl21y9TUBX29zyyhb0A27FiWBEggjwSam5tnTJ24y3VwYLoKry9+JFl7V2+UFLcPpFIndnV1bchjN0umKa4AuBhKk0go2d9/F27097oQk3FVDNYLtpLnYZnr2YwrsSAJkAAJ+E9AYsn/TGU7V/kYx//fvYDDdBIx/S9pj8V+jC+5RZrj+NIAyBHc9mqNjY3l2ravFI7+kktRmVbX8EG4NVRZeeGqVato9WZKjeVIgAR8IYCJv0na9nV4ETrSlwaGCcXzb42l9Sdburv/lY/2SrkNbgG4HN2NGzfaPb29D1ZNndKGoApH40dQ5lJkuuow2uR+IpX6XNWU6b3YjnghXQVeJwESIAGvCSxcuLACCdQuw8vP7ZDd7LX8keWpR+Dsd0w7faJGxpPlt1wByBLYWMUbI5G9hFJ/QHjLuWOV8/IaHGAeVWVl/9Pa2rrKS7mURQIkQAKjETBpe22RvE5I3TRaGS+/x1t/SlnWt1tjsSsgl0v+HsGlAeARyO1iFu66cNKaSV0/044+3WPRo4oz+2EIIPSzQeH8X3d3d8+oBXmBBEiABFwQ2DcSaRiQoSsd4XzchZhsq76OF51PtXd2PpZtRZYfmwANgLH55HwV+2KfwqT8c0T18d0TdruSGEz4BOhvn9rVdeNiIVI5K8+KJEACJLADAXOmH8+XS/FMuwDHn8vzB8cs+evPwPF5Xf7aHD8t0QDwcazxo4kg6cUtUmo/swru3AMpW7SSF+Fc7J93vshvSIAESCBjAipaHz1VaOdKvMzMzLiWy4JmVVMp+X0s+X8XomyX4lh9FAI0AEYB4+HXVlN99FLtpL6NoBghD+WmFaWEfiAcDn99RXv78rSFWYAESIAEdiAwtM9vJa+Bk9++eQUj5TKdkqfG1sReyWu747AxGgB5GnQcFzxYJFO3wnslmqcmtzdjw2XmlrKJlYtXrlzZlee22RwJkECRETDOzHgD/4Ej5PF5Vt0RlvqhVOrb7e3tg3lue1w2RwMgj8NeXV1dOaGs7Du27XwNzeY1FbPJNIgAAr9BhK5vcz8tj4POpkigSAjMnTu3NjEwcCne+M+Gyvk9Ii5lVzhknbmqvX1JkeAqCTVpABRgGBvr6j6Et/KbsBrQkO/mYQhsklL9cNaWmh8teWvJlny3z/ZIgASCRSAajdYIx7kMSXvOykd+k+G9Rzjfm1R5+ZdbWlo2D7/Gv/0lQAPAX76jSp83c+bE/oqKy7HM9gUUyutqgFEK52rX41ztNTIc/il/eKMOEy+QQMkSGEpxLuU3MPl/Hi8kFQXo6OshKc5r6ey8twBts8mheYCfghJoamo6VCeSZjUg374BQ/3GDbBBKuvH2pLXYt9tU0FhsHESIAHfCWArctoEFfpaSorz8fv3NU3vKJ3RQqsbJ0/b5esvvfRS7yhl+HUeCNAAyAPkdE0ccMABE3p7er6DM7YXFmIJ7h39ehDB8Me7TJt6LX+U6UaM10mg+AjMrqnZE2lzL9RSfR7PmcmF6AEC+qyEDufiiPIThWifbb6bAA2AAN0RDdUN+yrLuR6rAQsKppYUvdoRP6+cPPHa5cuXv1EwPdgwCZCAJwRMsh5l2xcLqU7LbxCf/6gP36NBnOu/ApP/5fTw92RYPRFCA8ATjJ4KkQi8cZp0UlcjbsAMTyVnIcycGkDwj98h+McV7d3dK7KoyqIkQAIBINDc3LyfMzh4EZ4jn4Y6+fXq36H/mGSeLAuHzmU8kgDcFMNUoAEQvDEZ0mjevHm7benru1oK+Rn8WchxcqSW91vCvorpNwN6s1AtEtiBwOxo9HDHcb7uOPqogoIxq4lKfQPL/TdCD5xA5idoBAo5sQSNRSD1idbWHoalux/jTXxeoRXE/t1Tlgz9eNK0KfcsXbo0WWh92D4JkMDbBEyMkYpw+NOO1l/Ecb75BeZiCyV/JS3rMiz3v1VgXdj8GARoAIwBJ0CXtsfjvgqGwG4F10uKNyylfmtL+bOOjo7VBdeHCpDAOCVgHPt0OHyuY9tfKOSW4Xb8WspnLKEvaOvsfGacDklRdZsGQBEN1/z586du27TJLO19uVDOPDviGvITkOJeZYdvbO1ufbiIUFJVEihqAnDsO0Rp/SWc4T8p3zlGRgKHuCJrtAp9syPecQuuw4+Zn2IgQAOgGEZpmI5w7pljJxLX4Gf2kaCoj+2BF7VjXS/L5J2MJxCUUaEepUQA+UR2wd7+Z5TtfBEz7F4B6ds2HB/+QcJJXbVmzZr+gOhENTIkQAMgQ1BBLDanru7ohBBXBGDP79948GDaaknxe+U4v6LTYBDvGupUZATknMbGD6WSyc/iTf/j0H1CQPSHOuJOmQxd3P5a+5qA6EQ1siRAAyBLYAEsLhsj9ScL6Xwfv8jGQOknZYt29K8nTd3l18uWLXszULpRGRIIMIH9qqtnbVahUxEn/5xCRQkdHY9+GKt934itjj0/ehleKQYCNACKYZQy0HHRokVlLzzzwueFci4LhKPgDjoPZSIU+o+WKrumNdb6XAbdYRESGHcEjCd/mWWdhIfyWTj5ezgA5D1HyFjQzSkgXP9Ge2fnY2OV47XiIUADoHjGKiNNF+66cFJ3ZedFiLp1UaHCfY6tqH4CBsFlfIiMTYlXxw0BC0l5DpeOPEVK5+Pw65kauJ4r+Qomim+2x+P3B043KuSKAA0AV/iCW3nOnDnTnUTifBsnBrAiMCVomkol77KFOD8ej68Lmm7UhwR8JqDgxb9Aar0Iv81PYNLf3ef2chMvZZdw1Pc7ujt+BQH4ufJTagRoAJTaiA7rjzEE7MEkkgw552NFYJcgdXcoJbEu/xSPEAZpVKiLTwSGJn3Ltj+BFOAno409fGrHtVhE/lzthOTlVVVVv2TAL9c4Ay2ABkCgh8c75UwK0HLL+jKiCn4pYCsCNo4RfTPW3fkD73pLSSRQeALI8hne0tv7QSdpn6ClPhlOutWF12oMDaRsldr5wf7ve9+td911Fw4Y8VPqBGgAlPoID+tfJBKpqgiFLnDePks8PSjdR8zwa2Lx2EVB0Yd6kEAuBBCjY4YYcD7iWPbxMGyPDpixPWKXlJQvO0Jf3tHZ+QcU4FL/iJRK80saAKU5rml7haAi5drWpyDj3zfxkGpOWyEPBWgE5AEym/CcwL6RSMNWpU7Anv7xUqoPYast7HkjPgjEw/8FoSWyfcbNxM/ofT4wDrpIGgBBHyGf9VssROj2aPRkxBK/GG8s+/vcXFrx8Av4QntX13VpC7IACRSIgPGrSW0bPEwqfbitxTF4iNYXSJUcm9UmbPf3O7q6Hs1RAKuVCAEaACUykF50w8QXh5PSJXBSOg7yCnJv4IhgUltqIZIMPelFnyiDBNwSwF7+hM1vbV4gQqkjbVscicy2xlAO1Bn9dH3cnrdDWNY1CNX9dLryvD4+CBTkIT8+0BZvL+dG5+6TSA5+UUvnVNwgE/PdE6xFxqtmTN8HHsjb8t022yMBE5BnUkXFQclkEsF4rMOlsA8KQsKdHEfmdaWs6yonT7yR0ThzJFjC1WgAlPDguu2aST6iE/qTUtnIPijmupWXXX39XSxRfju7OixNAtkTMCl17VDoADjDfQBv+IcgrPYB2BGvyF5SkGqopdjfv7GmoebmJUuWDARJM+oSHAI0AIIzFkHWRDXU1h6DZcQv4sF4NBT1f/lTioGJ5eV7LWtpiQcZDHUrLgJmOX/Tpk3vFYPJg7US78dq08GBDcSTJdqh7TOh/4Af50/aOjufybI6i49DAjQAxuGgu+lytDraKMr0OchDfrrvD06tbujojv23G31Zd/wSMEfyUgMD+2FinC+VmoesmfshINbeRbycP+JgwnG2XVnWTTKZ/G3L6tVrRyzEL0lgBAI0AEaAwq8yImA1R5oPc6zkuTAGTvLpobpt0E7VIM/4xow0YqFxS2CHZfwDtG0fgPtxL7zd1wNIaT7jsEIGw+Z+ZYdvRCTNR9BPHuMbt3d/7h0vzR9H7jxYMwcCjbMaq2WZPst27LNwQ5mHrocf/VX4AlztoUCKKlICe++99+6JRKJZplLNtpRNMDyb8FbfLKRsxNn78iLtVnZqK/mclvImVLojFov1ZVeZpUng3QRoAPCO8JKAmlNXd1RKiO/AafD9Xgg2KUiROXCBF7IoI9gE5s2cOXFbeXmtKCurdhxnVkiIOttxmoVWTVLqpqDlssgXTTykN+Bo7K06IX4VWxN7JV/tsp3SJ0ADoPTHuCA9bGxo+Ixw9K88eDOzrfKy3VtbW9cXpCNs1CsC1ty5c6sT27Y1CBWqgaNarWPrWVigR3x8uxZv8dVYxA5eKlyvep+lHCzvb3a0cy/O7d8Jx8WHGJs/S4AsnhEBGgAZYWKhXAg01tV9CFuwf3NrBMCz+TOxrq7bc9GBdfJPYNGiRWUvvvjie5xU6iA8YA7GPfAe/LcO90FZ/rUpqhb7lVB/Aac7B5zkn+H70l9U2lPZoiNAA6Dohqy4FG6urb3UFvJ77rTWV8EP4GJ3MljbTwIm22SFCh8rLPFRvMkfg0lssp/tlYrsoaN7Wv7d0up3stL6U0tLy+ZS6Rv7EXwC2GbjhwT8I/Dprq4rb43U/zfSodbk2gqSBM3JtS7r+UpA4iTIETgJcg4m/ROH3vAdX9srFeF409eP4GjivduSyT/ylEupDGvx9YMGQPGNWVFpvFiIVDQk7xC2zvkNHp7es4uq0yWurMkkCSe9s5TtfNUWiSgn/QwGXMp1eNN/ICyd+ydNn/4Qw1xnwIxFfCdAA8B3xGzA0fphOH3lbgAIUUWKhScwlEI6oc8VyeTFUshqHjxPMyZKviKFul9q+762zvhzKP32+khnZ5qKvEwC+SFAAyA/nMd1KxWq4vWE48qfqcjjshf/8DdFmo7XycSPhs7cl2hsHbejhIh8W3BG/3HhWA+GJ4TvX7VqVadbmaxPAn4SoAHgJ13KHiKQGEwMwDnMzWd8BHlxQ8inunPmzKlL9id+6ogkUkTTZ3hHzG878DnPYGn/YRFSj0ytqnoGS/tJn4aCYknAcwI0ADxHSoHDCVhWqgknAYZ/nfnf2tmUeWGW9IpAY6R+UbJ/4AbI4xbMO1BxF8e0kg9LWzzsWPLvsVgXo/F5dcNRTt4J0ADIO/Lx12BKy/chol/OH+w1v5FzZVbMmsD8+fOnburp+QXiL5ycdeUSqmDe8KUjXnRC8qmQVk+WT56wZNmyZW+WUBfZlXFOgAbAOL8B/O4+opiF+9ZvOMeNw5hS6nW/9aT8twnMxmdzb999cPJrHndMpHgDdurTUlpP2lI/NZhILGUwnnF3F4yrDtMAGFfDnf/Obnprw3lailluWsb2AeOfuwGYYd1oNHpManDwjnERkhfZ9ODQ+Ip25LPKEk9VplJPvdLVHcsQFYuRQEkQoAFQEsMYzE40NzQf6DjJKwUyA7n5KFs/7aY+66Yn0FBXd4FI2Sbrojt3zfRN5b+ElG8qKV52pHwRqYJfrgiHX/5Ee3vLYsSoyL8ybJEEgkPAxc5scDpBTYJHoKG6YV8Z0g9h8p/pVjuZCtW0v9a+xq0c1t+ZwGIhQrdE6v4/+Gj+985Xi+sb7NkncL+1CyVfNZN9CJO9dJyXW1avXltcPaG2JJAfAjQA8sN5XLXSWFu7Pzr8d5wXn+G648h/3hGPv8+1HArYiQC2+yenBpJ3ID4NjvgV1adHCLVCKL1c2zqmhIyVlVkrVrS3r0Iv7KLqCZUlgQIS4BZAAeGXYtOIFnewTqX+6tU+MuLL31aKnArdp+bm5jnO4OA90CNweRYQUGc93uDXYI9+tXBkNzYl1mBfoi2ldVttbW3rkiVLBgrNj+2TQCkQ4ApAKYxiQPrQ1NR0qE6mHvAqE5xZ0rWliMTj8XUB6WJJqIHz/ScLJW7yapyyggLnOzx04vAKiWOCX4P0t2sQH7crpMQaGQ6v2bJly2p63mdFlIVJIGcCXAHIGR0r7kgAWeGOtBOJe/HdBK/IwEP71/HuGCd/j4Auxn7/bbW1lztCX4QVmrwY/+Zt3iTBsZRYoioqnkJ43FaPukMxJEACLgnk5SHgUkdWDziBhoaG4+Bs9QdMKp7F7Ddv/46STbFYrDvg3S8K9farrp61NRS6FQcyFvqt8JAznhR/Unb4F63drY+iPe7L+w2d8kkgBwJcAcgBGqv8hwAm/08pR/8GE0uZl1yko6+LdcY5+XsAdXZN40e3quSvMEbunTLH1qcfHvi/mJhMXvnymjWvjV2UV0mABApNgAZAoUegiNuP1ke/Kmz7SuznerqShGXj9srBgcuKGE0gVK+urq4sC5f9MOWkzsMQeTpGwzsolfy9SFgX8bjmcDL8mwSCS4AGQHDHJsiaqaba2h87jn2+D0o6tqM+u2zduq0+yB43Is1RTBhmNwvH2cfPTsOqeE2EQ59tb2//u5/tUDYJkID3BEov6pf3jChxBwILFy6swE1zJ3zIzvQDjCX0Vzu6O3/nh+zxINPkXqgMl39LKnUz+ruHn33GmsKfBuzURzo7O1/1sx3KJgES8IeAr8uC/qhMqYUiEIlEqsKWda9w9Af90AFL/79o7+o61w/Z40Hm3OjcfRKpwd8gsM8BPvdXW5a6sjUWuxTt4BQfPyRAAsVIgCsAxThqBdB5zpw5dcq2H4UjmS+Ti9lDbu/s/Cy65i5xQAHYFLpJsypTptS3bCd1C/DV+KxPPzw+TmuPx3/CsfKZNMWTgM8EuALgM+BSEI8scQvg7Hc3pubd/egPgsHc1tYVOwOyeVwsS8ANkcgRUlg/F1I3ZVk1++JIl6uEOLGts/OZ7CuzBgmQQNAI0AAI2ogETB8c8zsLx/x+jqhx5b6opsVvsOf/Ocjm5J8F4Hnz5u22pa/vainkqVlUy7mokvJlx1IndHR0rM5ZCCuSAAkEigC3AAI1HIFSxmpuaLhc285V0MqX0yLY8/9lR3fXOZDPfeQMh37Iya+8/Pzk4ODdmPzzkiQJzn4PilDoOEz+b2WoJouRAAkUAQGuABTBIOVbRZwfn1YZDt/pOPoov9rWQv0s1hUzxwi5558hZGzFHAM/jB85Om8JfGCY6e91dHUthoo00jIcJxYjgWIhQAOgWEYqT3o2RiJ7IWbMvTjm1+hXk0roH7Z1dV0M+Zz8M4DcUN2wr7TE5flM24u9/o220KfFurr+koGKLEICJFCEBHxZ2i1CDlQZBBrr60/AlIx48XoXn4BopcXX27q7rvRJfkmJhf9FE3Is/K/QzinoGObkfH3UUquy7OS2Vas689Ui2yEBEsg/gTw+VPLfObaYGYHF2ONvjtRdrh19r1+TP/b7U9pSZ7d1d3LyTzMsmPgjiOT3C5HyCVcAAA5GSURBVCz3r4BB9ikUz9/vVMkba+ojhyBrX2caNXmZBEigyAlwC6DIB9Ct+o2NjbvqZPJ2xIo/0q2s0eojO9wgzvl/pi0Wu3u0MvxeiObm5hkilfqq7TgXeJlZMSO2UvZhjL7QHovdllF5FiIBEih6AjQAin4Ic+9AU1PToU4ieSck+BcyVopex5Yfja+O/zN3TUu7pnG6nFBW9iU4XV7o1wrMWATh5f+oSIZOZyKfsSjxGgmUHgEaAKU3ppn0SGKZ+RIsMX8Xzn6++YFILVc7jjwutib2SiZKjbcy+1VXz9qCiR+hlT8vtJ6S7/5jZSYhpbqsLd5xNdqml3++B4DtkUCBCdAAKPAA5Lv5oSN+lvVbR8jj/W1bLQ05yY+2rF691t92ik86Vl7m60TiK0KqT+KNP1yQHij5ChwMz0DuhRcL0j4bJQESKDgBGgAFH4L8KTCntvb9CSFvw6DX+9qqFH8NlZef0tLSstnXdopMOFZdDrFs+xIYX8dB9YL89vDWn1RKXuMo9R2k8B0sMoRUlwRIwEMCBXkIeag/RWVAYDG8/G9vaLjMtp3LUNzf6I9KXtsRj1+IdrikDAiLFi0qe+H5Fz4pnNTXMOfvk8Fw+VbEhPMNhazPrmxvf8G3RiiYBEigaAjQACiaocpN0caamqhjhW6TWh+Um4TMapljfo5lnR+Lxa7PrEZplzJH+eBc8VkYXSa9sX9Olplh7FfK+g72+q9BceZcyIwZS5FAyROgAVDCQxytj54utfNT7DNP9rObJmqc1GWntHa3PuxnO0GXbeL096xffwKW2T+HY3xHQ9/8nd8fBY5W8v6Jtv3lV7q7Y6MU4dckQALjlAANgBIc+Pnz50/d3Nt73TtBZHzuoX51gtYfG88TjInYh7f9s3F+/wy/UiZnO4j4YXdIHf5yW3fbA9nWZXkSIIHxQYAGQImNMwL7fFgk7F9qqWv87hpi+j+gw+HPwJlsk99tBU0+OJeD80e1NEv88gjoF5TfUr9lqSv3jESuWLJkyUDQuFEfEiCB4BAIykMrOESKVJOFuy6ctLqy+4diaELyfTKCE7m1GHvK/w9tjZuEPovhTHlrY+PhMpU6BRn5TkLfqwJ0uyCkg7gzXFFxKcP4BmhUqAoJBJgADYAAD06mqpmIfjqR/DVm4oZM6+RcDiFjQ7Z1esvq9vtyllFcFVVjXd0H8UM5BTPsyfCn2DVo6mstH9eW+Fo8Hn82aLpRHxIggeASoAEQ3LFJq9nChQsr1nZ3L4an+VdR2N/jfWgAN8sKePufjFS+K9MqV+QF9mps3DvlOKc5tnMaDKs9A9kdKVulIy5r747/AfqNm5WYQI4FlSKBIiRAA6AIB82oXF9T/0FliV8ihGxzPrqgpLipP5X64po1a/rz0V6+2zAe/Ft6ez+YtO3j8aM4CdNpXb51yLQ9E2JZKv29XaZPv2np0qXJTOuxHAmQAAnsSIAGQJHdD/Nmzpw4MHHit/DWj8AyeThmJsWAcKwLOro7biwyVGnVNWGRK1T4CPhNnKClPAGT/tS0lQpZQMo3kbL5mkhD3U/o4FfIgWDbJFAaBGgAFNE4NkWajtcy8XPsRVfnRW0t2xxLnIy95WV5aS8PjZil/YFE6ngpNXIhyPejSd+3Tlx3CxM/UvVeMZBIXF+qKzCuGVEACZBA1gRoAGSNLP8VcORsV51K/SQ/5/rf7p8S6jZVET6v2OP577333rv3b9lyOOb5w6V0jgjy0v7wO2som6LSV1dNn/4LLPVvG36df5MACZCAGwI0ANzQ87+uRDS/0xDN74d59D7v11J8I9bZ+RP/u+d9C7Nnz56s+xH2OJQ60rbFkUhJ8B60UlT3OZSNOVJcG6mru4FL/d7fI5RIAiTwNoGiejCOp0EzS9WDySTi6stD8tVvKcWLoYqKT+IceWu+2nTbjlkdsQbF++2QPlQ49mFwhZ8PmQUPwZtTv5R8Dgl7ftAWi92D+kymlBNEViIBEsiUAA2ATEnlqRy80SdsfmvDtxwlL8pjrngtLHWtVOqSgKeItRDzYF+dSCzAcByMf++HP0RjnobGl2ZMEiWh1B+1Uj/p6Oh40pdGKJQESIAERiBAA2AEKIX6qjnSfGRKJm7EoNTnSwe09VpIirNXdXb+LV9tZtpO46zGalFm7y+FOkhrewGOPB6ICX9SpvWDXG4ogZKlfmFL+TNM/KuDrCt1IwESKE0CNACCMa5WU23tFY6QX4E6eVu+No5+gzp1fnd3d0+BMSjs3TelBgfnW0rtn0rp/ZUS++fR7yF/3ccyP350N0yZNu0OOvblDztbIgES2JkADYCdmeT7G6upru5mxJb/dL4axrLzeqHVee9EkMtXs0PtmD17ZM7bO+E4c+GRvw8i2e0nhb1fqbzZjwQT6YE3w7HyjjLLumFle/sLI5XhdyRAAiSQbwI0APJNfFh70fr6nwhHfylfapj88JUTJpy7fPnyN/xsc7/q6lmblZojRXgvIey9cI4dE76zNyb6GX62GyTZCC70jCX0r1V5+e3FfpwySFypCwmQgDcEaAB4wzEnKQ21tcdKIU2+dt/HAW+hmzABX9je1XVTTsoOq2RC5/a9+WZElJdHHceJKi2jQttRTHpRGDRRFJ/gRTvFJsP4VChL3apt+7fjIWdCsY0P9SUBEvgPAd8nHsIelYAVratfkY9Y/jje92i4svKslStXdo2qzbALc+bMmW7bdg0CENXAKSEipKzRtqh2hF0rpKpBbIJZeJvHaj4/OHq41ZLiXoQUvBnOlA+DiE0qJEACJBB0AnyAF2iEonV1J+dh8u/Xlrq0Ixa7dtGiRWas95DJ5LSklNNlIjEdx8/2xMS+m6317rAEd4c+u2FSR+Y7vVuyf6BiO5q3Z7PtyeZQUmts349v2xErKoMA8VdQuROR+u6nQ1+BfkhslgRIIGcC4/spnjM29xWRY/4ezKMnupc0hgQp12GS6sc2w3R41E8eoyQvZUDATPowff6hLOv3EydP/tNLL73Um0E1FiEBEiCBQBKgAVCAYTH75z3rN/QA/sQCNM8msyBgzutj0v8zTk3cZ1WW/Y3OfFnAY1ESIIFAE+AWQAGGxzjPSWVx8i8A+4yalKITWyN/h4H2wC7Tpj2I5f1kRvVYiARIgASKiAANgAIMVqi8vCaZTBWgZTY5CgEk3ZPPI1vgvVZown0rO1a++u9y8fgoVfg1CZAACRQ3ARoABRi/FELdFaBZNrkDAbzdvyaUfEQL9UhZRdlDOCHxOgGRAAmQwHgiQAOgAKPt2GqrVEz2lmf0PTi48Kgl5T9EOPxIa2vrqjy3z+ZIgARIIFAEaAAUYDgiA5FVqyd0mtN1ODrOj08E+nEC4l+WZf1LpEJPTN518mPcy/eJNMWSAAkUJQGeAijQsEVra19BAMB9CtR86TUrxRvSkc84Qj9llYefwrHHZwKe2rj0xoA9IgESKCoCXAEo3HDdg6ZpAOTAH8mM4EEpW5HX4AkkT/xXuSWXrmhvXwFR9K3IgSerkAAJjE8CXAEo0LjvG4k0bJOqDc3nLf1vgbrqtlkk0hNxvNm/gP8+HdL66T0aGpYuWbJkwK1g1icBEiCB8UyABkABR7+xtvZGhNQ9p4AqBKppRNpLIswwjCK91JFyacgpWy4qxEtw2FsfKEWpDAmQAAmUAAEaAAUcxHnz5u22bdPmV7FfvWsB1ShE07B75GrtiFUyJF9C5ryXldYvndrd3bpYCAZIKMSIsE0SIIFxR4AGQIGHfHYk8gFbWY/ACCgvsCqeNz+UMEfrDpy3X66kjNlarhB2cnlNf0PLkreWbPG8QQokARIgARLImAANgIxR+Vdwdl3dxxAa6A60UOlfK/5IxiT/FjbpO80+vZayE154naFUqM0O2y0dHR2r/WmVUkmABEiABNwSoAHglqBH9Zvq6g5yhLw5DymCM9dYigGpxVpEy3tdKr0W/ordWjidyg51hst0PLR5c+eydeu2Zi6QJUmABEiABIJCgAZAUEYCeixcuLBidTx+EY64fQF/7uGHanhD34q39vVCy/WIff+W1GoDAuFvwNv761LLtZZtrQ2VOa9vSSTWdnd39/ihA2WSAAmQAAkUngANgMKPwU4aLFq0qOylZ176sG3Zh8E57gB4xe+GlYHJMAwSKNyPN/IBKfUWrZ2kElafkM6g44hNVkj14Xofym4StrVJqtSmFP6/o9SGXZLJDVWNjRt4fG4n3PyCBEiABEiABEiABEiABEiABEiABEiABEiABEiABEiABEiABEiABEiABEiABEiABEiABEiABEiABEiABEiABEiABEiABEiABEiABEiABEiABEiABEiABEiABEiABEiABEiABEiABEiABEiABEiABEiABEiABEiABEiABEiABEiABEiABEiABEiABEiABEiABEiABEiABEiABEiABEiABEiABEiABEiABEiABEiABEiABEiABEiABEiABEiABEiABEiABEiABEiABEiABEiABEiABEiABEiABEiABEiABEiABEiABEiABEiABEiABEiABEiABEiABEiABEiABEiABEiABEiABEiABEiABEiABEiABEiABEiABEiABEiABEiABEiABEiABEiABEiABEiABEiABEiABEiABEiABEiABEiABEiABEiABEiABEiABEiABEiABEiABEiABEiABEiABEiABEiABEiABEiABEiABEiABEiABEiABEiABEiABEiABEiABEiABEiABEiABEiABEiABEiABEiABEiABEiABEiABEiABEiABEiABEiABEiABEiABEiABEiABEiABEiABEiABEiABEiABEiABEiABEiABEiABEiABEiABEiABEiABEiABAJP4P8Ht4CSGWvwjWgAAAAASUVORK5CYII=;imageBackground=none;" vertex="1" parent="1">
          <mxGeometry x="540" y="410" width="62" height="62" as="geometry" />
        </mxCell>
      </root>
    </mxGraphModel>
  </diagram>
</mxfile>
